<?xml version="1.0" encoding="utf-8"?>
<!-- Generator: Adobe Illustrator 28.4.1, SVG Export Plug-In . SVG Version: 6.00 Build 0)  -->
<svg version="1.1" id="Layer_1" xmlns="http://www.w3.org/2000/svg" xmlns:xlink="http://www.w3.org/1999/xlink" x="0px" y="0px"
	 viewBox="0 0 1000 1000" style="enable-background:new 0 0 1000 1000;" xml:space="preserve">
<style type="text/css">
	.st0{fill:none;}
	.st1{fill:#33755C;}
	.st2{fill:#0057B7;}
	.st3{fill:#DD0020;}
	.st4{fill:#FDB913;}
	.st5{fill:#00253D;}
	.st6{fill:#F6931C;}
	.st7{fill:#99192F;}
	.st8{fill:#30297D;}
	.st9{fill:#E8EAEC;}
	.st10{fill:#486372;}
	.st11{fill:#FFFFFF;}
</style>
<g>
	<polygon class="st0" points="459,247.1 455,263.1 467.3,261.2 	"/>
	<path class="st0" d="M318.9,652.2c0-2.4-0.9-4.7-2.5-6.8c-1.6-2.1-3.6-3.4-6-4c-2.4-0.6-4.9-0.5-7.7,0.4c-2.8,0.9-5.6,2.4-8.5,4.7
		c-2.9,2.3-5.1,4.7-6.6,7.2c-1.5,2.5-2.2,5-2.1,7.4c0,2.4,0.9,4.7,2.5,6.7c1.7,2.1,3.7,3.4,6,4c2.3,0.6,4.9,0.4,7.7-0.4
		c2.8-0.9,5.6-2.4,8.5-4.7c2.9-2.3,5.1-4.7,6.6-7.2C318.2,657.1,318.9,654.7,318.9,652.2z"/>
	<path class="st0" d="M690.9,675.3c-2.5-2.7-5.1-4.7-7.7-5.9c-2.6-1.2-5.1-1.7-7.5-1.5c-2.4,0.2-4.6,1.3-6.5,3.1
		c-1.9,1.8-3.1,3.9-3.4,6.3c-0.4,2.4,0,4.9,1.1,7.6c1.1,2.7,2.9,5.4,5.5,8.1c2.5,2.7,5.1,4.7,7.7,5.9c2.6,1.2,5.1,1.7,7.6,1.5
		c2.4-0.2,4.6-1.3,6.5-3.1c1.9-1.8,3.1-3.9,3.5-6.3c0.4-2.4,0-4.9-1.1-7.6C695.3,680.7,693.4,678,690.9,675.3z"/>
	<path class="st0" d="M690.4,324.4c-3,1-6.1,2.9-9.2,5.5c-3.1,2.6-5.5,5.4-7,8.2c-1.5,2.8-2.2,5.5-2.1,8.2c0.1,2.7,1.1,5.1,3,7.3
		c1.9,2.2,4.1,3.6,6.7,4.2c2.6,0.6,5.4,0.3,8.4-0.7c3-1,6.1-2.9,9.2-5.5c3.1-2.6,5.5-5.4,7-8.2c1.5-2.8,2.2-5.5,2.1-8.2
		c-0.1-2.7-1.1-5.1-3-7.4c-1.9-2.2-4.1-3.6-6.7-4.2C696.2,323.1,693.4,323.3,690.4,324.4z"/>
	<path class="st0" d="M500,196.3c-167.4,0-303.7,136.2-303.7,303.7c0,167.4,136.2,303.7,303.7,303.7S803.7,667.4,803.7,500
		C803.7,332.6,667.4,196.3,500,196.3z M731.8,373.8c2.1-1,4.4-2.3,6.7-3.9l0.3,0.6l-14.2,40.8l22.3-10.1c1-0.5,1.6-1.2,2-2.2
		c0.4-1,0.3-1.9-0.1-2.9c-0.3-0.7-0.5-1-0.5-1.1l0.6-0.3l2.1,4.6l0,0l3.6,8h0l2.1,4.5l-0.6,0.3l-0.5-1c-0.4-0.9-1.1-1.6-2.1-2
		c-1-0.4-1.9-0.4-2.9,0l-29.1,13.2c-1.4,0.6-2.6,1.3-3.7,1.9c-1.1,0.6-2.1,1.3-3.2,2.1l-0.2-0.5l14.2-40.9l-22.3,10.2l0,0
		c-0.9,0.4-1.6,1.1-2,2.1c-0.4,1-0.3,1.9,0.1,2.9c0,0,0.2,0.4,0.5,1.1l-0.6,0.3l-2.1-4.5l0,0l-3.6-7.9l0,0l-2.1-4.7l0.6-0.3
		c0.3,0.7,0.5,1,0.5,1.1c0.4,0.9,1.1,1.6,2.1,2c1,0.4,1.9,0.3,2.9-0.1L731.8,373.8z M697.1,318.1c3.8,1.6,7.2,4.3,10.4,8.1
		c3.2,3.8,5.3,7.7,6.2,11.7c0.9,4,0.8,7.8-0.5,11.5c-1.3,3.7-3.7,7-7.3,10c-3.5,3-7.2,4.8-11.1,5.4c-3.9,0.6-7.7,0.1-11.4-1.5
		c-3.8-1.6-7.2-4.3-10.4-8.1c-3.2-3.8-5.3-7.7-6.2-11.7c-1-4-0.8-7.8,0.5-11.5c1.3-3.7,3.7-7,7.3-10c3.5-3,7.2-4.8,11.1-5.4
		C689.6,316,693.4,316.5,697.1,318.1z M633.4,263.8l-1.3,37l32.8-16.3l0.5,0.3l-17.5,36.2c-0.5,1.1-0.5,2.1-0.2,3.1
		c0.4,1,1,1.9,1.9,2.5l0.8,0.5l-0.3,0.5l-5.7-3.8v0l-6.7-4.4l0,0l-3.1-2l0.3-0.5l0.8,0.5c0.6,0.4,1.2,0.5,1.9,0.3
		c0.7-0.2,1.2-0.6,1.6-1.2c0-0.1,0.1-0.1,0.1-0.2c0,0,0,0,0,0l10.2-19.9L628.6,307c-1.5,0.8-2.7,1.5-3.6,2.1
		c-0.9,0.6-1.6,1.4-2.2,2.3l-0.5-0.3l1.4-31.1l-14.2,17.1c0,0-0.1,0.1-0.1,0.1c-0.4,0.6-0.5,1.2-0.4,1.9c0.1,0.7,0.4,1.3,1,1.6
		l0.8,0.5l-0.3,0.5l-3.2-2.1l0,0l-1.9-1.3l0,0l-1.4-0.9l-0.3-0.2l0,0l-4.1-2.7l0.3-0.5c0,0,0.3,0.2,0.8,0.5c0.9,0.6,1.9,0.9,3,0.8
		c1-0.1,1.9-0.5,2.6-1.3l26.4-30.6L633.4,263.8z M556.2,279.6l0.8,0.3c1,0.3,2,0.3,3-0.2c1-0.5,1.6-1.2,2-2.2l10.9-32.6l0,0
		c0.3-1,0.2-2-0.3-3c-0.5-1-1.2-1.6-2.3-2l-0.8-0.3l0.2-0.6l4.5,1.5l0,0l8.6,2.9l0,0l9.2,3.1c0.9,0.3,1.8,0.5,2.8,0.7
		c1,0.2,1.9,0.4,2.8,0.5c0.9,0.1,1.5,0.2,1.9,0.1l-0.4,1.1l0,0l-0.8,2.4h0l-2.3,6.9l-0.6-0.2l0.2-0.7c0.6-1.8,0.5-3.4-0.2-4.9
		c-0.6-1.3-1.7-2.2-3.2-2.9l-10.2-3.4l-5.7,17.1l7.8,2.6c1.5,0.4,2.8,0.3,4.1-0.3c1.3-0.6,2.1-1.7,2.6-3.1l0.1-0.4l0.6,0.2l-1.9,5.6
		l0,0l-0.8,2.4h0l-1.8,5.5l-0.6-0.2l0.2-0.5c0.5-1.4,0.4-2.8-0.2-4.1c-0.6-1.3-1.7-2.1-3.1-2.7l0,0l-7.8-2.6l-5.5,16.5l7.7,2.6
		c2,0.7,3.8,0.8,5.5,0.6c1.7-0.3,3.4-0.9,4.9-2c1.5-1.1,2.9-2.5,4.2-4.2l0.6,0.2l-6.7,11.1l-11.5-3.8h0l-5.8-1.9l0,0l-8.5-2.8l0,0
		l-4.7-1.6L556.2,279.6z M531.8,232.9c1.7,0.6,3.2,1.4,4.5,2.4c1.3,1,2.3,2.3,3,3.9c0.7,1.6,0.9,3.4,0.7,5.6c-0.2,1.7-0.7,3.4-1.6,5
		c-0.9,1.6-2.1,3-3.7,4.1c-1.6,1.1-3.6,1.6-5.9,1.6c1.3,0.5,2.4,1.4,3.4,2.6c1,1.2,1.8,2.3,2.4,3.5c0,0.1,0.2,0.5,0.6,1.2
		c0.4,0.7,0.8,1.6,1.4,2.6c0.5,1,1.1,2.1,1.7,3.1c0.6,1.1,1.2,2,1.7,2.8c0.8,1.2,1.5,2.2,2.2,2.9c0.7,0.7,1.4,1.3,2.2,1.7
		c0.8,0.4,1.7,0.7,2.8,0.8l-0.1,0.6l-6-0.6c-2.2-0.2-4.2-0.6-6-1.2c-1.8-0.6-3.3-1.4-4.6-2.5c-1.3-1.1-2.4-2.5-3.3-4.2
		c-0.3-0.5-0.6-1.2-0.9-2c-0.3-0.8-0.6-1.6-1-2.6c-0.3-0.9-0.7-1.8-1-2.6c-0.3-0.8-0.6-1.6-0.8-2.3c-0.2-0.7-0.4-1.2-0.5-1.6
		c-0.4-1.4-0.9-2.4-1.6-3.1c-0.7-0.7-1.4-1.2-2.2-1.4l0.1-0.6c0.1,0,0.4,0,0.7,0.1c0.4,0,0.8,0.1,1.2,0.1c1.1,0.1,2.2,0,3.3-0.4
		c1.1-0.4,2.1-1,3-2c0.9-0.9,1.6-2.3,2.1-4.1c0.1-0.4,0.2-0.8,0.3-1.3c0.1-0.5,0.2-1,0.2-1.7c0.2-3-0.4-5.2-1.6-6.7
		c-1.2-1.5-2.8-2.4-4.9-2.6c-0.6-0.1-1.2-0.2-1.9-0.2c-0.7,0-1.3-0.1-1.9-0.1c-0.4,0-0.7-0.1-1-0.1l-3.4,36c-0.1,1.1,0.2,2,0.9,2.9
		c0.7,0.8,1.6,1.3,2.7,1.4c0.1,0,0.3,0,0.7,0.1l-0.1,0.6l-4.7-0.4l0,0l-9.1-0.9l0,0l-4.9-0.5l0.1-0.6c0,0,0.2,0,0.4,0
		c0.2,0,0.4,0,0.4,0c1.1,0.1,2-0.2,2.9-0.9c0.8-0.7,1.3-1.6,1.5-2.6l3.3-34.2c0.1-1.1-0.3-2-0.9-2.9c-0.7-0.8-1.6-1.3-2.6-1.4
		c0,0-0.2,0-0.4,0c-0.2,0-0.4,0-0.4,0l0.1-0.6l4.9,0.5v0l8.3,0.8c0,0,0,0,0,0l8,0.8C528.3,231.9,530.1,232.3,531.8,232.9z
		 M457.6,239.3c0.2-0.7,0.4-1.5,0.6-2.4c0.2-0.9,0.4-1.8,0.6-2.6c0.2-0.8,0.2-1.5,0.1-1.9l0.6-0.1l24.5,37.6
		c0.8,0.9,1.6,1.6,2.4,1.9c1.1,0.4,2.1,0.6,3,0.5l0.5-0.1l0.1,0.6l-19.5,2.9l-0.1-0.6l0.6-0.1c0.8-0.1,1.5-0.6,2-1.3
		c0.5-0.8,0.4-1.7-0.2-2.9l0,0l-4.1-7.1l-14.4,2.1l-2.1,8.1c-0.2,0.8-0.1,1.5,0.2,2c0.3,0.5,0.7,0.9,1.2,1.2c0.5,0.2,1,0.3,1.5,0.2
		l0.6-0.1l0.1,0.6l-13.1,2l-0.1-0.6l0.6-0.1c0.9-0.1,1.9-0.6,2.8-1.3c0.8-0.6,1.3-1.5,1.8-2.6l9.5-34.4
		C457.3,240.5,457.4,240,457.6,239.3z M390.3,253.4L390.3,253.4l8.3-3.3l0,0l4.6-1.8l0.2,0.6c0,0-0.3,0.1-0.8,0.3
		c-1,0.4-1.7,1.1-2.1,2.1c-0.4,1-0.5,2-0.1,3l13.3,33.7l7.6-3c1.9-0.8,3.5-1.8,4.6-3.1c1.2-1.3,2-2.9,2.5-4.7c0.5-1.8,0.7-3.8,0.5-6
		l0.6-0.2l2,12.9l-0.2,0.1l0,0l-16.8,6.6l0,0l-8.3,3.3l0,0l-4.6,1.8l-0.2-0.6l0.7-0.3c1-0.4,1.7-1.1,2.1-2.1c0.4-1,0.5-2,0.1-3
		l-12.6-31.9l0,0c-0.4-1-1.1-1.7-2.1-2.1c-1-0.4-2-0.4-3-0.1l-0.7,0.3l-0.2-0.6L390.3,253.4z M362.9,269.9l6.1,8.7l-0.5,0.3
		c-3.3-2.7-6.4-4.1-9.5-4.1c-3.1,0-6,1-8.8,2.9c-2.7,1.9-4.6,4.2-5.6,6.8c-1,2.7-1.2,5.6-0.6,8.7c0.6,3.1,2.1,6.4,4.4,9.7
		c2.3,3.4,4.9,5.9,7.6,7.7c2.7,1.7,5.4,2.7,8.2,2.7c2.8,0.1,5.5-0.7,8-2.4c2.6-1.8,4.5-3.8,5.7-5.9c1.2-2.1,1.7-4.5,1.4-7.2
		c-0.3-2.7-1.3-6-3.1-9.7l0.4-0.3l6.5,8.4c0.1,1.8-0.1,3.6-0.6,5.5c-0.5,1.9-1.5,3.8-3,5.7c-1.4,1.9-3.4,3.8-6,5.5
		c-4.2,2.8-8.3,4.6-12.4,5.3c-4.1,0.7-8,0.2-11.6-1.3c-3.6-1.6-6.8-4.3-9.5-8.2c-2.6-3.8-4.1-7.7-4.4-11.6
		c-0.3-3.9,0.6-7.7,2.7-11.4c2.1-3.7,5.2-7,9.6-10c2.7-1.9,5.3-3.3,7.9-4.3C358.7,270.7,360.9,270.1,362.9,269.9z M271.2,356.1
		l5.3-7.6l0,0l5.5-7.8l0,0c0.5-0.7,1-1.6,1.5-2.5c0.5-0.9,0.9-1.8,1.3-2.6c0.4-0.8,0.6-1.4,0.7-1.8l1.5,1l0,0l1.5,1l0,0l5.9,4.2
		l-0.4,0.5l-0.6-0.4c-1.6-1.1-3.1-1.5-4.7-1.2c-1.4,0.2-2.6,1-3.7,2.3l-6.2,8.9l14.8,10.3l4.7-6.7c0.8-1.3,1.1-2.6,0.9-4
		c-0.3-1.4-1-2.5-2.3-3.4l-0.4-0.2l0.4-0.5l4.8,3.3l0,0l2.1,1.5l0,0l4.8,3.3l-0.4,0.5l-0.4-0.3c-1.3-0.9-2.6-1.2-4-0.9
		c-1.4,0.2-2.5,1-3.4,2.2h0l-4.7,6.7l14.3,10l4.6-6.7l0,0c1.2-1.7,1.9-3.4,2.1-5.2c0.2-1.7,0.1-3.5-0.5-5.3
		c-0.6-1.8-1.6-3.5-2.9-5.3l0.4-0.5l8.8,9.6l-3.7,5.2l-6.7,9.6l0,0l-5.2,7.5l0,0l-2.8,4.1l-0.5-0.4l0.5-0.7c0.6-0.9,0.8-1.9,0.6-2.9
		c-0.2-1.1-0.7-1.9-1.6-2.6h0l-28.1-19.7l0,0c-0.9-0.6-1.9-0.8-3-0.6c-1.1,0.2-1.9,0.7-2.5,1.6l-0.5,0.7l-0.5-0.4L271.2,356.1
		L271.2,356.1z M240.3,423.1l3.3-8.7l0,0l1.7-4.5l0.6,0.2c0,0-0.1,0.3-0.3,0.8c-0.4,1-0.3,2,0.1,3c0.4,1,1.2,1.7,2.2,2.1l14.9,5.6
		l7.1-18.8l-14.9-5.6l0,0c-1-0.4-2-0.3-3,0.1c-1,0.5-1.7,1.2-2.1,2.2c-0.2,0.5-0.3,0.7-0.3,0.8l-0.6-0.2l1.7-4.5l0,0l3.2-8.5l0,0
		l1.8-4.6l0.6,0.2l-0.3,0.8c-0.4,1-0.3,2,0.1,3c0.4,1,1.2,1.7,2.2,2.1l0,0l32.1,12.1l0,0c1,0.3,2,0.3,3-0.2c1-0.4,1.7-1.2,2-2.2
		l0.3-0.8l0.6,0.2l-1.7,4.5l0,0l-3.2,8.5h0l-1.8,4.6l-0.6-0.2c0,0,0.1-0.3,0.3-0.8c0.4-1,0.4-2-0.1-3c-0.4-1-1.2-1.7-2.2-2.1v0
		l-14.7-5.6l-7.1,18.8l14.7,5.6c1,0.3,2,0.3,3-0.2c1-0.4,1.7-1.2,2-2.2c0.2-0.5,0.3-0.7,0.3-0.8l0.6,0.2l-1.7,4.5l0,0l-3.3,8.7l0,0
		l-1.7,4.5l-0.6-0.2l0.3-0.8c0.4-1,0.3-2-0.1-3c-0.4-1-1.2-1.7-2.2-2.1l0,0l-32.1-12.1l0,0c-1-0.3-2-0.3-3,0.2c-1,0.4-1.7,1.2-2,2.2
		l-0.3,0.8l-0.6-0.2L240.3,423.1L240.3,423.1z M228.6,488.6c0.3-0.8,0.5-1.7,0.7-2.8c0.2-1,0.4-2,0.5-2.8l0,0l2.7-24.4l0,0
		c0.1-0.9,0.1-1.9,0.1-2.9c0-1,0-2-0.1-2.9c-0.1-0.9-0.2-1.5-0.3-1.9l1.1,0.1l2.4,0.3l0,0l7.3,0.8l-0.1,0.6l-0.7-0.1
		c-1.9-0.2-3.5,0.2-4.8,1.2c-1.3,1-2,2.5-2.3,4.4h0l-0.9,8.2l36.1,4c1.1,0.1,2-0.2,2.9-0.9c0.8-0.7,1.3-1.5,1.4-2.6l0.1-0.8l0.6,0.1
		l-0.5,4.7h0l-1,9.1l0,0l-0.6,4.9l-0.6-0.1l0.1-0.8c0.1-1.1-0.2-2-0.8-2.9c-0.7-0.8-1.5-1.3-2.6-1.5v0l-36.1-4l-0.9,8.3l0,0
		c-0.2,1.9,0.2,3.5,1.2,4.7c1,1.3,2.5,2,4.4,2.2l0.7,0.1l0,0.6l-7.3-0.8v0l-1.7-0.2v0l-0.7-0.1l0,0l0,0l-1.1-0.1
		C228.1,490,228.3,489.4,228.6,488.6z M241,538.2c0-7.5,6.1-13.5,13.5-13.5s13.5,6.1,13.5,13.5c0,7.5-6.1,13.5-13.5,13.5
		S241,545.6,241,538.2z M256.2,617.4c1.2,2.6,2.7,4.6,4.4,6c1.7,1.4,3.8,2.2,6.3,2.4c2.5,0.2,5.5-0.2,9.1-1.3l0.2,0.4l-8.5,4.6
		c-1.6-0.2-3.2-0.6-4.8-1.4c-1.6-0.8-3.2-1.9-4.7-3.5c-1.5-1.6-2.9-3.6-4.1-6.2c-1.9-4.2-2.9-8.1-2.8-11.9c0-3.8,1-7.2,2.9-10.2
		c1.9-3,4.9-5.4,8.8-7.2c3.8-1.8,7.5-2.5,11-2.1c3.5,0.4,6.8,1.7,9.7,4.1c3,2.4,5.4,5.8,7.5,10.1c1.3,2.7,2.1,5.3,2.6,7.7
		c0.5,2.4,0.7,4.5,0.6,6.4l-8.7,4.1l-0.2-0.5c2.9-2.5,4.6-5.1,5.1-7.9c0.5-2.7,0-5.5-1.3-8.3c-1.3-2.7-3-4.7-5.3-6
		c-2.2-1.3-4.8-1.9-7.7-1.8c-2.9,0.1-6,0.9-9.4,2.5c-3.4,1.6-6,3.4-8,5.6c-2,2.1-3.2,4.5-3.7,7C254.8,612.4,255.1,614.9,256.2,617.4
		z M295.4,677.1c-3.4-1.6-6.4-4.1-9.2-7.6c-2.8-3.5-4.6-7.1-5.3-10.7c-0.8-3.6-0.5-7.1,0.8-10.4c1.3-3.3,3.6-6.3,6.9-8.9
		c3.3-2.6,6.7-4.2,10.2-4.6c3.5-0.5,6.9,0.1,10.3,1.6c3.4,1.6,6.4,4.1,9.2,7.6c2.8,3.5,4.6,7.1,5.3,10.7s0.5,7.1-0.7,10.4
		c-1.2,3.3-3.5,6.3-6.9,8.9c-3.3,2.6-6.7,4.1-10.2,4.6C302.2,679.2,298.7,678.6,295.4,677.1z M353,681.2c0,0-0.2-0.2-0.6-0.5
		c-0.7-0.6-1.6-0.9-2.6-0.8c-1,0.1-1.8,0.5-2.4,1.2l0,0l-21,25.2l5.7,4.7c1.4,1.2,2.9,2,4.5,2.3c1.6,0.3,3.2,0.3,4.8-0.1
		c1.7-0.4,3.3-1.1,5-2.2l0.4,0.4l-9.4,7.2l-0.1-0.1l0,0l-12.4-10.4l0,0l-6.5-5.4l0,0l-3.3-2.8l0.4-0.4l0.6,0.5
		c0.7,0.6,1.6,0.9,2.6,0.8c1-0.1,1.8-0.5,2.4-1.2l0,0l19.9-23.9c0.6-0.8,0.8-1.6,0.8-2.6c-0.1-1-0.5-1.8-1.3-2.4l-0.6-0.5l0.4-0.4
		l3.5,2.9l0,0l6.3,5.3h0l3.3,2.8L353,681.2z M388.5,705.3c0,0-0.2-0.1-0.6-0.4c-0.8-0.5-1.7-0.6-2.7-0.3c-0.9,0.3-1.7,0.8-2.2,1.6
		l0,0l-16.2,28.6l6.4,3.6l0,0c1.6,0.9,3.2,1.4,4.8,1.5c1.6,0.1,3.2-0.2,4.7-0.9c1.6-0.7,3.1-1.7,4.5-3l0.5,0.3l-7.9,8.7l-0.1-0.1
		l0,0l-14.1-8l0,0l-7.3-4.2l0,0l-3.8-2.1l0.3-0.5l0.6,0.4c0.8,0.5,1.7,0.6,2.7,0.3c0.9-0.3,1.7-0.8,2.2-1.6l0,0l15.4-27.1h0
		c0.4-0.9,0.5-1.8,0.3-2.7c-0.3-0.9-0.8-1.7-1.7-2.1l-0.6-0.4l0.3-0.5l3.9,2.2l0,0l7.2,4.1l0,0l3.8,2.1L388.5,705.3z M438.4,725.9
		l-0.8,2.3l0,0l-2.1,6.1L435,734l0.2-0.6c0.6-1.6,0.5-3.1-0.1-4.4c-0.6-1.2-1.5-2.1-2.9-2.7l-9.2-3.2l-5.4,15.4l7,2.4l0,0
		c1.3,0.4,2.6,0.3,3.7-0.2s2-1.5,2.4-2.8l0.1-0.4l0.5,0.2l-1.7,5l0,0l-0.8,2.2h0l-1.7,5l-0.5-0.2l0.1-0.4c0.5-1.3,0.4-2.5-0.1-3.7
		c-0.6-1.1-1.5-2-2.8-2.5l0,0l-7-2.4l-5.2,14.9l7,2.4l0,0c1.8,0.6,3.4,0.8,5,0.6c1.6-0.2,3.1-0.8,4.5-1.8s2.7-2.2,3.9-3.8l0.5,0.2
		l-6.2,10l-1.4-0.5l-14-4.9v0l-8-2.8l0,0l-4.1-1.4l0.2-0.5l0.7,0.2c0.9,0.3,1.8,0.3,2.7-0.2c0.9-0.4,1.5-1.1,1.9-2h0l10.2-29.4l0,0
		c0.3-0.9,0.2-1.8-0.2-2.7c-0.4-0.9-1.1-1.5-2-1.8l-0.7-0.2l0.2-0.5l4.1,1.4l0,0l7.8,2.7v0l8.3,2.9c0.8,0.3,1.6,0.5,2.5,0.7
		c0.9,0.2,1.8,0.4,2.5,0.5c0.8,0.1,1.4,0.2,1.7,0.1L438.4,725.9L438.4,725.9z M493.5,756.7l-0.8-0.1c-1.9-0.3-3,0.5-3.1,2.1
		l-1.2,9.2c-1,1-2.5,1.9-4.4,2.8c-1.9,0.9-4.1,1.5-6.7,1.9c-2.5,0.4-5.3,0.4-8.3,0c-4.2-0.6-7.8-1.9-10.8-3.9
		c-2.9-2.1-5.1-4.7-6.4-8c-1.4-3.3-1.8-7-1.2-11.2c0.5-4.2,1.9-7.6,4-10.4s4.9-4.8,8.3-6c3.4-1.2,7.3-1.6,11.7-1
		c2,0.3,4,0.7,5.9,1.2c1.9,0.5,3.6,1.1,5.2,1.8c1.6,0.7,2.9,1.4,3.9,2.1l-1.1,9.5l-0.5-0.1c-0.4-2.6-1.1-4.8-2.3-6.4
		c-1.1-1.7-2.6-3-4.2-3.8c-1.7-0.9-3.5-1.4-5.5-1.7c-3-0.4-5.7,0-8,1.2c-2.3,1.2-4.1,3.1-5.6,5.7c-1.4,2.6-2.4,5.8-2.9,9.5
		c-0.5,3.6-0.4,6.7,0.3,9.5c0.6,2.8,1.8,5,3.5,6.7c1.7,1.7,3.9,2.7,6.6,3.1c1.4,0.2,2.7,0.1,4.1-0.1c1.3-0.3,2.5-0.7,3.6-1.4
		c1.1-0.7,1.9-1.6,2.5-2.7l1.2-8.5c0.2-1.7-0.6-2.6-2.5-2.9l-0.9-0.1l0.1-0.6l15.7,2L493.5,756.7z M412.4,662.2
		c-2.9,3.3-7.1,5.4-11.8,5.4h-7.4c-8.7,0-15.7-7-15.7-15.7v-71.5h2.4l21.5-43c-5.5-8.7-9.9-18-13.1-28c-1.9-5.8-3.3-11.9-4.3-18
		c-1-6.5-1.6-13.1-1.6-19.8c0-0.1,0-0.1,0-0.2c0-22.8,6.3-44.2,17.1-62.6c9-15.2,21.1-28.3,35.6-38.5c16.8-11.8,36.7-19.6,58.3-21.7
		c4.2-0.4,8.4-0.6,12.6-0.6c12.5,0,24.6,1.9,35.9,5.3c16.7,5.1,31.8,13.5,44.7,24.6c0.7,0.6,1.4,1.2,2,1.8c7.8,0,15.5,0,23.3,0
		c7.5,0,15,0,22.4,0.1l2.8,0c1.3,0,2.5,0.1,3.4,0.2c8.1,0.9,13.6,6.4,14.2,14.1c0.1,1.5,0,3-0.4,4.4c0.3,1.3,0.4,2.7,0.4,4l0.1,31.7
		c0,1.4-0.2,2.9-0.5,4.3c0.2,0.8,0.4,1.6,0.5,2.5c0.4,4.5-0.9,8.7-3.8,11.9c-3,3.3-7.3,5.2-12.2,5.3l-3.8,0.1
		c-2.1,0-4.2,0.1-6.3,0.1c0.5,4.3,0.7,8.7,0.7,13.2c0,8.2-0.8,16.1-2.3,23.8c-4,20.7-13.3,39.6-26.2,55.2l13,28.5h3l0,11.3v61.5
		c0,8.7-7,15.7-15.7,15.7h-7.4c-4.7,0-9-2.1-11.8-5.4H412.4z M538.2,772.5l-11,0.8l0,0l-5.3,0.4l0,0l-8.2,0.6l0,0l-4.5,0.3l0-0.6
		l0.7-0.1c1-0.1,1.8-0.5,2.4-1.2c0.6-0.7,0.9-1.6,0.9-2.6l-2.3-31.1h0c-0.1-1-0.5-1.8-1.3-2.4c-0.7-0.6-1.6-0.9-2.6-0.9l-0.7,0.1
		l0-0.6l4.3-0.3v0l8.2-0.6v0l8.8-0.6c0.8-0.1,1.7-0.2,2.6-0.4c0.9-0.2,1.7-0.4,2.5-0.6c0.8-0.2,1.3-0.4,1.6-0.6l0.1,1.6h0l0.1,1.8h0
		l0.5,6.4l-0.6,0l0-0.7c-0.1-1.7-0.7-3.1-1.8-4c-1-0.9-2.2-1.3-3.7-1.3l-9.8,0.7l1.2,16.3l7.4-0.5l0,0c1.4-0.1,2.5-0.7,3.3-1.7
		c0.8-1,1.2-2.2,1.1-3.5l0-0.4l0.6,0l0.4,5.3h0l0.2,2.4h0l0.4,5.3l-0.6,0l0-0.4c-0.1-1.4-0.6-2.5-1.6-3.3c-1-0.8-2.1-1.2-3.5-1.2
		l0,0l-7.4,0.5l1.2,15.8l7.3-0.5c1.9-0.1,3.5-0.6,4.8-1.5c1.4-0.8,2.5-2,3.4-3.4c0.9-1.4,1.6-3.1,2.1-5l0.6,0L538.2,772.5z
		 M582.3,760.9c-2.1,2.6-5.3,4.5-9.6,5.5c-1.6,0.4-3.2,0.6-4.8,0.7c-1.6,0.1-3,0-4.3-0.2s-2.4-0.6-3.2-1.1c-0.5-0.7-0.9-1.7-1.1-2.8
		c-0.2-1.1-0.4-2.3-0.3-3.6c0-1.2,0.2-2.3,0.5-3.2l0.5-0.1c0.3,1.9,1.1,3.5,2.3,4.9c1.2,1.4,2.7,2.3,4.5,2.9c1.8,0.5,3.8,0.5,6-0.1
		c2.4-0.6,4.1-1.7,5.1-3.2c1-1.5,1.3-3.1,0.9-4.8c-0.3-1.1-0.9-2.1-1.8-2.8c-0.9-0.7-2.2-1.3-4-1.8l-11.1-4
		c-2.2-0.6-3.9-1.7-5.2-3.2c-1.3-1.5-2.1-3.3-2.4-5.3c-0.3-1.9-0.1-3.7,0.5-5.4c0.6-1.7,1.6-3.1,3.1-4.3c1.5-1.2,3.3-2.1,5.6-2.7
		c0.7-0.2,1.6-0.4,2.7-0.6c1.1-0.2,2.2-0.4,3.4-0.5c0.4-0.1,0.8-0.1,1.2-0.1l3.7-0.9l0.1,0.7c0,0,0,0,0,0l1.2,7.5l-0.5,0.1
		c-0.5-1.9-1.5-3.2-3.2-4c-1.7-0.8-3.7-0.9-6-0.3c-2.1,0.5-3.7,1.5-4.7,2.8c-1,1.3-1.4,2.7-1.1,4.2c0.2,1.1,0.8,2,1.7,2.6
		c0.9,0.6,2,1.1,3.3,1.5l12.1,4.2c1.9,0.5,3.5,1.5,4.7,2.8c1.2,1.3,2,3,2.4,5.1C585,755.2,584.3,758.3,582.3,760.9z M647.9,735.6
		l-33.1-22.6l0,0c-1.2-0.8-2.3-1.2-3.4-1.2c-1.1,0-2,0.2-2.7,0.7l-0.4,0.2l-0.3-0.5l15.3-9.2l0.3,0.5l-0.4,0.3c-0.6,0.4-1,1-1.1,1.8
		c-0.1,0.8,0.2,1.6,1.2,2.3l0,0l20.1,15l-3.4-25l0,0c-0.2-1.2-0.7-1.9-1.5-2.2c-0.8-0.2-1.6-0.1-2.2,0.2l-0.4,0.3l-0.3-0.5l10.3-6.2
		l0.3,0.5l-0.4,0.3c-0.7,0.4-1.3,1.1-1.8,2c-0.5,0.9-0.7,2.1-0.6,3.5l0,0l3.6,31.6c0.1,0.2,0.1,0.7,0.2,1.4c0.1,0.7,0.2,1.4,0.3,2.3
		c0.1,0.8,0.3,1.6,0.4,2.4c0.2,0.8,0.3,1.3,0.5,1.7L647.9,735.6z M702.4,689.2c-1.3,3.5-3.5,6.8-6.8,9.9c-3.3,3.1-6.7,5.2-10.2,6.2
		c-3.6,1.1-7,1.1-10.4,0.1c-3.4-1-6.5-3-9.4-6.1c-2.9-3-4.7-6.3-5.5-9.8c-0.8-3.5-0.6-6.9,0.7-10.4c1.3-3.5,3.5-6.8,6.8-9.9
		c3.3-3.1,6.7-5.2,10.2-6.2c3.6-1.1,7-1.1,10.4-0.2c3.4,1,6.6,3,9.5,6.1c2.9,3,4.7,6.3,5.5,9.8C703.9,682.2,703.7,685.7,702.4,689.2
		z M735.4,650.7l-4.7,6.8h0l-2.6,3.7l-0.5-0.3l0.4-0.6c0.6-0.8,0.7-1.7,0.6-2.7c-0.2-1-0.7-1.7-1.4-2.3l0,0l-27.1-18.7l-4.3,6.2
		c-0.9,1.4-1.3,2.9-1,4.3c0.3,1.4,1.1,2.6,2.6,3.6l0.5,0.4l-0.3,0.5l-5.5-3.8l0,0l-1.8-1.2l0,0l-0.8-0.6c0.3-0.2,0.8-0.6,1.3-1.2
		c0.6-0.5,1.2-1.2,1.8-1.9c0.6-0.7,1.2-1.4,1.6-2l12.6-18.3l0,0c0.5-0.7,0.9-1.4,1.3-2.2c0.4-0.8,0.8-1.6,1.1-2.3
		c0.3-0.7,0.5-1.3,0.6-1.6l1.3,0.9l0,0l1.3,0.9l0,0l5.5,3.8l-0.4,0.4l-0.5-0.4c-1.5-1-2.9-1.4-4.3-1.1c-1.4,0.3-2.7,1.1-3.7,2.5
		l-4.3,6.2l27.1,18.7c0.8,0.5,1.7,0.7,2.7,0.5c1-0.2,1.7-0.7,2.3-1.5l0.4-0.6l0.5,0.3L735.4,650.7L735.4,650.7z M759.5,606.2
		L759.5,606.2l-2.2,4.9l0,0l-3.4,7.7l0,0l-1.8,4l-0.5-0.2l0.3-0.7c0.4-0.9,0.4-1.8,0.1-2.7c-0.4-0.9-1-1.6-1.8-2l-28.5-12.6l0,0
		c-0.9-0.4-1.8-0.4-2.7,0c-0.9,0.4-1.6,1-2,1.9l-0.3,0.7l-0.5-0.2l1.8-4l0,0l3.4-7.7l0,0l3.5-7.9c0.3-0.8,0.6-1.6,0.9-2.4
		c0.3-0.9,0.5-1.7,0.7-2.5c0.2-0.8,0.3-1.4,0.3-1.7l0.9,0.4l0,0l2.2,1l0,0l5.9,2.6l-0.2,0.5l-0.6-0.3c-1.6-0.7-3.1-0.8-4.4-0.3
		c-1.2,0.5-2.2,1.4-2.9,2.7l-4,8.9l15,6.6l3-6.8c0.5-1.3,0.6-2.5,0.1-3.7c-0.5-1.2-1.3-2.1-2.6-2.6l-0.4-0.2l0.2-0.5l4.9,2.2l0,0
		l2,0.9l0,0l4.9,2.2l-0.2,0.5l-0.4-0.2c-1.3-0.6-2.5-0.6-3.7-0.2c-1.2,0.5-2.1,1.3-2.7,2.6l-3,6.8l14.4,6.4l3-6.7l0,0
		c0.8-1.7,1.1-3.4,1-5c-0.1-1.6-0.6-3.1-1.4-4.6c-0.8-1.5-2-2.9-3.5-4.2l0.2-0.5l9.5,7L759.5,606.2z M751.9,535.7
		c-7.5,0-13.5-6.1-13.5-13.5s6.1-13.5,13.5-13.5s13.5,6.1,13.5,13.5S759.3,535.7,751.9,535.7z M767.3,474.1L767.3,474.1l-7,1.2
		l0-0.6l0.7-0.1c1.9-0.3,3.3-1.2,4.3-2.5c0.9-1.3,1.2-2.9,0.9-4.8l-1.4-8.1l-35.8,6.3c-1.1,0.2-1.9,0.8-2.5,1.7
		c-0.6,0.9-0.8,1.9-0.7,2.9l0.1,0.8l-0.6,0.1l-0.9-4.9h0l-1.5-8.8h0l-0.9-4.9l0.6-0.1l0.1,0.8c0.2,1.1,0.7,1.9,1.6,2.5
		c0.9,0.6,1.9,0.9,2.9,0.7l35.8-6.3l-1.4-8.2h0c-0.4-1.9-1.2-3.3-2.5-4.2c-1.3-0.9-2.9-1.2-4.8-0.9l-0.7,0.1l-0.2-0.6l7.2-1.3v0
		l2.4-0.4l0,0l1.1-0.2c-0.1,0.4-0.1,1.1-0.2,1.9c0,0.9,0,1.8,0.1,2.9c0.1,1,0.2,2,0.3,2.8l4.2,24.2l0,0c0.2,0.9,0.4,1.8,0.7,2.8
		c0.3,1,0.6,1.9,0.9,2.7c0.3,0.8,0.6,1.4,0.8,1.7l-1.8,0.3l0,0L767.3,474.1z"/>
	<polygon class="st5" points="269.4,479.8 269.4,479.6 273.9,480.1 274.9,471.1 274.9,471.1 274.9,471.3 270.4,470.8 270.4,470.6 
		270.4,470.6 234.3,466.5 233.3,475.8 	"/>
	
		<rect x="228.4" y="487.3" transform="matrix(0.111 -0.9938 0.9938 0.111 -278.2755 663.7672)" class="st5" width="6.9" height="0.2"/>
	<polygon class="st5" points="270.4,470.8 274.9,471.3 274.9,471.1 270.4,470.6 270.4,470.6 	"/>
	<path class="st5" d="M231.4,490.8L231.4,490.8l7.3,0.8l0-0.6l-0.7-0.1c-1.9-0.2-3.4-1-4.4-2.2c-1-1.3-1.4-2.8-1.2-4.7l0,0l-0.8,6.8
		L231.4,490.8z"/>
	<path class="st5" d="M275.4,466.3l-0.6-0.1l-0.1,0.8c-0.1,1.1-0.6,1.9-1.4,2.6c-0.8,0.7-1.8,1-2.9,0.9l4.5,0.5L275.4,466.3z"/>
	<path class="st5" d="M269.4,479.8L269.4,479.8c1.1,0.2,1.9,0.7,2.6,1.5c0.7,0.8,1,1.8,0.8,2.9l-0.1,0.8l0.6,0.1l0.6-4.9l0,0l0,0.2
		L269.4,479.8z"/>
	
		<rect x="271.5" y="477.7" transform="matrix(0.1114 -0.9938 0.9938 0.1114 -235.6171 696.4334)" class="st5" width="0.2" height="4.5"/>
	<polygon class="st5" points="229,490.6 229.7,490.6 229.8,483.1 229,490.6 	"/>
	<polygon class="st5" points="229,490.6 229,490.6 229,490.6 	"/>
	<polygon class="st5" points="229.7,490.6 229.7,490.6 229,490.6 	"/>
	
		<rect x="228" y="469.8" transform="matrix(0.1114 -0.9938 0.9938 0.1114 -261.371 649.7244)" class="st5" width="9.3" height="2.4"/>
	<polygon class="st5" points="231.4,490.8 232.2,484 232.3,484 233.3,475.8 230.9,475.5 232,466.3 234.3,466.5 235.2,458.3 
		235,458.3 235.8,451.4 233.4,451.1 234.1,451.2 232.6,458.6 229.8,483.1 229.7,490.6 	"/>
	<path class="st5" d="M229.8,483.1L229.8,483.1c-0.1,0.9-0.3,1.8-0.5,2.8c-0.2,1-0.5,1.9-0.7,2.8c-0.3,0.8-0.5,1.4-0.7,1.8l1.1,0.1
		L229.8,483.1z"/>
	<path class="st5" d="M235.2,458.3L235.2,458.3c0.3-1.9,1-3.4,2.3-4.4c1.3-1,2.8-1.4,4.8-1.2l0.7,0.1l0.1-0.6l-7.3-0.8l0,0l0.2,0
		L235.2,458.3z"/>
	
		<rect x="232.1" y="454.8" transform="matrix(0.1114 -0.9938 0.9938 0.1114 -242.7615 638.247)" class="st5" width="6.9" height="0.2"/>
	<polygon class="st5" points="233.4,451.1 233.4,451.1 232.6,458.6 234.1,451.2 	"/>
	<path class="st5" d="M233.4,451.1l-1.1-0.1c0.1,0.4,0.2,1,0.3,1.9c0.1,0.9,0.1,1.8,0.1,2.9c0,1,0,2-0.1,2.9l0,0L233.4,451.1
		L233.4,451.1z"/>
	<path class="st5" d="M258.2,388.5L258.2,388.5c-1-0.4-1.7-1.1-2.2-2.1c-0.4-1-0.5-2-0.1-3l0.3-0.8l-0.6-0.2l-1.8,4.6l0,0l0.1-0.2
		L258.2,388.5z"/>
	
		<rect x="292.3" y="399.3" transform="matrix(0.3535 -0.9354 0.9354 0.3535 -186.6147 533.1284)" class="st5" width="0.2" height="4.5"/>
	
		<rect x="255.9" y="385.6" transform="matrix(0.3535 -0.9354 0.9354 0.3535 -197.2717 490.2171)" class="st5" width="0.2" height="4.5"/>
	
		<rect x="252.7" y="394.1" transform="matrix(0.3535 -0.9354 0.9354 0.3535 -207.3204 492.7396)" class="st5" width="0.2" height="4.5"/>
	
		<rect x="289.1" y="407.8" transform="matrix(0.3535 -0.9354 0.9354 0.3535 -196.6785 535.5897)" class="st5" width="0.2" height="4.5"/>
	<path class="st5" d="M245.6,413.9c-0.4-1-0.5-2-0.1-3c0.2-0.5,0.3-0.7,0.3-0.8l-0.6-0.2l-1.7,4.5l4.2,1.6
		C246.8,415.6,246.1,414.9,245.6,413.9z"/>
	<path class="st5" d="M239.2,427.8l0.3-0.8c0.4-1,1.1-1.7,2-2.2c1-0.4,2-0.5,3-0.2l0,0l-4.2-1.6l-1.7,4.5L239.2,427.8z"/>
	<polygon class="st5" points="272.5,403.3 272.3,403.8 287,409.4 287.1,409.2 291.3,410.8 294.5,402.3 294.5,402.3 294.5,402.5 
		290.2,400.9 290.3,400.7 258.2,388.5 258.1,388.7 253.9,387.1 250.7,395.6 250.7,395.6 250.7,395.5 254.9,397.1 254.9,397.2 
		269.8,402.9 270,402.3 	"/>
	<path class="st5" d="M249,400.1l0.6,0.2c0,0,0.1-0.3,0.3-0.8c0.4-1,1.1-1.7,2.1-2.2c1-0.5,2-0.5,3-0.1l0,0l-4.2-1.6L249,400.1z"/>
	<path class="st5" d="M296.2,397.8l-0.6-0.2l-0.3,0.8c-0.4,1-1.1,1.7-2,2.2c-1,0.4-2,0.5-3,0.2l0,0l4.2,1.6L296.2,397.8z"/>
	<path class="st5" d="M287,409.4L287,409.4c1,0.4,1.7,1.1,2.2,2.1c0.4,1,0.5,2,0.1,3c-0.2,0.5-0.3,0.7-0.3,0.8l0.6,0.2l1.8-4.6h0
		l-0.1,0.2L287,409.4z"/>
	<polygon class="st5" points="244.6,424.5 244.5,424.7 276.6,436.9 276.7,436.7 280.9,438.3 280.8,438.5 280.8,438.5 284.1,429.8 
		284.1,429.8 284.1,429.9 279.8,428.3 279.9,428.2 279.9,428.2 265.2,422.6 265,423.2 262.5,422.2 262.7,421.7 247.8,416 247.8,416 
		247.7,416.2 243.5,414.6 243.6,414.4 243.6,414.4 240.3,423.1 240.3,423.1 240.3,422.9 	"/>
	<polygon class="st5" points="247.7,416.2 247.8,416 247.8,416 243.6,414.4 243.5,414.6 	"/>
	
		<rect x="242.3" y="421.6" transform="matrix(0.3534 -0.9355 0.9355 0.3534 -239.7351 500.8316)" class="st5" width="0.2" height="4.5"/>
	
		<rect x="270.9" y="401.7" transform="matrix(0.3535 -0.9354 0.9354 0.3535 -201.7645 514.2327)" class="st5" width="0.6" height="2.7"/>
	
		<rect x="263.5" y="421.1" transform="matrix(0.3536 -0.9354 0.9354 0.3536 -224.5852 519.8485)" class="st5" width="0.6" height="2.7"/>
	<polygon class="st5" points="279.8,428.3 284.1,429.9 284.1,429.8 279.9,428.2 279.9,428.2 	"/>
	<path class="st5" d="M285.8,425.3l-0.6-0.2c0,0-0.1,0.3-0.3,0.8c-0.4,1-1.1,1.7-2,2.2c-1,0.4-2,0.5-3,0.2l4.2,1.6L285.8,425.3z"/>
	
		<rect x="257.4" y="411.4" transform="matrix(0.3535 -0.9354 0.9354 0.3535 -213.1622 517.017)" class="st5" width="20.1" height="2.7"/>
	
		<rect x="278.7" y="435.3" transform="matrix(0.3554 -0.9347 0.9347 0.3554 -229.3047 542.6454)" class="st5" width="0.2" height="4.5"/>
	<path class="st5" d="M276.6,436.9c1,0.4,1.7,1.1,2.2,2.1c0.4,1,0.5,2,0.1,3l-0.3,0.8l0.6,0.2l1.7-4.5L276.6,436.9L276.6,436.9z"/>
	
		<rect x="299" y="352.6" transform="matrix(0.5784 -0.8158 0.8158 0.5784 -160.3688 395.043)" class="st5" width="5.9" height="0.1"/>
	<path class="st5" d="M300.3,355.1c0.9-1.2,2.1-2,3.4-2.2c1.4-0.2,2.7,0.1,4,0.9l0.4,0.3l0.4-0.5l-4.8-3.3L300.3,355.1L300.3,355.1z
		"/>
	<polygon class="st5" points="298.3,353.7 301.7,348.9 301.6,348.8 298.2,353.6 298.2,353.6 	"/>
	<polygon class="st5" points="318.8,363.8 322.3,358.7 319.3,358.4 314.6,365.1 315.5,368.5 	"/>
	<path class="st5" d="M284.9,341.1c-0.1,0.2-0.3,0.3-0.4,0.5l-0.1-0.1l4-5.7l-1.5-1l-4.9,5.8l-5.5,7.8l2.2,1.5L284.9,341.1z"/>
	<path class="st5" d="M296.8,345.5l-0.4,0.5l0.4,0.2c1.3,0.9,2,2,2.3,3.4c0.3,1.4,0,2.7-0.9,4l3.4-4.8L296.8,345.5z"/>
	<path class="st5" d="M284.5,341.6c0.1-0.2,0.3-0.3,0.4-0.5l3.6-5.2l-0.2-0.1l-4,5.7L284.5,341.6z"/>
	<path class="st5" d="M284.9,341.1c1.1-1.3,2.3-2,3.7-2.3c1.6-0.3,3.2,0.1,4.7,1.2l0.6,0.4l0.4-0.5l-5.9-4.2l0,0l0.2,0.1
		L284.9,341.1z"/>
	<polygon class="st5" points="286.3,334.4 282,340.6 286.9,334.8 	"/>
	<path class="st5" d="M322.3,358.7l-3.5,5.1l3.7-5.2l-8.8-9.6l-0.4,0.5c1.3,1.7,2.3,3.5,2.9,5.3c0.6,1.8,0.8,3.5,0.5,5.3
		c-0.2,1.7-1,3.5-2.1,5.2l0,0l4.7-6.8L322.3,358.7z"/>
	
		<rect x="273" y="355" transform="matrix(0.5729 -0.8196 0.8196 0.5729 -176.2024 376.4744)" class="st5" width="0.2" height="4.5"/>
	<polygon class="st5" points="275,358.5 274.9,358.7 303.1,378.3 303.2,378.2 306.9,380.8 312.1,373.3 312.1,373.3 312,373.5 
		309.8,371.9 309.9,371.8 295.7,361.8 295.5,362 293.4,360.5 293.5,360.3 278.7,350 278.6,350.1 276.4,348.6 276.6,348.5 
		276.5,348.5 271.2,356.1 271.2,356.1 271.3,355.9 	"/>
	<path class="st5" d="M286.9,334.8L286.9,334.8l-1.5-1c-0.1,0.4-0.3,1-0.7,1.8c-0.4,0.8-0.8,1.7-1.3,2.6c-0.5,0.9-1,1.7-1.5,2.5l0,0
		l4.3-6.2L286.9,334.8z"/>
	<path class="st5" d="M269,360.4l0.5-0.7c0.6-0.9,1.5-1.4,2.5-1.6c1.1-0.2,2,0,3,0.6l0,0l-3.7-2.6l-2.7,3.9L269,360.4z"/>
	
		<rect x="277.5" y="348" transform="matrix(0.5726 -0.8199 0.8199 0.5726 -167.7303 376.8859)" class="st5" width="0.2" height="2.7"/>
	
		<rect x="304.9" y="377.3" transform="matrix(0.5728 -0.8197 0.8197 0.5728 -180.836 412.1639)" class="st5" width="0.2" height="4.5"/>
	<polygon class="st5" points="318.8,363.8 315.5,368.5 314.6,365.1 309.9,371.8 312.1,373.3 	"/>
	<path class="st5" d="M303.1,378.3L303.1,378.3c0.9,0.7,1.4,1.5,1.6,2.6c0.2,1.1,0,2-0.6,2.9l-0.5,0.7l0.5,0.4l2.8-4.1l0,0l-0.1,0.2
		L303.1,378.3z"/>
	
		<rect x="310.9" y="371.3" transform="matrix(0.573 -0.8196 0.8196 0.573 -172.6066 413.9765)" class="st5" width="0.2" height="2.7"/>
	
		<rect x="294.4" y="359.8" transform="matrix(0.5726 -0.8198 0.8198 0.5726 -170.1981 395.797)" class="st5" width="0.2" height="2.6"/>
	<polygon class="st5" points="300.3,355.1 300.2,355 303.6,350.2 303.7,350.3 303.7,350.3 301.6,348.8 301.6,348.8 301.7,348.9 
		298.3,353.7 298.2,353.6 298.2,353.6 293.5,360.3 295.7,361.8 	"/>
	<path class="st5" d="M338.7,285.9c-2.1,3.7-3,7.4-2.7,11.4c0.3,3.9,1.7,7.8,4.4,11.6c2.7,3.9,5.9,6.6,9.5,8.2
		c3.6,1.6,7.5,2,11.6,1.3c4.1-0.7,8.3-2.4,12.4-5.3c2.5-1.8,4.5-3.6,6-5.5c1.4-1.9,2.4-3.8,3-5.7c0.5-1.9,0.8-3.7,0.6-5.5l-6.5-8.4
		l-0.4,0.3c1.8,3.7,2.8,6.9,3.1,9.7c0.3,2.7-0.2,5.2-1.4,7.2c-1.2,2.1-3.1,4.1-5.7,5.9c-2.6,1.7-5.2,2.5-8,2.4
		c-2.8-0.1-5.5-1-8.2-2.7c-2.7-1.7-5.2-4.3-7.6-7.7c-2.3-3.4-3.8-6.6-4.4-9.7c-0.6-3.1-0.4-6,0.6-8.7c1-2.7,2.9-4.9,5.6-6.8
		c2.8-1.9,5.7-2.9,8.8-2.9c3.1,0,6.2,1.4,9.5,4.1l0.5-0.3l-6.1-8.7c-2,0.2-4.3,0.8-6.8,1.8c-2.5,1-5.2,2.4-7.9,4.3
		C344,279,340.8,282.3,338.7,285.9z"/>
	<polygon class="st5" points="391.8,257.7 404.4,289.6 404.4,289.6 404.5,289.6 406.2,293.8 414.5,290.5 413.5,288 413.7,288 
		400.4,254.3 400.4,254.3 400.3,254.3 398.6,250.1 390.3,253.4 392,257.6 	"/>
	<path class="st5" d="M420.2,288.3l11.1-4.4l-2.4-1.9l-7.7,3c0,0,0,0,0,0L420.2,288.3z"/>
	<polygon class="st5" points="404.4,289.6 404.4,289.6 406,293.8 406.2,293.8 404.5,289.6 	"/>
	
		<rect x="391" y="253.3" transform="matrix(0.9305 -0.3663 0.3663 0.9305 -66.427 161.0004)" class="st5" width="0.2" height="4.5"/>
	<path class="st5" d="M431.3,283.9l0.2-0.1l-2-12.9l-0.6,0.2c0.1,2.2,0,4.2-0.5,6c-0.5,1.8-1.3,3.4-2.5,4.7
		c-1.2,1.3-2.7,2.4-4.6,3.1l7.7-3L431.3,283.9z"/>
	<path class="st5" d="M386.7,255.5c1-0.4,2-0.4,3,0.1c1,0.4,1.7,1.1,2.1,2.1l0,0l-1.7-4.2l0.2-0.1l0,0l-4.6,1.8l0.2,0.6L386.7,255.5
		z"/>
	
		<rect x="414" y="287.9" transform="matrix(0.9303 -0.3668 0.3668 0.9303 -77.2294 172.0771)" class="st5" width="0.2" height="2.7"/>
	<polygon class="st5" points="400.4,254.3 400.4,254.3 398.8,250.1 398.6,250.1 400.3,254.3 	"/>
	<path class="st5" d="M404.4,289.6c0.4,1,0.3,2-0.1,3c-0.4,1-1.1,1.7-2.1,2.1l-0.7,0.3l0.2,0.6l4.6-1.8l0,0l-0.2,0.1L404.4,289.6z"
		/>
	<path class="st5" d="M414.5,290.5L414.5,290.5l16.8-6.6l0,0l-11.1,4.4l1.1-3.3c0,0,0,0,0,0l-7.6,3l1,2.5L414.5,290.5z"/>
	<path class="st5" d="M400.4,254.3c-0.4-1-0.3-2,0.1-3c0.4-1,1.1-1.7,2.1-2.1c0.5-0.2,0.7-0.3,0.8-0.3l-0.2-0.6l-4.6,1.8l0,0
		l0.2-0.1L400.4,254.3z"/>
	<polygon class="st5" points="452.4,263.5 452.8,266 454.3,265.8 455,263.1 	"/>
	<path class="st5" d="M447.8,275.2c0.1-0.2,0.2-0.5,0.3-0.7l4.3-0.6c0,0,0,0.1,0,0.1l2.1-8.1l-1.6,0.2l-0.4-2.6l2.6-0.4l4-16
		l-1.5-2.5l2-12.4l-0.6,0.1c0.1,0.5,0,1.1-0.1,1.9c-0.2,0.8-0.4,1.7-0.6,2.6c-0.2,0.9-0.4,1.7-0.6,2.4c-0.2,0.7-0.4,1.2-0.4,1.5
		L447.8,275.2z"/>
	<path class="st5" d="M446.7,279l1.1-3.9c-0.4,1.1-1,2-1.8,2.6c-0.9,0.7-1.8,1.2-2.8,1.3l-0.6,0.1l0.1,0.6l13.1-2l-0.1-0.6l-0.6,0.1
		c-0.5,0.1-1,0-1.5-0.2c-0.5-0.2-1-0.6-1.2-1.2c-0.3-0.5-0.3-1.2-0.2-2l-1.1,4.4L446.7,279z"/>
	<polygon class="st5" points="457.6,244.6 459,247.1 460.9,239.6 459.6,232.2 	"/>
	<path class="st5" d="M448,274.4c-0.1,0.3-0.2,0.5-0.3,0.7l-1.1,3.9l4.5-0.7l1.1-4.4c0,0,0-0.1,0-0.1L448,274.4z"/>
	<polygon class="st5" points="470.4,260.8 467.3,261.2 468.7,263.6 470.8,263.3 	"/>
	<path class="st5" d="M475.1,274.6l-2.3-3.9l0,0c0.7,1.2,0.8,2.1,0.2,2.9c-0.5,0.8-1.2,1.2-2,1.3l-0.6,0.1l0.1,0.6l19.5-2.9
		l-0.1-0.6l-0.5,0.1c-0.9,0.1-1.9,0-3-0.5c-0.9-0.4-1.7-1-2.4-1.9l2,3.1L475.1,274.6z"/>
	<path class="st5" d="M459,247.1l8.3,14.2l3.1-0.5l0.4,2.6l-2.1,0.3l4.1,7.1l10.7-1.6c0.2,0.2,0.4,0.5,0.5,0.7l-24.5-37.6l1.4,7.4
		L459,247.1z"/>
	<polygon class="st5" points="455,263.1 454.3,265.8 468.7,263.6 467.3,261.2 	"/>
	<path class="st5" d="M472.9,270.7l2.3,3.9l11-1.6l-2-3.1c-0.2-0.2-0.4-0.4-0.5-0.7L472.9,270.7z"/>
	<polygon class="st5" points="509.8,234.7 510.2,230.2 510,230.2 509.6,234.7 509.6,234.7 	"/>
	<polygon class="st5" points="506.3,268.9 506.3,268.9 505.9,273.4 506.1,273.4 506.5,268.9 	"/>
	<path class="st5" d="M510.2,230.2L510.2,230.2l-4.9-0.5l-0.1,0.6c0,0,0.2,0,0.4,0c0.2,0,0.4,0,0.4,0c1.1,0.1,1.9,0.6,2.6,1.4
		c0.7,0.8,1,1.8,0.9,2.9l0.4-4.5L510.2,230.2z"/>
	<path class="st5" d="M519.8,274.7l0.1-0.6c-0.4,0-0.7-0.1-0.7-0.1c-1.1-0.1-2-0.6-2.7-1.4c-0.7-0.8-1-1.8-0.9-2.9l-0.4,4.5
		L519.8,274.7z"/>
	<polygon class="st5" points="515.4,269.7 515,274.2 515.2,274.2 515.6,269.7 515.6,269.7 	"/>
	<path class="st5" d="M518.5,231C518.5,231,518.5,231,518.5,231l0.8,0.1l-0.3,2.7c0.2,0,0.5,0,1,0.1c0.6,0.1,1.2,0.1,1.9,0.1
		c0.7,0,1.3,0.1,1.9,0.2c2,0.2,3.6,1.1,4.9,2.6c1.2,1.5,1.8,3.7,1.6,6.7c0,0.6-0.1,1.2-0.2,1.7c-0.1,0.5-0.2,0.9-0.3,1.3
		c-0.5,1.8-1.2,3.1-2.1,4.1c-0.9,0.9-1.9,1.6-3,2c-1.1,0.4-2.2,0.5-3.3,0.4c-0.4,0-0.8-0.1-1.2-0.1c-0.4,0-0.6-0.1-0.7-0.1l-0.1,0.6
		c0.8,0.2,1.5,0.7,2.2,1.4c0.7,0.7,1.2,1.8,1.6,3.1c0.1,0.4,0.2,0.9,0.5,1.6c0.2,0.7,0.5,1.4,0.8,2.3c0.3,0.8,0.6,1.7,1,2.6
		c0.3,0.9,0.7,1.8,1,2.6c0.3,0.8,0.6,1.5,0.9,2c0.9,1.7,2,3.1,3.3,4.2c1.3,1.1,2.8,1.9,4.6,2.5c1.8,0.6,3.8,1,6,1.2l6,0.6l0.1-0.6
		c-1.1-0.1-2-0.4-2.8-0.8c-0.8-0.4-1.5-1-2.2-1.7c-0.7-0.8-1.4-1.7-2.2-2.9c-0.5-0.8-1.1-1.7-1.7-2.8c-0.6-1.1-1.2-2.1-1.7-3.1
		c-0.5-1-1-1.9-1.4-2.6c-0.4-0.7-0.6-1.1-0.6-1.2c-0.6-1.1-1.4-2.3-2.4-3.5c-1-1.2-2.1-2-3.4-2.6c2.4,0,4.3-0.6,5.9-1.6
		c1.6-1.1,2.8-2.4,3.7-4.1c0.9-1.6,1.4-3.3,1.6-5c0.2-2.2,0-4-0.7-5.6c-0.7-1.6-1.7-2.9-3-3.9c-1.3-1-2.8-1.8-4.5-2.4
		c-1.7-0.6-3.5-1-5.4-1.1L518.5,231z"/>
	<path class="st5" d="M518.5,231c0.1,0.9,0.2,1.6,0.3,2c0.1,0.4,0.1,0.7,0.1,0.7c0,0,0.1,0,0.2,0l0.3-2.7L518.5,231z"/>
	<path class="st5" d="M518.8,233c-0.1-0.4-0.2-1.1-0.3-2l-8.3-0.8l-0.4,4.5l-0.2,0c0,0,0,0,0,0l-3.3,34.2c0,0,0,0,0,0l0.2,0
		l-0.4,4.5l9.1,0.9l0,0l-0.2,0l0.4-4.5l0.2,0c0,0,0,0,0,0l3.4-36c-0.1,0-0.1,0-0.2,0C518.9,233.7,518.8,233.5,518.8,233z"/>
	<path class="st5" d="M506.3,268.9c-0.1,1.1-0.6,1.9-1.5,2.6c-0.8,0.7-1.8,1-2.9,0.9c0,0-0.2,0-0.4,0c-0.2,0-0.4,0-0.4,0l-0.1,0.6
		l4.9,0.5l0,0l-0.2,0L506.3,268.9z"/>
	<path class="st5" d="M586.3,290.3l-11.3-3.8h0l11.5,3.8l6.7-11.1l-0.6-0.2c-1.3,1.8-2.7,3.2-4.2,4.2c-1.5,1.1-3.2,1.7-4.9,2
		c-1.7,0.3-3.6,0.1-5.5-0.6l7.8,2.6L586.3,290.3z"/>
	<polygon class="st5" points="584.3,265.8 589.9,267.7 589.9,267.6 584.3,265.7 584.3,265.7 	"/>
	<polygon class="st5" points="575,286.5 586.3,290.3 585.7,287.3 577.9,284.7 577.9,284.7 	"/>
	<polygon class="st5" points="583.5,268.2 583.5,268.1 589.1,269.9 589.1,270.1 589.1,270.1 589.9,267.7 584.3,265.8 584.3,265.7 
		584.3,265.7 576.6,263.1 575.7,265.6 	"/>
	<path class="st5" d="M591.9,249.2c0.2,0.1,0.4,0.2,0.6,0.3l6,2l0.1-0.2l-6.6-2.2L591.9,249.2z"/>
	
		<rect x="568.4" y="283.3" transform="matrix(0.3164 -0.9486 0.9486 0.3164 120.6676 734.1491)" class="st5" width="2.7" height="0.2"/>
	<polygon class="st5" points="569.2,284.6 569.2,284.6 575,286.5 577.9,284.7 577.9,284.7 570.2,282.1 569.4,284.6 	"/>
	<path class="st5" d="M599.7,247.8c-0.4,0-1,0-1.9-0.1c-0.9-0.1-1.8-0.3-2.8-0.5c-1-0.2-1.9-0.4-2.8-0.7l7.2,2.4L599.7,247.8z"/>
	<path class="st5" d="M569.8,239l-0.2,0.6l0.8,0.3c1,0.3,1.8,1,2.3,2c0.5,1,0.6,2,0.3,3l0,0l1.4-4.3L569.8,239z"/>
	<path class="st5" d="M583.5,268.2c1.4,0.5,2.5,1.4,3.1,2.7c0.6,1.3,0.7,2.6,0.2,4.1l-0.2,0.5l0.6,0.2l1.8-5.5L583.5,268.2
		L583.5,268.2z"/>
	<path class="st5" d="M589.9,267.7L589.9,267.7l1.9-5.6l-0.6-0.2l-0.1,0.4c-0.5,1.5-1.4,2.5-2.6,3.1c-1.3,0.6-2.6,0.7-4.1,0.3
		l5.6,1.9L589.9,267.7z"/>
	
		<rect x="571.4" y="242.6" transform="matrix(0.3165 -0.9486 0.9486 0.3165 161.8357 710.0617)" class="st5" width="4.5" height="0.2"/>
	
		<rect x="586.2" y="266.1" transform="matrix(0.3162 -0.9487 0.9487 0.3162 145.646 740.1943)" class="st5" width="0.1" height="5.9"/>
	<polygon class="st5" points="562.2,277.5 560.7,281.8 569.2,284.6 570,282.1 570.2,282.1 575.7,265.6 575.6,265.5 576.4,263.1 
		576.6,263.1 582.3,246 582.1,246 582.9,243.4 574.3,240.6 574.3,240.6 574.5,240.6 573,244.9 572.9,244.8 562,277.4 562,277.4 	"/>
	<path class="st5" d="M560.7,281.8l-0.2-0.1l1.4-4.3c-0.4,1-1.1,1.7-2,2.2c-1,0.5-2,0.6-3,0.2l-0.8-0.3l-0.2,0.6L560.7,281.8
		L560.7,281.8z"/>
	<path class="st5" d="M592.5,249.4c1.5,0.7,2.6,1.6,3.2,2.9c0.7,1.5,0.8,3.1,0.2,4.9l-0.2,0.7l0.6,0.2l2.3-6.9h0l-0.1,0.2
		L592.5,249.4z"/>
	
		<rect x="581.3" y="244.6" transform="matrix(0.3166 -0.9486 0.9486 0.3166 166.0107 719.8779)" class="st5" width="2.7" height="0.2"/>
	<polygon class="st5" points="560.7,281.8 562.2,277.5 562,277.4 562,277.4 560.6,281.7 	"/>
	<polygon class="st5" points="599.1,249.6 599.3,248.9 592.2,246.5 592.2,246.5 	"/>
	
		<rect x="574.8" y="264.2" transform="matrix(0.3165 -0.9486 0.9486 0.3165 142.974 727.1003)" class="st5" width="2.6" height="0.2"/>
	<path class="st5" d="M582.3,246l10.2,3.4c-0.2-0.1-0.4-0.2-0.6-0.3l0-0.1l6.6,2.2l0.8-2.4l0,0l-0.2,0.6l-7-3c0,0,0,0,0,0l-9.2-3.1
		l0,0l0.2,0.1L582.3,246z"/>
	<path class="st5" d="M649.4,296.6l-10.2,19.9c0,0,0-0.1,0.1-0.1l0.4,0.2l-1.9,3l-0.1,0l0,0l6.7,4.4l2.5-3.8l1.1,0.7
		c0,0.1,0,0.1-0.1,0.2l17.5-36.2l-0.5-0.3l-3.3,5.9L649.4,296.6z"/>
	<polygon class="st5" points="622.4,311 632,302.8 632.1,300.8 623.3,305.2 	"/>
	<polygon class="st5" points="623.8,279.9 622.4,311 623.3,305.2 632.1,300.8 633.4,263.8 631.8,270.2 	"/>
	<polygon class="st5" points="650.7,294.1 649.4,296.6 661.6,290.5 664.9,284.6 	"/>
	<path class="st5" d="M622.4,311l0.5,0.3c0.6-0.9,1.3-1.6,2.2-2.3c0.9-0.6,2.1-1.3,3.6-2.1l20.7-10.4l1.3-2.5l14.2-9.5l-32.8,16.3
		l-0.1,1.9L622.4,311z"/>
	<path class="st5" d="M644.3,324L644.3,324l5.7,3.8l0.3-0.5l-0.8-0.5c-0.9-0.6-1.5-1.4-1.9-2.5c-0.3-1-0.3-2,0.2-3.1l-1.9,4
		L644.3,324z"/>
	<path class="st5" d="M646.8,320.2l-2.5,3.8l1.6,1.1l1.9-4c0-0.1,0-0.1,0.1-0.2L646.8,320.2z"/>
	<path class="st5" d="M639.6,316.7l-0.4-0.2c0,0,0,0.1-0.1,0.1l-1.6,3.1l0.1,0L639.6,316.7z"/>
	<path class="st5" d="M639.2,316.5c0,0-0.1,0.1-0.1,0.2c-0.4,0.6-0.9,0.9-1.6,1.2c-0.7,0.2-1.3,0.1-1.9-0.3l-0.8-0.5l-0.3,0.5l3.1,2
		L639.2,316.5C639.2,316.5,639.2,316.5,639.2,316.5z"/>
	<polygon class="st5" points="605.4,298.4 605.4,298.4 604.1,297.5 	"/>
	<path class="st5" d="M606.5,294.1c0.1-0.1,0.2-0.2,0.3-0.3l1.1,0.7l-2.5,3.8l1.9,1.3l1.9-2.9l0.4,0.2c0,0,0,0.1-0.1,0.1
		c0,0,0,0,0,0l14.2-17.1l0.2-4.7l9.4-11.4l-0.5-0.3L606.5,294.1z"/>
	<path class="st5" d="M606.8,293.9c-0.1,0.1-0.2,0.2-0.3,0.3l-2.7,3.2l0.3,0.2l1.4,0.9l2.5-3.8L606.8,293.9z"/>
	<polygon class="st5" points="603.8,297.3 604.1,297.5 603.8,297.3 	"/>
	<path class="st5" d="M603.9,295.4c-1.1,0.1-2.1-0.2-3-0.8c-0.5-0.3-0.8-0.5-0.8-0.5l-0.3,0.5l4.1,2.7l2.7-3.2
		C605.8,294.9,604.9,295.3,603.9,295.4z"/>
	<path class="st5" d="M607.4,299.7L607.4,299.7l3.2,2.1l0.3-0.5l-0.8-0.5c-0.6-0.4-0.9-0.9-1-1.6c-0.1-0.7,0-1.4,0.4-1.9
		c0-0.1,0.1-0.1,0.1-0.1L607.4,299.7L607.4,299.7z"/>
	<path class="st5" d="M609.7,297l-0.4-0.2l-1.9,2.9l0.1,0l2.2-2.6c0,0,0,0,0,0C609.6,297,609.6,297,609.7,297z"/>
	<polygon class="st5" points="623.8,279.9 631.8,270.2 633.4,263.8 624,275.2 	"/>
	<path class="st5" d="M674.6,322.1c-3.6,3-6,6.3-7.3,10c-1.3,3.7-1.5,7.5-0.5,11.5c0.9,4,3,7.9,6.2,11.7c3.2,3.8,6.7,6.5,10.4,8.1
		c3.8,1.6,7.6,2.1,11.4,1.5c3.9-0.6,7.6-2.4,11.1-5.4c3.6-3,6-6.4,7.3-10c1.3-3.7,1.4-7.5,0.5-11.5c-1-4-3-7.9-6.2-11.7
		c-3.2-3.8-6.7-6.5-10.4-8.1c-3.8-1.6-7.6-2.1-11.4-1.4C681.9,317.3,678.2,319.1,674.6,322.1z M698.9,323.7c2.6,0.6,4.9,2,6.7,4.2
		c1.9,2.2,2.9,4.7,3,7.4c0.1,2.7-0.6,5.4-2.1,8.2c-1.5,2.8-3.9,5.5-7,8.2c-3.1,2.6-6.2,4.5-9.2,5.5c-3,1-5.8,1.3-8.4,0.7
		c-2.6-0.6-4.9-2-6.7-4.2c-1.9-2.2-2.9-4.7-3-7.3c-0.1-2.7,0.6-5.4,2.1-8.2c1.5-2.8,3.9-5.5,7-8.2c3.1-2.6,6.2-4.5,9.2-5.5
		C693.4,323.3,696.2,323.1,698.9,323.7z"/>
	<path class="st5" d="M702.5,387.1c-0.9,0.4-1.9,0.5-2.9,0.1c-1-0.4-1.7-1-2.1-2c0,0-0.2-0.4-0.5-1.1l-0.6,0.3l2.1,4.7l0,0l-0.1-0.2
		L702.5,387.1z"/>
	<path class="st5" d="M704.2,401.5l0.6-0.3c-0.3-0.7-0.5-1-0.5-1.1c-0.4-0.9-0.5-1.9-0.1-2.9c0.4-1,1-1.7,2-2.1l0,0l-4,1.8
		L704.2,401.5z"/>
	<polygon class="st5" points="750.5,409 750.5,409.2 750.5,409.2 754.5,407.4 754.5,407.2 	"/>
	
		<rect x="701.9" y="395.9" transform="matrix(0.9105 -0.4136 0.4136 0.9105 -100.7258 326.6656)" class="st5" width="4.4" height="0.2"/>
	<polygon class="st5" points="747,401.3 751,399.5 750.9,399.3 746.9,401.2 746.9,401.2 	"/>
	<path class="st5" d="M748.8,394.8l-0.6,0.3c0,0,0.2,0.4,0.5,1.1c0.4,1,0.5,1.9,0.1,2.9c-0.4,1-1,1.7-2,2.2l4-1.8L748.8,394.8z"/>
	<polygon class="st5" points="728.5,384.9 733.9,382.5 738.8,370.5 732.2,374.3 	"/>
	<path class="st5" d="M702.5,387.1C702.5,387.1,702.5,387.1,702.5,387.1l0.1,0.2l-4,1.8l3.6,7.9l0,0l-0.1-0.2l4-1.8l0.1,0.2
		l22.3-10.2l3.7-10.7l6.6-3.8l-0.3-0.6c-2.4,1.6-4.6,2.9-6.7,3.9L702.5,387.1z"/>
	<polygon class="st5" points="714.3,425.8 720.9,422.1 724.6,411.3 719.8,413.5 	"/>
	<polygon class="st5" points="728.5,384.9 714.3,425.8 719.8,413.5 724.6,411.3 738.8,370.5 733.9,382.5 	"/>
	<path class="st5" d="M714.3,425.8l0.2,0.5c1.1-0.8,2.2-1.5,3.2-2.1c1.1-0.6,2.3-1.2,3.7-1.9l29.1-13.2c0,0,0,0,0,0l-0.1-0.2l4-1.8
		l0.1,0.2h0l-3.6-8l0,0l0.1,0.1l-4,1.8l-0.1-0.1c0,0,0,0,0,0l-22.3,10.1l-3.7,10.8L714.3,425.8z"/>
	<path class="st5" d="M753.5,409.1c1,0.4,1.7,1,2.1,2l0.5,1l0.6-0.3l-2.1-4.5l-4,1.8C751.5,408.8,752.5,408.8,753.5,409.1z"/>
	<polygon class="st5" points="702.5,387.1 702.5,387.1 698.5,388.9 698.6,389.1 702.6,387.3 	"/>
	<path class="st5" d="M764,439.1c-0.1-1-0.1-2-0.1-2.9c0-0.9,0.1-1.5,0.2-1.9l-1.1,0.2l1.3,7.4C764.2,441.1,764.1,440.2,764,439.1z"
		/>
	<path class="st5" d="M760.6,435L760.6,435l-7.2,1.3l0.2,0.6l0.7-0.1c1.9-0.3,3.5,0,4.8,0.9c1.3,0.9,2.2,2.3,2.5,4.2h0l-1.2-6.8
		L760.6,435z"/>
	<path class="st5" d="M771,473.4c-0.2-0.3-0.5-0.9-0.8-1.7c-0.3-0.8-0.6-1.7-0.9-2.7c-0.3-1-0.5-1.9-0.7-2.8l0,0l1.3,7.4l-0.7,0.1
		l0,0L771,473.4z"/>
	<polygon class="st5" points="727.3,456.2 727.3,456.2 727.3,456.4 722.9,457.2 724.4,466 728.9,465.2 728.9,465.4 728.9,465.4 
		764.7,459.1 763.1,449.9 	"/>
	<polygon class="st5" points="764.3,442 764.3,442 763,434.5 762.3,434.7 	"/>
	<path class="st5" d="M727.3,456.2c-1.1,0.1-2-0.1-2.9-0.7c-0.9-0.6-1.4-1.5-1.6-2.5l-0.1-0.8l-0.6,0.1l0.9,4.9h0l0-0.2L727.3,456.2
		z"/>
	<path class="st5" d="M765.2,472.1c-0.9,1.3-2.3,2.1-4.3,2.5l-0.7,0.1l0,0.6l7-1.2l-1.2-6.8C766.4,469.2,766.1,470.8,765.2,472.1z"
		/>
	<path class="st5" d="M724.4,466L724.4,466l0.9,4.9l0.6-0.1l-0.1-0.8c-0.2-1.1,0-2,0.7-2.9c0.6-0.9,1.5-1.4,2.5-1.7l-4.5,0.8
		L724.4,466z"/>
	<polygon class="st5" points="728.9,465.2 724.4,466 724.5,466.2 728.9,465.4 728.9,465.4 	"/>
	<polygon class="st5" points="727.3,456.2 727.3,456.2 722.9,457 722.9,457.2 727.3,456.4 	"/>
	
		<rect x="763.9" y="449.7" transform="matrix(0.9849 -0.1729 0.1729 0.9849 -67.031 139.1198)" class="st5" width="2.4" height="9.3"/>
	<polygon class="st5" points="768.6,466.2 769.2,473.7 769.9,473.6 	"/>
	<path class="st5" d="M764.3,442C764.3,442,764.3,442,764.3,442l-2-7.3l0.7-0.1l0,0l-2.4,0.4l1.2,6.8l-0.2,0l1.4,8.2l2.3-0.4
		l1.6,9.2l-2.3,0.4l1.4,8.1c0,0,0,0,0,0l0.2,0l1.2,6.8l-0.2,0v0l1.9-0.3l-0.6-7.6L764.3,442z"/>
	
		<rect x="761" y="434.9" transform="matrix(0.9849 -0.1729 0.1729 0.9849 -64.3257 138.1913)" class="st5" width="0.2" height="6.9"/>
	<path class="st5" d="M766.3,467.2l-0.2,0c0,0,0,0,0,0l1.2,6.8l0.2,0L766.3,467.2z"/>
	<path class="st5" d="M258.9,602.9c2-2.2,4.6-4,8-5.6c3.4-1.6,6.5-2.4,9.4-2.5c2.9-0.1,5.5,0.5,7.7,1.8c2.2,1.3,4,3.3,5.3,6
		c1.3,2.8,1.7,5.5,1.3,8.3c-0.5,2.7-2.2,5.4-5.1,7.9l0.2,0.5l8.7-4.1c0.1-1.8-0.1-3.9-0.6-6.4c-0.5-2.4-1.3-5-2.6-7.7
		c-2-4.3-4.5-7.7-7.5-10.1c-3-2.4-6.2-3.8-9.7-4.1c-3.5-0.4-7.2,0.4-11,2.1c-3.9,1.8-6.8,4.2-8.8,7.2c-1.9,3-2.9,6.4-2.9,10.2
		c0,3.8,0.9,7.8,2.8,11.9c1.2,2.5,2.5,4.6,4.1,6.2c1.5,1.6,3.1,2.7,4.7,3.5c1.6,0.8,3.2,1.2,4.8,1.4l8.5-4.6l-0.2-0.4
		c-3.6,1-6.6,1.4-9.1,1.3c-2.5-0.2-4.6-1-6.3-2.4c-1.7-1.4-3.2-3.4-4.4-6c-1.1-2.5-1.4-5.1-0.9-7.5
		C255.7,607.4,257,605.1,258.9,602.9z"/>
	<path class="st5" d="M322.8,665.2c1.3-3.3,1.5-6.8,0.7-10.4s-2.5-7.2-5.3-10.7c-2.8-3.5-5.9-6.1-9.2-7.6c-3.4-1.6-6.8-2.1-10.3-1.6
		c-3.5,0.5-6.9,2-10.2,4.6c-3.3,2.6-5.6,5.6-6.9,8.9c-1.3,3.3-1.5,6.8-0.8,10.4c0.8,3.6,2.5,7.2,5.3,10.7c2.8,3.5,5.9,6.1,9.2,7.6
		c3.4,1.6,6.8,2.1,10.3,1.6c3.5-0.5,6.9-2,10.2-4.6C319.2,671.5,321.5,668.5,322.8,665.2z M310.2,666.8c-2.9,2.3-5.7,3.9-8.5,4.7
		c-2.8,0.9-5.3,1-7.7,0.4c-2.3-0.6-4.3-1.9-6-4c-1.6-2.1-2.5-4.3-2.5-6.7c0-2.4,0.7-4.9,2.1-7.4c1.5-2.5,3.6-4.9,6.6-7.2
		c2.9-2.3,5.7-3.9,8.5-4.7c2.8-0.9,5.3-1,7.7-0.4c2.4,0.6,4.4,1.9,6,4c1.7,2.1,2.5,4.3,2.5,6.8c0,2.4-0.7,4.9-2.2,7.4
		C315.3,662.1,313.1,664.5,310.2,666.8z"/>
	<path class="st5" d="M321,699.7c-0.7,0.7-1.5,1.1-2.4,1.2c-1,0.1-1.8-0.2-2.6-0.8l-0.6-0.5l-0.4,0.4l3.3,2.8L321,699.7L321,699.7z"
		/>
	<path class="st5" d="M343.6,672.7L343.6,672.7l-3.5-2.9l-0.4,0.4l0.6,0.5c0.7,0.6,1.2,1.4,1.3,2.4c0.1,1-0.2,1.9-0.8,2.6l2.6-3.2
		L343.6,672.7z"/>
	<path class="st5" d="M337.2,718.6l0.1,0.1l9.4-7.2l-0.4-0.4c-1.7,1.1-3.3,1.8-5,2.2c-1.7,0.4-3.3,0.4-4.8,0.1
		c-1.6-0.3-3.1-1.1-4.5-2.3l5.7,4.8L337.2,718.6z"/>
	<polygon class="st5" points="341,675.9 343.6,672.7 343.5,672.6 340.9,675.8 340.9,675.8 	"/>
	<polygon class="st5" points="328.9,711.7 337.2,718.6 337.8,715.9 332,711.1 332,711.1 	"/>
	<polygon class="st5" points="337.2,718.6 337.2,718.6 328.9,711.7 332,711.1 332,711.1 326.4,706.4 324.8,708.3 	"/>
	<path class="st5" d="M347.4,681.2L347.4,681.2c0.7-0.7,1.5-1.1,2.4-1.2c1-0.1,1.8,0.2,2.6,0.8c0.3,0.3,0.5,0.4,0.6,0.5l0.4-0.4
		L350,678L347.4,681.2z"/>
	
		<rect x="346.6" y="679.5" transform="matrix(0.6405 -0.7679 0.7679 0.6405 -396.5332 512.0117)" class="st5" width="4.1" height="0.2"/>
	<polygon class="st5" points="349.9,677.9 350,678 350,678 343.6,672.7 341,675.9 340.9,675.8 340.9,675.8 321,699.7 321.1,699.8 
		318.5,703 318.3,702.9 318.3,702.9 324.8,708.3 324.8,708.3 324.7,708.1 326.2,706.3 326.4,706.4 347.4,681.2 347.2,681.1 	"/>
	
		<rect x="317.7" y="701.2" transform="matrix(0.6397 -0.7686 0.7686 0.6397 -423.8588 498.3796)" class="st5" width="4.1" height="0.2"/>
	
		<rect x="324.3" y="707.2" transform="matrix(0.6401 -0.7683 0.7683 0.6401 -426.2432 504.662)" class="st5" width="2.4" height="0.2"/>
	<polygon class="st5" points="379.6,744.9 379.7,742.2 373.2,738.5 370.2,739.6 	"/>
	<path class="st5" d="M379.6,744.9l0.1,0.1l7.9-8.7l-0.5-0.3c-1.4,1.3-2.9,2.3-4.5,3c-1.6,0.7-3.1,1-4.7,0.9
		c-1.6-0.1-3.2-0.6-4.8-1.5l0,0l6.5,3.7L379.6,744.9z"/>
	
		<rect x="364.9" y="735.8" transform="matrix(0.4928 -0.8702 0.8702 0.4928 -454.6108 691.7866)" class="st5" width="2.4" height="0.2"/>
	<polygon class="st5" points="379.6,744.9 379.6,744.9 370.2,739.6 373.2,738.5 366.8,734.8 365.6,736.9 	"/>
	<path class="st5" d="M360.2,729.2c-0.5,0.8-1.2,1.4-2.2,1.6c-0.9,0.3-1.8,0.2-2.7-0.3l-0.6-0.4l-0.3,0.5l3.8,2.1L360.2,729.2
		L360.2,729.2z"/>
	<polygon class="st5" points="384.8,702.6 385,702.7 385,702.7 377.8,698.6 375.8,702.2 375.6,702.1 360.2,729.2 360.4,729.3 
		358.4,732.9 358.2,732.8 358.2,732.8 365.6,736.9 365.6,736.9 365.4,736.8 366.6,734.7 366.8,734.8 382.9,706.3 382.8,706.2 	"/>
	<polygon class="st5" points="384.8,702.6 382.8,706.2 382.9,706.3 385,702.7 	"/>
	<path class="st5" d="M382.9,706.3L382.9,706.3c0.5-0.8,1.2-1.4,2.2-1.6c0.9-0.3,1.8-0.1,2.7,0.3c0.4,0.2,0.6,0.3,0.6,0.4l0.3-0.5
		l-3.8-2.1L382.9,706.3z"/>
	
		<rect x="357.3" y="730.9" transform="matrix(0.4924 -0.8704 0.8704 0.4924 -453.8802 683.8125)" class="st5" width="4.1" height="0.2"/>
	
		<rect x="374.6" y="700.3" transform="matrix(0.4936 -0.8697 0.8697 0.4936 -418.347 682.2854)" class="st5" width="4.1" height="0.2"/>
	<path class="st5" d="M377.8,698.6L377.8,698.6l-3.9-2.2l-0.3,0.5l0.6,0.4c0.8,0.5,1.4,1.2,1.7,2.1c0.3,0.9,0.2,1.9-0.3,2.7h0l2-3.6
		L377.8,698.6z"/>
	<path class="st5" d="M431.7,725.9l0,0.1c0.2,0.1,0.3,0.2,0.5,0.2l5.4,1.9l0.1-0.2L431.7,725.9z"/>
	<path class="st5" d="M431.9,723.6C431.9,723.6,432,723.6,431.9,723.6l-8.3-2.9v0l0.2,0.1l-0.8,2.3l9.2,3.2
		c-0.2-0.1-0.3-0.2-0.5-0.2l0-0.1l5.9,2.1l-0.1,0.2l0,0l0.8-2.3l0,0l-0.2,0.6L431.9,723.6z"/>
	
		<rect x="422.1" y="721.8" transform="matrix(0.3289 -0.9444 0.9444 0.3289 -397.6642 884.1793)" class="st5" width="2.4" height="0.2"/>
	<polygon class="st5" points="431.9,723.6 438.2,726.5 438.4,725.9 432,723.6 	"/>
	<path class="st5" d="M437,724.8c-0.8-0.1-1.6-0.3-2.5-0.5c-0.9-0.2-1.7-0.4-2.5-0.7l6.5,2.3l0.3-1C438.4,725,437.8,724.9,437,724.8
		z"/>
	
		<rect x="413.2" y="719.9" transform="matrix(0.3289 -0.9444 0.9444 0.3289 -401.2671 875.2751)" class="st5" width="4.1" height="0.2"/>
	<polygon class="st5" points="423.8,743.2 423.9,743.1 428.9,744.8 428.9,744.9 428.9,744.9 429.6,742.7 429.6,742.7 429.6,742.8 
		424.6,741.1 424.6,741 417.6,738.5 416.8,740.7 	"/>
	<polygon class="st5" points="424.8,762.8 415.9,759.7 418.6,758.1 411.6,755.7 410.8,757.9 	"/>
	<polygon class="st5" points="424.8,762.8 426.1,763.3 425.6,760.5 418.6,758.1 415.9,759.7 	"/>
	
		<rect x="427" y="739.2" transform="matrix(0.3286 -0.9445 0.9445 0.3286 -413.9377 901.4391)" class="st5" width="0.1" height="5.3"/>
	<path class="st5" d="M426.1,763.3l-1.3-0.4l1.4,0.5l6.2-10l-0.5-0.2c-1.2,1.6-2.5,2.8-3.9,3.8s-2.9,1.5-4.5,1.8
		c-1.6,0.2-3.3,0-5-0.6l0,0l7.1,2.5L426.1,763.3z"/>
	
		<rect x="426.3" y="741.3" transform="matrix(0.3394 -0.9406 0.9406 0.3394 -418.1942 892.5099)" class="st5" width="0.1" height="5.3"/>
	<polygon class="st5" points="423.6,720.7 415.8,718 415.8,718 416,718.1 414.6,721.9 414.5,721.9 404.2,751.3 404.4,751.3 
		403,755.2 402.9,755.2 402.9,755.2 410.8,757.9 410.8,757.9 410.7,757.9 411.5,755.6 411.6,755.7 416.8,740.7 416.7,740.7 
		417.4,738.5 417.6,738.5 423,723.1 422.8,723 	"/>
	<path class="st5" d="M435.1,729c0.6,1.3,0.7,2.8,0.1,4.4L435,734l0.5,0.2l2.1-6.1l-5.4-1.9C433.6,726.9,434.6,727.8,435.1,729z"/>
	<path class="st5" d="M423.8,743.2c1.3,0.5,2.2,1.3,2.8,2.5c0.6,1.1,0.6,2.4,0.1,3.7l-0.1,0.4l0.5,0.2l1.7-5L423.8,743.2
		L423.8,743.2z"/>
	<path class="st5" d="M431.4,737.7l-0.5-0.2l-0.1,0.4c-0.5,1.3-1.3,2.2-2.4,2.8s-2.4,0.6-3.7,0.2l0,0l5,1.8L431.4,737.7z"/>
	<path class="st5" d="M411.7,716.6l-0.2,0.5l0.7,0.2c0.9,0.3,1.6,0.9,2,1.8c0.4,0.9,0.5,1.8,0.2,2.7l0,0l1.3-3.9L411.7,716.6z"/>
	
		<rect x="401.6" y="753.2" transform="matrix(0.3228 -0.9465 0.9465 0.3228 -439.5972 892.1305)" class="st5" width="4.1" height="0.2"/>
	<path class="st5" d="M404.2,751.3c-0.4,0.9-1,1.6-1.9,2c-0.9,0.4-1.8,0.5-2.7,0.2l-0.7-0.2l-0.2,0.5l4.1,1.4L404.2,751.3
		L404.2,751.3z"/>
	
		<rect x="409.9" y="756.7" transform="matrix(0.3291 -0.9443 0.9443 0.3291 -438.7762 895.9673)" class="st5" width="2.4" height="0.2"/>
	
		<rect x="415.9" y="739.5" transform="matrix(0.329 -0.9443 0.9443 0.329 -418.5252 890.2111)" class="st5" width="2.4" height="0.2"/>
	<path class="st5" d="M477.8,754.7l0.9,0.1c1.9,0.2,2.7,1.2,2.5,2.9l-1.2,8.5c-0.6,1.1-1.4,2.1-2.5,2.7c-1.1,0.7-2.3,1.2-3.6,1.4
		c-1.3,0.3-2.7,0.3-4.1,0.1c-2.7-0.4-4.9-1.4-6.6-3.1c-1.7-1.7-2.9-3.9-3.5-6.7c-0.6-2.8-0.7-6-0.3-9.5c0.5-3.8,1.4-7,2.9-9.5
		c1.4-2.6,3.3-4.5,5.6-5.7c2.3-1.2,4.9-1.6,8-1.2c2,0.3,3.8,0.8,5.5,1.7c1.7,0.9,3.1,2.2,4.2,3.8c1.1,1.7,1.9,3.8,2.3,6.4l0.5,0.1
		l1.1-9.5c-1-0.7-2.3-1.4-3.9-2.1c-1.6-0.7-3.3-1.3-5.2-1.8c-1.9-0.5-3.9-0.9-5.9-1.2c-4.4-0.6-8.3-0.2-11.7,1
		c-3.4,1.2-6.2,3.2-8.3,6s-3.5,6.3-4,10.4c-0.5,4.2-0.1,7.9,1.2,11.2c1.3,3.3,3.5,5.9,6.4,8c2.9,2.1,6.5,3.4,10.8,3.9
		c3,0.4,5.8,0.4,8.3,0c2.5-0.4,4.8-1.1,6.7-1.9c1.9-0.9,3.4-1.8,4.4-2.8l1.2-9.2c0.1-1.7,1.2-2.4,3.1-2.1l0.8,0.1l0.1-0.6l-15.7-2
		L477.8,754.7z"/>
	
		<rect x="528" y="754.7" transform="matrix(0.9971 -7.630748e-02 7.630748e-02 0.9971 -56.043 42.6931)" class="st5" width="5.3" height="0.1"/>
	<path class="st5" d="M528.4,736l0,0.1c0.2,0,0.4,0,0.6,0l5.7-0.4l0-0.2L528.4,736z"/>
	<path class="st5" d="M534.6,733.9L534.6,733.9l-0.1-1.6c-0.3,0.2-0.9,0.4-1.6,0.6c-0.8,0.2-1.6,0.4-2.5,0.6
		c-0.9,0.2-1.8,0.3-2.6,0.4l6.8-0.5L534.6,733.9z"/>
	<path class="st5" d="M506.3,735.4l0,0.6l0.7-0.1c1-0.1,1.8,0.2,2.6,0.9c0.7,0.6,1.2,1.4,1.3,2.4h0l-0.3-4.1L506.3,735.4z"/>
	<path class="st5" d="M528,755c1.4-0.1,2.6,0.3,3.5,1.2c1,0.8,1.5,1.9,1.6,3.3l0,0.4l0.6,0l-0.4-5.3L528,755L528,755z"/>
	<polygon class="st5" points="534.6,733.9 534.5,733.3 527.7,733.8 527.7,733.8 	"/>
	<path class="st5" d="M532.8,746.9l-0.6,0l0,0.4c0.1,1.4-0.3,2.6-1.1,3.5c-0.8,1-1.9,1.5-3.3,1.7l0,0l5.3-0.4L532.8,746.9z"/>
	<polygon class="st5" points="528,755 528,754.9 533.3,754.5 533.3,754.6 533.3,754.6 533.1,752.2 533.1,752.2 533.2,752.3 
		527.8,752.7 527.8,752.6 520.4,753.2 520.6,755.5 	"/>
	
		<rect x="527.8" y="752.4" transform="matrix(0.9973 -7.305808e-02 7.305808e-02 0.9973 -53.5564 40.767)" class="st5" width="5.3" height="0.1"/>
	
		<rect x="520.3" y="753.2" transform="matrix(0.9973 -7.383048e-02 7.383048e-02 0.9973 -54.2729 40.4817)" class="st5" width="0.2" height="2.4"/>
	<path class="st5" d="M532.7,737.4c1.1,1,1.7,2.3,1.8,4l0,0.7l0.6,0l-0.5-6.4l-5.7,0.4C530.5,736.1,531.7,736.6,532.7,737.4z"/>
	
		<rect x="510.8" y="735" transform="matrix(0.9974 -7.263675e-02 7.263675e-02 0.9974 -52.1906 39.0545)" class="st5" width="0.2" height="4.1"/>
	<path class="st5" d="M513.2,770.2c0,1-0.3,1.8-0.9,2.6c-0.6,0.7-1.4,1.1-2.4,1.2l-0.7,0.1l0,0.6l4.5-0.3l0,0l-0.2,0L513.2,770.2z"
		/>
	<polygon class="st5" points="513.2,770.2 513.2,770.2 513.5,774.3 513.7,774.3 513.4,770.2 	"/>
	<path class="st5" d="M519.2,736.8l9.8-0.7c-0.2,0-0.4,0-0.6,0l0-0.1l6.3-0.5l0,0.2h0l-0.1-1.8l-6.9-0.1c0,0,0,0,0,0l-8.8,0.6v0
		l0.2,0L519.2,736.8z"/>
	
		<rect x="519" y="734.4" transform="matrix(0.9973 -7.355656e-02 7.355656e-02 0.9973 -52.7055 40.1718)" class="st5" width="0.2" height="2.4"/>
	<polygon class="st5" points="536.6,770.2 529.1,770.7 529.1,770.7 527.3,773.3 538.1,772.5 	"/>
	<polygon class="st5" points="521.6,771.3 521.8,771.3 520.6,755.5 520.4,755.5 520.2,753.2 520.4,753.2 519.2,736.8 519,736.9 
		518.9,734.4 510.6,735.1 510.6,735.1 510.8,735 511.1,739.1 510.9,739.1 513.2,770.2 513.2,770.2 513.4,770.2 513.7,774.3 
		521.9,773.7 521.9,773.7 521.8,773.7 	"/>
	<polygon class="st5" points="529.1,770.7 521.8,771.3 521.9,773.7 527.3,773.3 529.1,770.7 	"/>
	<path class="st5" d="M537.4,765.9c-0.9,1.4-2,2.6-3.4,3.4c-1.4,0.8-3,1.3-4.8,1.5l7.5-0.5l1.5,2.3l-10.8,0.8l0,0l11-0.8l1.7-11.7
		l-0.6,0C539,762.7,538.3,764.4,537.4,765.9z"/>
	
		<rect x="521.7" y="771.3" transform="matrix(0.9973 -7.343549e-02 7.343549e-02 0.9973 -55.3183 40.4013)" class="st5" width="0.2" height="2.4"/>
	<path class="st5" d="M581.8,746.5c-1.2-1.3-2.8-2.2-4.7-2.8l-12.1-4.2c-1.3-0.4-2.4-0.9-3.3-1.5c-0.9-0.6-1.5-1.5-1.7-2.6
		c-0.3-1.5,0.1-2.9,1.1-4.2c1-1.3,2.6-2.3,4.7-2.8c2.3-0.6,4.3-0.5,6,0.3c1.7,0.8,2.8,2.1,3.2,4l0.5-0.1l-1.2-7.5c0,0,0,0,0,0
		l0.1,0.5l-6.4,1.6l-0.3-1.1l2.9-0.7c-0.4,0-0.8,0.1-1.2,0.1c-1.2,0.2-2.3,0.3-3.4,0.5c-1.1,0.2-2,0.4-2.7,0.6
		c-2.3,0.6-4.2,1.5-5.6,2.7c-1.5,1.2-2.5,2.7-3.1,4.3c-0.6,1.7-0.7,3.5-0.5,5.4c0.3,2,1.1,3.8,2.4,5.3c1.3,1.5,3,2.5,5.2,3.2l11.1,4
		c1.7,0.5,3.1,1.1,4,1.8c0.9,0.7,1.5,1.7,1.8,2.8c0.4,1.7,0.1,3.3-0.9,4.8c-1,1.5-2.7,2.6-5.1,3.2c-2.2,0.6-4.2,0.6-6,0.1
		c-1.8-0.5-3.3-1.5-4.5-2.9c-1.2-1.4-2-3-2.3-4.9l-0.5,0.1c-0.3,0.9-0.4,1.9-0.5,3.2c0,1.2,0.1,2.4,0.3,3.6c0.2,1.1,0.6,2.1,1.1,2.8
		c0.9,0.5,1.9,0.9,3.2,1.1s2.7,0.3,4.3,0.2c1.6-0.1,3.2-0.3,4.8-0.7c4.4-1.1,7.6-2.9,9.6-5.5s2.7-5.7,2-9.3
		C583.9,749.5,583.1,747.8,581.8,746.5z"/>
	<path class="st5" d="M574.4,725.1l-0.1-0.7l-3.7,0.9c0.7-0.1,1.3-0.2,1.9-0.2C573.4,725.1,574.1,725.1,574.4,725.1z"/>
	<path class="st5" d="M568.1,727.2l6.4-1.6l-0.1-0.5c-0.4-0.1-1-0.1-1.9,0c-0.6,0.1-1.2,0.1-1.9,0.2l-2.9,0.7L568.1,727.2z"/>
	<path class="st5" d="M620,705.6l3.3,2.4l0,0c-0.9-0.8-1.3-1.5-1.2-2.3c0.1-0.8,0.5-1.4,1.1-1.8l0.4-0.3l-0.3-0.5l-15.3,9.2l0.3,0.5
		l0.4-0.2c0.7-0.4,1.6-0.7,2.7-0.7c1.1,0,2.2,0.4,3.4,1.2l0,0l-3.4-2.3L620,705.6z"/>
	<path class="st5" d="M647.4,731.3c-0.1-0.8-0.2-1.6-0.3-2.3c-0.1-0.7-0.1-1.1-0.2-1.4l-3.6-31.6l-3.4,2l3.4,25l2,1.5l2.6,11.1
		l0.4-0.3c-0.2-0.4-0.4-0.9-0.5-1.7C647.7,732.9,647.5,732.1,647.4,731.3z"/>
	<polygon class="st5" points="620,705.6 611.4,710.7 614.8,713.1 623.3,708 	"/>
	<polygon class="st5" points="643.3,723 623.3,708 614.8,713.1 647.9,735.6 644.3,729.8 	"/>
	<path class="st5" d="M642.8,691.7l0.5,4.3l0,0c-0.1-1.4,0-2.6,0.6-3.5c0.5-0.9,1.1-1.6,1.8-2l0.4-0.3l-0.3-0.5l-10.3,6.2l0.3,0.5
		l0.4-0.3c0.6-0.4,1.3-0.4,2.2-0.2c0.8,0.2,1.3,0.9,1.5,2.2l0,0l-0.6-4.2L642.8,691.7z"/>
	<polygon class="st5" points="643.3,723 644.3,729.8 647.9,735.6 645.4,724.5 	"/>
	<polygon class="st5" points="642.8,691.7 639.3,693.8 639.9,698 643.3,696 	"/>
	<path class="st5" d="M697.6,669c-2.9-3.1-6.1-5.1-9.5-6.1c-3.4-1-6.9-0.9-10.4,0.2c-3.6,1.1-7,3.1-10.2,6.2
		c-3.3,3.1-5.5,6.4-6.8,9.9c-1.3,3.5-1.5,7-0.7,10.4c0.8,3.5,2.6,6.7,5.5,9.8c2.9,3.1,6.1,5.1,9.4,6.1c3.4,1,6.9,0.9,10.4-0.1
		c3.6-1.1,7-3.1,10.2-6.2c3.3-3.1,5.5-6.4,6.8-9.9c1.3-3.5,1.5-7,0.7-10.4C702.3,675.3,700.5,672,697.6,669z M697.4,691
		c-0.4,2.4-1.5,4.5-3.5,6.3c-1.9,1.8-4.1,2.8-6.5,3.1c-2.4,0.2-4.9-0.2-7.6-1.5c-2.6-1.2-5.2-3.2-7.7-5.9c-2.5-2.7-4.4-5.4-5.5-8.1
		c-1.1-2.7-1.4-5.2-1.1-7.6c0.4-2.4,1.5-4.5,3.4-6.3c1.9-1.8,4.1-2.9,6.5-3.1c2.4-0.2,4.9,0.3,7.5,1.5c2.6,1.2,5.2,3.2,7.7,5.9
		c2.5,2.7,4.4,5.4,5.5,8.1C697.4,686.1,697.8,688.6,697.4,691z"/>
	<path class="st5" d="M692.1,647.9L692.1,647.9l5.5,3.8l0.3-0.5l-0.5-0.4c-1.4-1-2.3-2.2-2.6-3.6c-0.3-1.4,0.1-2.9,1-4.3l-3.5,5.1
		L692.1,647.9z"/>
	<path class="st5" d="M709.1,623.5C709.1,623.5,709.1,623.5,709.1,623.5l3.6-5.2l-0.1-0.1l-3.6,5.2L709.1,623.5z"/>
	<polygon class="st5" points="732,648.4 731.9,648.5 735.3,650.8 735.4,650.7 732,648.4 	"/>
	
		<rect x="728.9" y="654.4" transform="matrix(0.5676 -0.8233 0.8233 0.5676 -225.2188 884.0309)" class="st5" width="0.2" height="4.1"/>
	<path class="st5" d="M737.4,646.8l-0.4,0.6c-0.6,0.8-1.3,1.3-2.3,1.5c-1,0.2-1.9,0-2.7-0.5l3.4,2.3l2.5-3.6L737.4,646.8z"/>
	<polygon class="st5" points="694.2,641 694.2,641 690.3,646.6 690.8,647 	"/>
	<path class="st5" d="M709.1,623.5c1-1.4,2.3-2.3,3.7-2.5c1.4-0.3,2.9,0.1,4.3,1.1l0.5,0.4l0.4-0.4l-5.5-3.8l0,0l0.1,0.1
		L709.1,623.5z"/>
	<polygon class="st5" points="710.8,617 706.9,622.6 711.3,617.4 	"/>
	<path class="st5" d="M711.3,617.4L711.3,617.4l-1.3-0.9c-0.1,0.4-0.3,0.9-0.6,1.6c-0.3,0.7-0.7,1.5-1.1,2.3
		c-0.4,0.8-0.9,1.6-1.3,2.2l0,0l3.9-5.6L711.3,617.4z"/>
	<polygon class="st5" points="731.9,648.5 732,648.4 732,648.4 704.9,629.7 700.1,636.6 727.2,655.3 727.3,655.2 730.7,657.5 
		735.4,650.7 735.4,650.7 735.3,650.8 	"/>
	<path class="st5" d="M692.6,643c-0.6,0.7-1.2,1.3-1.8,1.9c-0.6,0.5-1,0.9-1.3,1.2l0.8,0.6l3.9-5.6
		C693.8,641.6,693.2,642.3,692.6,643z"/>
	<path class="st5" d="M727.2,655.3L727.2,655.3c0.8,0.6,1.3,1.4,1.4,2.3c0.2,1,0,1.8-0.6,2.7l-0.4,0.6l0.5,0.3l2.6-3.7h0l-0.1,0.1
		L727.2,655.3z"/>
	<path class="st5" d="M703.1,628.5l1.8,1.2l4.3-6.2c0,0,0,0,0,0l-0.1-0.1l3.6-5.2l-1.3-0.9l-4.4,5.3L694.2,641c0,0,0,0,0,0l-3.4,6
		l-0.5-0.4l0,0l1.8,1.2l3.5-5.1l0.1,0.1c0,0,0,0,0,0l4.3-6.2l-1.8-1.2L703.1,628.5z"/>
	
		<rect x="697.4" y="631.5" transform="matrix(0.5677 -0.8232 0.8232 0.5677 -217.442 850.9912)" class="st5" width="8.4" height="2.1"/>
	<path class="st5" d="M695.7,642.7l-3.5,5.1l0.1,0.1l3.5-5.1c0,0,0,0,0,0L695.7,642.7z"/>
	<path class="st5" d="M755.1,610.2l0.1-0.2l-14.4-6.4l-0.1,0.2l-2.2-1l0.1-0.2l-15-6.6l-0.1,0.2l-2.2-1l0.1-0.2l0,0l-3.4,7.7l0,0
		l0.1-0.2l3.8,1.7l-0.1,0.2l28.5,12.6c0,0,0,0,0,0l0.1-0.2l3.8,1.7l-0.1,0.2l0,0l3.4-7.7l0,0l-0.1,0.2L755.1,610.2z"/>
	<polygon class="st5" points="743.7,596.9 743.7,596.9 743.6,596.9 745.8,592 743.8,591.1 741.7,596 741.6,596 741.6,596 
		738.6,602.8 740.7,603.7 	"/>
	<path class="st5" d="M752.1,619.1c0.4,0.9,0.3,1.8-0.1,2.7l-0.3,0.7l0.5,0.2l1.8-4l-3.7-1.7C751.1,617.6,751.7,618.2,752.1,619.1z"
		/>
	<path class="st5" d="M728.2,581.2l-0.6-0.3l-2.8,6.3c0,0,0,0,0,0L728.2,581.2z"/>
	<polygon class="st5" points="755.2,610.1 757.4,611.1 759.5,606.2 758.1,603.4 	"/>
	
		<rect x="756.2" y="609.5" transform="matrix(0.4043 -0.9146 0.9146 0.4043 -108.0414 1055.4325)" class="st5" width="0.2" height="2.4"/>
	
		<rect x="739.5" y="602.1" transform="matrix(0.4046 -0.9145 0.9145 0.4046 -111.345 1035.5973)" class="st5" width="0.2" height="2.4"/>
	<path class="st5" d="M743.8,591.1L743.8,591.1l-4.9-2.2l-0.2,0.5l0.4,0.2c1.3,0.6,2.1,1.4,2.6,2.6c0.5,1.2,0.5,2.4-0.1,3.7l2.2-4.9
		L743.8,591.1z"/>
	
		<rect x="719.8" y="601.6" transform="matrix(0.4049 -0.9144 0.9144 0.4049 -123.5122 1017.4708)" class="st5" width="0.2" height="4.1"/>
	<path class="st5" d="M727.6,587.2c-0.1,0.2-0.2,0.3-0.3,0.5l-0.1,0l2.5-5.8l0.2,0.1l0,0l-2.2-1l0,0l0.6,0.3l-3.3,6c0,0,0,0,0,0
		l-3.5,7.9l2.2,1L727.6,587.2z"/>
	
		<rect x="722.4" y="594.5" transform="matrix(0.4048 -0.9144 0.9144 0.4048 -114.7184 1015.2064)" class="st5" width="0.2" height="2.4"/>
	<polygon class="st5" points="743.7,596.9 743.7,596.9 745.9,592 745.8,592 743.6,596.9 	"/>
	<polygon class="st5" points="741.7,596 743.8,591.1 743.7,591.1 741.6,596 741.6,596 	"/>
	<path class="st5" d="M750.3,617l-0.1,0.2c0,0,0,0,0,0l3.7,1.7l0.1-0.2L750.3,617z"/>
	<path class="st5" d="M743.7,596.9c0.6-1.2,1.5-2.1,2.7-2.6c1.2-0.5,2.4-0.4,3.7,0.2l0.4,0.2l0.2-0.5l-4.9-2.2l0,0l0.1,0
		L743.7,596.9z"/>
	<path class="st5" d="M754.3,589.6c1.5,1.3,2.6,2.7,3.5,4.2c0.8,1.5,1.3,3,1.4,4.6c0.1,1.6-0.2,3.3-1,5l0,0l3-6.8l2.8-0.3l-4.4,9.9
		l0,0l4.5-10.1l-9.5-7L754.3,589.6z"/>
	<path class="st5" d="M716.2,606.8l0.5,0.2l0.3-0.7c0.4-0.9,1-1.5,2-1.9c0.9-0.4,1.8-0.4,2.7,0l0,0l-3.8-1.7L716.2,606.8z"/>
	<path class="st5" d="M726.7,580.6c0,0.4-0.1,0.9-0.3,1.7c-0.2,0.8-0.4,1.6-0.7,2.5c-0.3,0.9-0.6,1.7-0.9,2.4l2.8-6.3L726.7,580.6z"
		/>
	<polygon class="st5" points="761.2,596.5 758.1,603.4 759.5,606.2 763.9,596.3 	"/>
	<path class="st5" d="M730.5,584.5c1.4-0.5,2.9-0.4,4.4,0.3l0.6,0.3l0.2-0.5l-5.9-2.6l-2.3,5.2C728.3,585.9,729.2,585,730.5,584.5z"
		/>
	<path class="st5" d="M727.2,587.6l0.1,0c0.1-0.2,0.2-0.3,0.3-0.5l2.3-5.2l-0.2-0.1L727.2,587.6z"/>
	<path class="st5" d="M268.1,538.2c0-7.5-6.1-13.5-13.5-13.5s-13.5,6.1-13.5,13.5c0,7.5,6.1,13.5,13.5,13.5S268.1,545.6,268.1,538.2
		z"/>
	
		<ellipse transform="matrix(0.3827 -0.9239 0.9239 0.3827 -18.3099 1016.9941)" class="st5" cx="751.9" cy="522.2" rx="13.5" ry="13.5"/>
	<path class="st5" d="M725.9,274.1c-60.4-60.4-140.6-93.6-225.9-93.6c-85.3,0-165.6,33.2-225.9,93.6
		c-60.4,60.4-93.6,140.6-93.6,225.9c0,85.3,33.2,165.6,93.6,225.9c60.4,60.4,140.6,93.6,225.9,93.6c85.3,0,165.6-33.2,225.9-93.6
		c60.4-60.4,93.6-140.6,93.6-225.9C819.5,414.7,786.3,334.4,725.9,274.1z M500,803.7c-167.4,0-303.7-136.2-303.7-303.7
		c0-167.4,136.2-303.7,303.7-303.7S803.7,332.6,803.7,500C803.7,667.4,667.4,803.7,500,803.7z"/>
	<path class="st1" d="M450.9,481.1c0.4-0.9,0.7-1.9,1.1-2.8l0.7-1.9c2.2-5.6,4.2-10.9,5.6-16.2c0.1-0.5-0.2-2.5-0.4-3.7
		c-0.1-0.9-0.2-1.8-0.3-2.6c-0.4-3.4-1-6.9-1.6-10.1c-1.8-9.9,1.8-19,10.6-27c1.4-1.2,2.6-2.5,3.9-3.7c-10,2.7-20.4,4.1-30.7,3.9
		c-1.7,21.1-8.6,41.7-20.5,59.8c2.2-0.2,4.5-0.3,6.8-0.3C434.9,476.3,443.3,478,450.9,481.1z"/>
	<path class="st2" d="M588.6,379.8c-0.7-0.6-1.4-1.2-2-1.8c0,0.6-0.1,1.2-0.1,1.8C587.1,379.8,587.9,379.8,588.6,379.8z"/>
	<path class="st2" d="M570.7,379.7c2.5,0,5.1,0,7.6,0c2.7,0,5.3,0,8,0c0-0.6,0.1-1.2,0.1-1.8c-12.9-11.1-28-19.6-44.7-24.6
		c-1.6,3.4-3.4,6.7-5.4,10C548.9,366.9,560.4,372.5,570.7,379.7z"/>
	<path class="st2" d="M570.7,379.7c-10.3-7.3-21.9-12.9-34.3-16.4c-3.5,5.7-7.6,11.2-12.2,16.4C539.7,379.7,555.2,379.7,570.7,379.7
		z"/>
	<path class="st3" d="M595.9,539.5l5.1,11.1c13-15.6,22.2-34.5,26.2-55.2c-3.8,1-7.7,1.9-11.7,2.5
		C611.8,513.2,605.1,527.3,595.9,539.5z"/>
	<path class="st3" d="M563.5,493.8c-1,0.7-2.1,1.3-3.2,1.8c-1.7,0.7-3.3,1.1-4.6,1.3c-0.1,0.3-0.2,0.5-0.4,0.7
		c-2,4.6-3.9,9.3-5.9,13.9c-0.5,1.2-1,2.3-1.4,3.5c7.4,0.1,14.8,0.1,22.2,0.1c8.9,0,17.1,5.3,20.8,13.4l5,10.9
		c9.2-12.2,15.9-26.3,19.6-41.6c-5.6,0.9-11.4,1.3-17.3,1.3C586.1,499.3,574.4,497.4,563.5,493.8z"/>
	<path class="st4" d="M618.6,471.8c0,9-1.1,17.8-3.1,26.2c4-0.6,7.9-1.4,11.7-2.5c1.5-7.7,2.3-15.7,2.3-23.8c0-4.4-0.2-8.8-0.7-13.2
		c-3.7,0.1-7.3,0.1-11,0.2C618.3,463,618.6,467.3,618.6,471.8z"/>
	<path class="st4" d="M574.4,475.3c-0.6,0-1.2,0.1-1.8,0.1c0,1.9-0.1,3.8-0.6,5.7c-1.2,5.3-4.3,9.8-8.5,12.7
		c10.9,3.6,22.6,5.5,34.7,5.5c5.9,0,11.7-0.5,17.3-1.3c2-8.4,3.1-17.2,3.1-26.2c0-4.5-0.3-8.8-0.8-13.2c-2.5,0-5,0.1-7.6,0.1
		C600.6,468.8,588.5,474.3,574.4,475.3z"/>
	<path class="st5" d="M489.7,360.3c1-4,2.2-7.9,3.6-11.6c-21.5,2.2-41.4,9.9-58.3,21.7c1.1,3.9,2.1,7.7,2.9,11.7
		C452.7,370.8,470.4,363.1,489.7,360.3z"/>
	<path class="st5" d="M439.9,416.9c10.3,0.1,20.6-1.2,30.7-3.9c4.5-4.6,8.2-9.3,11-14.1c1.5-2.6,3.2-4.9,5-7
		c-0.1-1.4-0.1-2.8-0.1-4.2c0-9.4,1.2-18.5,3.3-27.2c-19.3,2.8-37,10.5-51.8,21.8C440.1,393.6,440.8,405.3,439.9,416.9z"/>
	<path class="st5" d="M505.9,359.1c10.6,0,20.8,1.5,30.5,4.2c2-3.3,3.8-6.6,5.4-10c-11.4-3.4-23.4-5.3-35.9-5.3
		c-4.3,0-8.5,0.2-12.6,0.6c-1.4,3.8-2.6,7.7-3.6,11.6C495,359.6,500.4,359.1,505.9,359.1z"/>
	<path class="st5" d="M486.5,391.7c6.8-7.9,16-12,26.8-12c3.7,0,7.3,0,11,0c4.6-5.1,8.7-10.6,12.2-16.4c-9.7-2.7-19.9-4.2-30.5-4.2
		c-5.5,0-10.9,0.4-16.2,1.2c-2.2,8.7-3.3,17.8-3.3,27.2C486.4,388.9,486.4,390.3,486.5,391.7z"/>
	<path class="st6" d="M393.5,479c-3.9-2.3-7.6-4.8-11.2-7.5c0,0.1,0,0.1,0,0.2c0,6.8,0.6,13.4,1.6,19.8c3.1-2.6,6.5-4.9,10.1-6.9
		C393.8,482.8,393.7,480.9,393.5,479z"/>
	<path class="st6" d="M393.5,479c0.1,1.9,0.3,3.8,0.5,5.6c1.6-0.9,3.3-1.7,5-2.5C397.2,481.1,395.4,480.1,393.5,479z"/>
	<path class="st6" d="M393.3,471.8c0-21.7,6.2-42,16.9-59.3c-3.6-1-7.2-2.2-10.7-3.6c-10.8,18.3-17.1,39.7-17.1,62.6
		c3.6,2.7,7.3,5.2,11.2,7.5C393.4,476.6,393.3,474.2,393.3,471.8z"/>
	<path class="st6" d="M419.4,476.7c11.9-18.1,18.8-38.7,20.5-59.8c-10-0.1-20-1.6-29.7-4.3c-10.7,17.2-16.9,37.5-16.9,59.3
		c0,2.4,0.1,4.8,0.3,7.2c1.8,1.1,3.7,2.1,5.5,3.1C405.4,479.3,412.2,477.4,419.4,476.7z"/>
	<path class="st7" d="M437.9,382.1c-0.8-3.9-1.7-7.8-2.9-11.7c-14.4,10.1-26.6,23.2-35.6,38.5c3.5,1.4,7.1,2.6,10.7,3.6
		C417.5,400.8,426.9,390.4,437.9,382.1z"/>
	<path class="st7" d="M437.9,382.1c-11,8.4-20.4,18.7-27.7,30.4c9.7,2.8,19.7,4.2,29.7,4.3C440.8,405.3,440.1,393.6,437.9,382.1z"/>
	<path class="st8" d="M407.2,526c-4.1-7.5-7.4-15.5-9.8-23.9c-0.9,0.8-1.8,1.6-2.7,2.4c-2.1,1.8-4.2,3.4-6.4,5
		c3.2,9.9,7.6,19.3,13.1,28l4.8-9.7C406.5,527.2,406.9,526.6,407.2,526z"/>
	<path class="st8" d="M427.4,515c3.3,0.1,7.1,0.1,10.3,0.2c2.1-5.5,4.2-10.9,6.4-16.4c0.3-0.8,0.6-1.7,1-2.5
		c-11.8-1.3-23.2-4.2-33.8-8.5c-4.2,5-8.7,9.8-13.8,14.3c2.4,8.4,5.6,16.4,9.8,23.9C411.5,519.1,419.2,514.8,427.4,515z"/>
	<path class="st8" d="M426.2,476.3c-2.3,0-4.6,0.1-6.8,0.3c-2.5,3.8-5.2,7.5-8.2,11.1c10.6,4.3,22,7.2,33.8,8.5
		c2-5.1,3.9-10.1,5.9-15.2C443.3,478,434.9,476.3,426.2,476.3z"/>
	<path class="st8" d="M397.4,502.1c-1.6-5.6-2.7-11.5-3.4-17.4c-3.6,2-6.9,4.3-10.1,6.9c1,6.2,2.5,12.2,4.3,18
		c2.2-1.6,4.3-3.3,6.4-5C395.6,503.7,396.5,502.9,397.4,502.1z"/>
	<path class="st8" d="M411.2,487.8c-4.2-1.7-8.2-3.6-12.1-5.7c-1.7,0.8-3.4,1.6-5,2.5c0.7,6,1.8,11.8,3.4,17.4
		C402.5,497.6,407.1,492.8,411.2,487.8z"/>
	<path class="st8" d="M399.1,482.1c3.9,2.1,8,4,12.1,5.7c3-3.6,5.7-7.3,8.2-11.1C412.2,477.4,405.4,479.3,399.1,482.1z"/>
	<path class="st9" d="M410.4,598c-3,0-5.4,2.4-5.4,5.4v5.3c0,3,2.4,5.4,5.4,5.4H584c3,0,5.4-2.4,5.4-5.4v-5.3c0-3-2.4-5.4-5.4-5.4
		H410.4z"/>
	<path class="st9" d="M589.4,639.7v-2c0-5.2-4.2-9.5-9.5-9.5H414.5c-5.2,0-9.5,4.2-9.5,9.5v2H589.4z"/>
	<rect x="405" y="639.7" class="st9" width="184.4" height="10.5"/>
	<path class="st5" d="M566,557.1h-75c-0.1,0.3-0.1,0.5-0.2,0.8h73.6c1.5,0,2.8-1.2,2.8-2.8v-5.4c0-1.5-1.2-2.8-2.8-2.8h-5
		c1,0,2.1,0.2,2.5,0.7C564.2,550.1,565.9,552.9,566,557.1z"/>
	<path class="st5" d="M451.3,547.8l0,0.2c0.2,0,0.4-0.1,0.6-0.1C451.7,547.8,451.5,547.8,451.3,547.8z"/>
	<path class="st5" d="M453.1,557.9h12.7c0-0.3,0-0.5,0-0.8h-12.8L453.1,557.9z"/>
	<path class="st5" d="M435.7,557.5l-1.4-1.9C434.5,556.4,435,557.1,435.7,557.5z"/>
	<path class="st5" d="M465.7,557.1c0,0.3,0,0.5,0,0.8h25.1c0.1-0.3,0.1-0.5,0.2-0.8H465.7z"/>
	<path class="st5" d="M437,557.9h16l-0.1-0.8h-11.5c-0.6-5.5,0.2-6.8,5-8c1.6-0.4,3.3-0.8,4.9-1.1l0-0.2c-1.6-0.2-3-0.5-4.2-0.8h-10
		c-1.5,0-2.8,1.2-2.8,2.8v5.4c0,0.2,0,0.3,0,0.5l1.4,1.9C436.1,557.8,436.6,557.9,437,557.9z"/>
	<path class="st6" d="M473.6,496.3c0.2,0.2,0.4,0.4,0.6,0.7l0.3-0.8C474.2,496.2,473.9,496.2,473.6,496.3z"/>
	<path class="st6" d="M473,486.3c-0.9,2.3-1.8,4.6-2.7,6.9c1.1,1,2.2,2,3.2,3.1c0.3,0,0.6-0.1,0.9-0.1l2.5-6.3
		c0.7-1.8,2.7-2.9,4.7-2.4c0.3,0.1,0.5,0.2,0.7,0.3c0.5-0.8,1-1.7,1.5-2.5c-1.8-0.3-3.1-1.9-3.1-3.8c0-2.1,1.7-3.9,3.9-3.9
		c1.3,0,2.4,0.6,3.1,1.6c0.4-0.6,0.9-1.3,1.3-1.9c-0.4-0.2-0.9-0.5-1.3-0.7c-2.8-1.8-5.1-4.5-6.4-7.7c-0.3-0.7-0.7-1.2-1.2-1.9
		c-0.1-0.1-0.2-0.3-0.4-0.4c-1.7,6.2-3.9,12.1-6.1,17.7L473,486.3z"/>
	<path class="st6" d="M520.5,481.4c-4.5,2.5-9.2,4.7-14.1,6.6c0,0.1,0,0.2,0,0.3c0,2.1-1.7,3.9-3.9,3.9c-1.3,0-2.4-0.6-3.1-1.6
		c-5.1,1.7-10.4,3.1-15.8,4.2l-3.7,9.1c2.6,3.6,4.8,7.5,6.7,11.5l7-16.6c0.7-1.6,2.3-2.6,4.1-2.5c2.6,0.3,4.2,3,3.3,5.4l-10.4,24.7
		c1.3,5.2,2,10.7,2,16.3c0,1.4-0.1,2.8-0.2,4.3h20.9c0.4-1,0.8-2,1.2-2.9c0.8-1.9,1.5-3.7,2.3-5.6c0.2-0.6,0.5-1.2,0.7-1.8l-3.2-0.1
		l8.1-19.1c1.2-2.9,2.4-5.7,3.5-8.4c0.9-2.1,1.7-4.1,2.6-6.2c2-4.7,4-9.5,6-14.2c0-0.1,0.1-0.2,0.1-0.3c-0.2-0.2-0.4-0.4-0.7-0.6
		c-0.1,0-0.1-0.1-0.2-0.1c-0.4-0.2-0.8-0.5-1.2-0.7c0,0,0,0,0,0C528.6,485.1,524.6,483.3,520.5,481.4z M518.2,509.1L505,541.3
		c-0.6,1.5-2,2.4-3.6,2.4c-2.8,0-4.7-2.8-3.7-5.4l13.2-32.2c0.7-1.6,2.3-2.6,4.1-2.5C517.6,503.9,519.2,506.6,518.2,509.1z
		 M519.4,499.9c-2.1,0-3.9-1.7-3.9-3.9c0-2.1,1.7-3.9,3.9-3.9c2.1,0,3.9,1.7,3.9,3.9C523.2,498.2,521.5,499.9,519.4,499.9z"/>
	<path class="st6" d="M488.5,481.5c0,2.1-1.7,3.9-3.9,3.9c-0.3,0-0.5,0-0.7-0.1c-0.5,0.8-1,1.6-1.5,2.5c1.9,0.9,2.7,3.2,1.9,5.2
		l-0.7,1.8c5.4-1.1,10.7-2.5,15.8-4.2c-0.5-0.6-0.7-1.4-0.7-2.3c0-2.1,1.7-3.9,3.9-3.9c2,0,3.7,1.6,3.8,3.6
		c4.8-1.9,9.6-4.1,14.1-6.6c-2.7-1.3-5.4-2.5-8.1-3.8c-0.9-0.4-1.7-0.7-2.6-0.8c-1.3-0.2-2.7-0.1-4.3,0.6c-2.7,1.2-5.3,1.8-7.8,1.9
		c-1.9,0.1-3.7-0.1-5.3-0.6c-1.2-0.3-2.3-0.8-3.4-1.3c-0.4,0.6-0.9,1.3-1.3,1.9C488.3,479.9,488.5,480.6,488.5,481.5z"/>
	<path class="st6" d="M466.8,533.4c-0.5,0.2-1,0.3-1.5,0.3c-2.8,0-4.7-2.8-3.7-5.4l12.6-31.3c-0.2-0.2-0.4-0.4-0.6-0.7
		c-1.5,0.2-3.1,0.3-4.6,0.4c-1.3,3.4-2.6,6.9-4,10.3c-2.7,7-5.4,13.9-8.1,20.9c-1.3,3.5-3.5,6.1-6.3,7.8c-0.1,1.3,0.7,2.7,2,3.1
		c1.4,0.5,2.8,1,4.3,1.5c2,0.7,3.9,1.4,5.9,2.1c1,0.4,2,0.7,3.1,1.1C466,540.1,466.4,536.7,466.8,533.4z"/>
	<path class="st6" d="M470.4,493.2c-0.5,1.2-0.9,2.3-1.4,3.5c1.5-0.1,3.1-0.3,4.6-0.4C472.6,495.2,471.5,494.2,470.4,493.2z"/>
	<path class="st6" d="M466.8,533.4c-0.5,3.4-0.8,6.8-1,10.2c0.3,0.1,0.7,0.2,1,0.4c1.7,0.6,3.4,1.2,5,1.8c1,0.3,1.9,0.7,2.9,1
		c0.2,0.1,0.5,0.2,0.7,0.2h17c0.1-1.4,0.2-2.8,0.2-4.3c0-5.6-0.7-11.1-2-16.3l-5.4,12.9c-0.6,1.5-2,2.4-3.6,2.4
		c-2.8,0-4.7-2.9-3.6-5.5l8.8-20.9c-1.9-4.1-4.1-7.9-6.7-11.5l-11,27.4C468.6,532.2,467.8,533,466.8,533.4z"/>
	<path class="st6" d="M473,486.3l0.7-1.9c2.2-5.7,4.4-11.5,6.1-17.7c-0.4-0.5-0.9-1-1.4-1.6c-2.4,6.1-4.8,12.1-7.2,18.2
		c-1.1,2.7-2.1,5.4-3.2,8c0.8,0.6,1.6,1.3,2.3,2C471.3,490.9,472.2,488.6,473,486.3z"/>
	<path class="st6" d="M534.7,488.4c0,0.1-0.1,0.2-0.1,0.3c-2,4.7-4,9.5-6,14.2c-0.9,2.1-1.7,4.1-2.6,6.2c-1.1,2.7-2.3,5.5-3.5,8.4
		l-8.1,19.1l3.2,0.1c0.8-1.9,1.5-3.7,2.3-5.6c1.3-3.4,2.7-6.9,4-10.3c0.3-0.7,0.5-1.3,0.8-2c1.1-2.8,2.2-5.6,3.3-8.4
		c0.3-0.7,0.5-1.4,0.8-2.1c1.5-4,3.1-8,4.7-12c0.6-1.6,1.2-3.2,1.9-4.8C535.7,490.4,535.4,489.2,534.7,488.4z"/>
	<path class="st6" d="M456.9,527.9c2.7-7,5.4-13.9,8.1-20.9c1.3-3.4,2.7-6.9,4-10.3c-1.1,0.1-2.2,0.2-3.2,0.2
		c-0.4,1.1-0.9,2.2-1.3,3.3c-0.8,2.1-1.7,4.2-2.5,6.3c-1.6,3.9-3.2,7.9-4.7,11.8c-0.9,2.3-1.8,4.7-2.7,7c-1.3,3.2-2.5,6.5-3.8,9.7
		c-0.1,0.2-0.1,0.4-0.1,0.6C453.4,534,455.6,531.3,456.9,527.9z"/>
	<path class="st6" d="M468.1,491.2c-0.8,1.9-1.5,3.8-2.3,5.7c1.1-0.1,2.2-0.2,3.2-0.2c0.5-1.2,0.9-2.3,1.4-3.5
		C469.6,492.5,468.8,491.8,468.1,491.2z"/>
	<path class="st5" d="M512.8,548.4c-0.2,0.6-0.5,1.1-0.8,1.4C512.3,549.4,512.6,549,512.8,548.4c0.2-0.5,0.4-0.9,0.6-1.4l0,0
		C513.2,547.5,513,547.9,512.8,548.4z"/>
	<path class="st5" d="M511.9,549.8c-0.3,0.3-0.7,0.5-1.2,0.5C511.2,550.2,511.6,550.1,511.9,549.8z"/>
	<path class="st5" d="M475.4,547L475.4,547c2.3,0.8,4.7,1.6,7,2.4c0.7,0.2,1.5,0.4,2.3,0.6c-0.8-0.1-1.6-0.3-2.3-0.6
		C480.1,548.6,477.8,547.8,475.4,547z"/>
	<path class="st5" d="M489.6,550.4c-1.2,0-2.4-0.1-3.6-0.2C487.1,550.3,488.4,550.4,489.6,550.4z"/>
	<path class="st5" d="M509.4,550.4c0.2,0,0.5,0,0.7,0c0.3,0,0.5,0,0.7-0.1c0.5-0.1,0.9-0.3,1.2-0.5c0,0,0,0,0,0
		c0.3-0.3,0.6-0.8,0.8-1.4c0.2-0.5,0.4-0.9,0.6-1.4h-20.9c-0.1,1.2-0.2,2.3-0.3,3.4C497.9,550.5,503.6,550.1,509.4,550.4z"/>
	<path class="st5" d="M482.5,549.4c0.7,0.2,1.5,0.4,2.3,0.6c0.4,0.1,0.8,0.1,1.2,0.2c1.2,0.1,2.4,0.2,3.6,0.2c0.4,0,0.8,0,1.3,0
		c0.4,0,0.8,0,1.2,0c0,0,0.1,0,0.1,0c0.1-1.1,0.2-2.3,0.3-3.4h-17C477.8,547.8,480.1,548.6,482.5,549.4z"/>
	<rect x="400" y="616.5" class="st5" width="194.4" height="10.7"/>
	<path class="st5" d="M528.6,593.1h65.7l0.1-2.6l-0.9-1.9l-49,0.5C539.3,590.8,534,592.1,528.6,593.1z"/>
	<path class="st5" d="M483.3,593.1c-3.7-0.7-7.4-1.6-11.1-2.6c-0.2,0-0.4-0.1-0.5-0.1c-0.7-0.2-1.4-0.4-2.1-0.6l-69.5,0.7l0.5,2.7
		H483.3z"/>
	<path class="st5" d="M481.4,468.9c1.3,3.2,3.6,5.8,6.4,7.7c0.4,0.3,0.8,0.5,1.3,0.7c1.4-1.9,2.8-3.8,4.3-5.7h-0.8l-7.9-10.3
		l-3.9-2.3c0.1,2.1-0.1,4.3-0.7,6.6c-0.1,0.3-0.2,0.6-0.3,0.9c0.1,0.1,0.2,0.3,0.4,0.4C480.7,467.7,481.2,468.3,481.4,468.9z"/>
	<path class="st5" d="M472.3,590.5c3.6,1,7.3,1.9,11.1,2.6h45.2c5.4-1,10.7-2.4,15.9-4.1l-71.4,0.7
		C472.8,590,472.5,590.3,472.3,590.5z"/>
	<path class="st5" d="M514.6,544.1c-0.4,1-0.8,1.9-1.2,2.9h46.1c-0.2,0-0.4,0-0.5,0c-10.5-0.2-21-0.4-31.6-0.6
		c-1.3,0-2.7-0.2-4.6-0.4c1.3-3.2,2.5-6.2,3.7-9.1l-8.9-0.3c-0.2,0.6-0.5,1.2-0.7,1.8C516.1,540.3,515.3,542.2,514.6,544.1z"/>
	<path class="st5" d="M520.5,481.4c4,1.9,8.1,3.8,12.1,5.7c0,0,0,0,0,0c0.4,0.2,0.8,0.4,1.2,0.7c0,0,0.1,0,0.1,0.1c0,0,0,0,0,0
		c0.3,0.2,0.5,0.3,0.8,0.5c1.1-2.4,2.4-4.5,3.6-6.3c-3-1.9-5.9-3.9-8.7-6.1C526.7,477.8,523.7,479.7,520.5,481.4z"/>
	<path class="st5" d="M518.4,471.6h-25c-1.5,1.9-2.9,3.8-4.3,5.7c1.1,0.6,2.2,1,3.4,1.3c1.7,0.5,3.5,0.7,5.3,0.6
		c2.5-0.1,5.1-0.7,7.8-1.9c1.5-0.7,2.9-0.8,4.3-0.6c0.9,0.1,1.7,0.4,2.6,0.8c2.7,1.3,5.4,2.5,8.1,3.8c3.1-1.7,6.2-3.6,9.1-5.5
		c-2.4-1.9-4.8-3.9-7-5.9L518.4,471.6z"/>
	<path class="st5" d="M548.1,475.1c0.3-0.1,0.6-0.1,0.9-0.2c-0.4-0.4-1-0.9-1.5-1.4c-0.7-0.6-1.4-1.2-2.1-1.9l-4.5-4.2
		c-3.6,3-7.3,5.8-11.2,8.4c2.8,2.2,5.7,4.2,8.7,6.1c0.1-0.2,0.2-0.4,0.4-0.5C540.8,478.3,544.4,475.8,548.1,475.1z"/>
	<path class="st5" d="M572.8,452.8c5.8-0.4,10.8-2,15.3-4.9l-22.6,5.2C567.9,453.2,570.3,453,572.8,452.8z"/>
	<path class="st5" d="M522.6,469.9c2.3,2.1,4.6,4.1,7,5.9c3.9-2.6,7.6-5.4,11.2-8.4l-3.7-3.5L522.6,469.9z"/>
	<path class="st5" d="M469.6,589.8c0.7,0.2,1.4,0.4,2.1,0.6c-0.1-0.2-0.1-0.4-0.2-0.6L469.6,589.8z"/>
	<path class="st5" d="M439,540.6l1.8,0.9l0,0l8.5,4.1c0.8-1.6,1-3.3,0.8-4.8l1.1,6.2h14.5c0-1.1,0.1-2.3,0.2-3.4
		c-1-0.4-2-0.7-3.1-1.1c-1.9-0.7-3.9-1.4-5.9-2.1c-2.4-0.9-4.7-1.7-7.2-2.6c0.3-0.7,0.5-1.3,0.8-2c-0.6,0.4-1.3,0.7-2,1
		c-0.1-0.2-0.2-0.3-0.3-0.5l-1.6,1.1c-1.4,0.3-2.9,0.5-4.5,0.4c-0.6,0-1.2,0-1.9,0c-0.3,0.8-0.7,1.5-1,2.2
		C439.1,540.2,439,540.4,439,540.6z"/>
	<path class="st5" d="M471.5,589.8c0.1,0.2,0.1,0.4,0.2,0.6c0.2,0.1,0.4,0.1,0.5,0.1c0.3-0.3,0.6-0.5,0.8-0.8L471.5,589.8z"/>
	<path class="st5" d="M474.7,546.7c-1-0.3-1.9-0.7-2.9-1c-1.7-0.6-3.4-1.2-5-1.8c-0.3-0.1-0.6-0.2-1-0.4c-0.1,1.1-0.1,2.3-0.2,3.4
		h9.8C475.2,546.9,474.9,546.8,474.7,546.7z"/>
	<path class="st5" d="M604.9,586.4c0.4,0.9,0.6,1.9,0.7,2.8c0-1.2-0.2-2.3-0.8-3.5l-12-26.3c-0.1,0.1-0.1,0.1-0.2,0.2L604.9,586.4z"
		/>
	<path class="st5" d="M408.7,547.9c-0.1-0.1-0.2-0.2-0.2-0.3l-18.9,37.8c-0.8,1.5-1,3.1-0.9,4.6c0-1.3,0.3-2.6,0.9-3.9L408.7,547.9z
		"/>
	<path class="st5" d="M388.7,591.7h0.2c0-0.2-0.1-0.5-0.1-0.7h-0.1v60.2c0,0.1,0,0.2,0,0.3V591.7z"/>
	<path class="st5" d="M589.4,651v0.2c0,0.1,0,0.2,0,0.3L589.4,651L589.4,651z"/>
	<path class="st5" d="M643.6,442.1c0-0.2,0-0.4,0-0.6c-0.1-1-0.6-1.9-1.5-2.6c-0.1,0.1-0.2,0.3-0.3,0.4
		C642.8,440.1,643.5,441.1,643.6,442.1z"/>
	<path class="st5" d="M611.9,391c8.4,0,16.8,0.1,25.2,0.1c0.8,0,1.5,0.1,2.3,0.2c2.2,0.2,3.8,1.2,4.1,3.4c0-0.1,0-0.2,0-0.4
		c-0.2-2.4-1.9-3.5-4.2-3.7c-0.8-0.1-1.5-0.2-2.3-0.2c-8.4,0-16.8-0.1-25.2-0.1c-4.3,0-8.6,0-12.9,0c0.2,0.2,0.4,0.5,0.6,0.7
		C603.7,391,607.8,391,611.9,391z"/>
	<path class="st5" d="M474.2,425c5.4-4.8,10.2-10.2,14.2-16.1c0-0.2-0.1-0.4-0.1-0.6c-4,5.9-8.8,11.2-14.2,16
		c-4.8,4.3-7.7,9-7.3,14.7C466.8,433.5,469.6,429.1,474.2,425z"/>
	<path class="st5" d="M469.2,462.9c0.4-1.4,0.4-2.8,0.3-4.3c0,1.2,0,2.4-0.3,3.5c-1.7,6.6-4.2,13-6.7,19.4c-0.6,1.5-1.2,3-1.7,4.5
		c0.1,0.1,0.2,0.1,0.2,0.2c0.5-1.3,1-2.6,1.5-3.9C465,475.9,467.5,469.5,469.2,462.9z"/>
	<path class="st5" d="M599.6,391c-0.2-0.2-0.4-0.5-0.6-0.7c-4.6,0-9.2,0-13.8,0c0,0.2-0.1,0.5-0.1,0.7
		C589.9,391,594.7,391,599.6,391z"/>
	<path class="st5" d="M584.3,391c0.2,0,0.4,0,0.7,0c0-0.2,0.1-0.5,0.1-0.7c-0.5,0-1,0-1.5,0C583.8,390.5,584.1,390.8,584.3,391z"/>
	<path class="st5" d="M490.8,405.2c-0.2,0.1-0.4,0.2-0.7,0.3c-0.6,0.9-1.2,1.8-1.8,2.7c0,0.2,0.1,0.4,0.1,0.6
		C489.2,407.7,490,406.5,490.8,405.2z"/>
	<path class="st5" d="M512.5,391c0.2,0,0.5,0,0.7,0c10.9,0,21.7,0,32.6,0c12.8,0,25.7,0,38.5,0c-0.3-0.2-0.5-0.5-0.8-0.7
		c-12.6,0-25.2,0-37.8,0c-10.8,0-21.6,0-32.4,0c-0.2,0.1-0.3,0.3-0.5,0.4C512.8,390.8,512.6,390.9,512.5,391z"/>
	<path class="st5" d="M587.8,549l4.8,10.6c0.1-0.1,0.1-0.1,0.2-0.2l-4.8-10.6C588,548.9,587.9,549,587.8,549z"/>
	<path class="st5" d="M570,525.7c-8,0-16-0.1-24-0.1c-4.7,0-9.3-0.3-14.5-0.4c-0.1,0.2-0.2,0.5-0.3,0.7c5.4,0.2,10.1,0.4,14.9,0.4
		c8,0.1,16,0.1,24,0.1c4.6,0,8.7,2.7,10.6,6.9l7.2,15.7c0.1-0.1,0.1-0.1,0.2-0.2l-7.4-16.3C578.7,528.4,574.6,525.7,570,525.7z"/>
	<path class="st5" d="M558.6,468.7c1.6,1.9,2.4,4.2,2.6,6.5c0-2.5-0.9-5.1-2.6-7.2c-1.3-1.6-2.9-2.9-4.5-4.3c-0.3-0.1-0.6-0.1-1-0.2
		C555,465.3,557,466.8,558.6,468.7z"/>
	<path class="st5" d="M491.2,403.6c-0.4,0.6-0.8,1.3-1.2,1.9c0.2-0.1,0.4-0.2,0.7-0.3c0.2-0.3,0.4-0.6,0.5-0.9
		c5.1-8.9,12.3-13.1,21.2-13.3c0.1-0.1,0.3-0.2,0.4-0.3c0.2-0.1,0.3-0.3,0.5-0.4c-0.1,0-0.1,0-0.2,0
		C504,390.3,496.5,394.5,491.2,403.6z"/>
	<path class="st5" d="M414.2,537c-0.1-0.1-0.2-0.2-0.2-0.3l-5.4,10.9c0.1,0.1,0.2,0.2,0.2,0.3L414.2,537z"/>
	<path class="st5" d="M416.3,532.8c2.1-4.1,6.3-6.7,10.9-6.6c5.2,0.1,11.8,0.2,15.2,0.3c2.1,0.1,3.2-0.6,4-2.7
		c3.4-9,6.9-17.9,10.4-26.8c-0.1,0-0.2,0-0.3,0c-3.4,8.7-6.8,17.4-10.1,26.1c-0.8,2.1-1.9,2.7-4,2.7c-3.5-0.1-10.1-0.2-15.2-0.3
		c-4.6-0.1-8.8,2.5-10.9,6.6l-2.3,4.6c0.1,0.1,0.2,0.2,0.2,0.3L416.3,532.8z"/>
	<path class="st5" d="M439.2,540.7c-0.1,0.3-0.2,0.5-0.3,0.7c0,0.2,0,0.3,0.1,0.5C439,541.5,439,541,439.2,540.7z"/>
	<path class="st5" d="M460.7,486c-1.4,3.7-2.8,7.3-4.3,11c0.1,0,0.2,0,0.3,0c1.4-3.6,2.8-7.2,4.2-10.9
		C460.9,486.1,460.8,486.1,460.7,486z"/>
	<path class="st5" d="M592.7,559.6c-1.4,1.4-2.9,2.8-4.4,4.2l9,24.8l-3.8,0l0.9,1.9l-0.1,2.6h3v23.4h-2.8v10.7h2.8v24
		c0,2.5-2,4.4-4.4-1h-3.4v0.7h0v0.6c0.2,2.3,2.1,4.1,4.4,4.1h7.4c2.5,0,4.4-2,4.4-4.4v-61.5h0c0-0.2,0-0.3,0-0.5
		c-0.1-0.9-0.3-1.9-0.7-2.8L592.7,559.6z"/>
	<path class="st5" d="M635.8,441.5l-10,0c0.4,1.7,0.8,3.4,1.2,5.1c3.9-0.1,7.8-0.1,11.7-0.2c3.1-0.1,4.9-1.7,4.9-4.2
		c-0.1-1-0.8-2-1.7-2.8c0.1-0.1,0.2-0.3,0.3-0.4c-0.1-0.1-0.2-0.2-0.3-0.3C640.4,440.4,638.3,441.5,635.8,441.5z"/>
	<path class="st5" d="M639.3,391.3c-0.8-0.1-1.5-0.2-2.3-0.2c-8.4,0-16.8-0.1-25.2-0.1c-4.1,0-8.2,0-12.3,0c0.9,1.1,1.9,2.2,2.8,3.3
		h33.4c2.5,0,4.7,1.2,6.1,3.1c0.9-0.7,1.5-1.7,1.5-2.7C643.1,392.5,641.5,391.5,639.3,391.3z"/>
	<path class="st5" d="M393.1,655.7h7.4c2.5,0,4.4-2,4.4-4.4v-1h-4c-2.5,5.4-4.4,3.4-4.4,1v-24h3.4v-10.7h-3.4v-23.4h4.1l-0.5-2.7
		l-0.7,0l15.5-35.3c-2.2-2.3-4.2-4.8-6.2-7.3l-19.1,38.2c-0.6,1.3-0.9,2.6-0.9,3.9c0,0.3,0.1,0.7,0.1,1h-0.1c0,0.2,0,0.5,0.1,0.7
		h-0.2v59.8C388.9,653.8,390.8,655.7,393.1,655.7z"/>
	<path class="st5" d="M478.5,465c0.5,0.6,0.9,1.1,1.4,1.6c0.1-0.3,0.2-0.6,0.3-0.9c0.6-2.3,0.8-4.6,0.7-6.6l-8.3-4.9v-20.6
		l16.9-20.4c-0.3-1.4-0.7-2.9-0.9-4.3c-4,5.9-8.9,11.3-14.2,16.1c-4.6,4.1-7.4,8.6-7.3,13.9c0,0.6,0.1,1.3,0.2,1.9
		c0.7,3.6,1.3,7.3,1.7,11c0.2,2.2,0.7,4.6,0.7,6.8c0.1,1.5,0,2.9-0.3,4.3c-1.7,6.6-4.2,13-6.7,19.4c-0.5,1.3-1,2.6-1.5,3.9
		c2.5,1.5,4.8,3.2,7.1,5c1.1-2.7,2.1-5.3,3.2-8C473.7,477.2,476.1,471.1,478.5,465z"/>
	<path class="st5" d="M587.6,394.3h14.7c-0.9-1.1-1.8-2.2-2.8-3.3c-4.9,0-9.7,0-14.6,0c0,0.2-0.1,0.4-0.1,0.5
		C585.8,392.5,586.7,393.4,587.6,394.3z"/>
	<path class="st5" d="M584.9,391.5c-0.2,0.9-0.3,1.9-0.5,2.8h3.2C586.7,393.4,585.8,392.5,584.9,391.5z"/>
	<path class="st5" d="M585,391c-0.2,0-0.4,0-0.7,0c0.2,0.2,0.4,0.4,0.6,0.5C584.9,391.4,585,391.2,585,391z"/>
	<path class="st5" d="M513.3,391c-0.3,0-0.5,0-0.7,0c-1.4,1.1-2.8,2.2-4.2,3.3h76c0.2-0.9,0.3-1.9,0.5-2.8c-0.2-0.2-0.4-0.4-0.6-0.5
		c-12.8,0-25.7,0-38.5,0C535,391,524.1,391,513.3,391z"/>
	<path class="st5" d="M489.4,413.2l11.2-13.5c-3.2,2-6.5,3.8-9.8,5.5c-0.7,1.2-1.5,2.5-2.3,3.7C488.7,410.3,489,411.8,489.4,413.2z"
		/>
	<path class="st5" d="M584.2,552.7l4,11.1c1.5-1.4,3-2.7,4.4-4.2l-4.8-10.6C586.7,550.3,585.4,551.5,584.2,552.7z"/>
	<path class="st5" d="M570.1,526.4c-8,0-16-0.1-24-0.1c-4.8,0-9.5-0.3-14.9-0.4c0.1-0.2,0.2-0.5,0.3-0.7c-0.1,0-0.2,0-0.3,0
		c1.9-4.6,3.6-8.5,5.2-12.4c2.8-6.8,5.6-13.5,8.5-20.3c0.8-1.8,1.8-3.5,2.9-5.1c-3.2-1.6-6.4-3.4-9.4-5.4c-1.2,1.8-2.5,3.9-3.6,6.3
		c0.5,0.3,1,0.6,1.4,0.9c-0.9,2.4-1.9,4.8-2.8,7.1c-1.6,4-3.1,8-4.7,12c-0.3,0.7-0.5,1.4-0.8,2.1c-1.1,2.8-2.2,5.6-3.3,8.4
		c-0.3,0.7-0.5,1.3-0.8,2c-1.3,3.4-2.7,6.9-4,10.3c-0.7,1.9-1.5,3.8-2.3,5.6l8.9,0.3c0.3-0.7,0.6-1.4,0.9-2c0.2-0.5,1.4-0.8,2.2-0.8
		c4.6,0,9.2,0,13.9,0c11.4,0,22.7,0,34.1,0.1l6.7,18.4c1.2-1.2,2.5-2.4,3.6-3.7l-7.2-15.7C578.8,529.1,574.6,526.4,570.1,526.4z"/>
	<path class="st5" d="M614.5,441.9c0.4,1.6,0.8,3.2,1.2,4.8c3.7-0.1,7.5-0.1,11.2-0.2c-0.4-1.7-0.7-3.4-1.2-5.1l-9.3,0L614.5,441.9z
		"/>
	<path class="st5" d="M588.1,448c-4.4,2.9-9.5,4.5-15.3,4.9c-2.5,0.2-4.9,0.3-7.3,0.4l-4.4,1l-10.6,4.3c-3.1,3.1-6.3,6.1-9.6,8.9
		l4.5,4.2c0.7,0.7,1.4,1.3,2.1,1.9c0.5,0.5,1,0.9,1.5,1.4c-0.3,0-0.6,0.1-0.9,0.2c-3.7,0.7-7.3,3.2-9.4,6.3
		c-0.1,0.2-0.2,0.4-0.4,0.5c3.1,1.9,6.2,3.7,9.4,5.4c0.1-0.1,0.2-0.2,0.2-0.4c0.5-0.7,1.5-1.4,2.3-1.5c1.8-0.4,3.7-0.1,5.3-0.8
		c3.7-1.6,5.6-5.5,5.6-9.4c-0.2-2.3-1-4.6-2.6-6.5c-1.6-1.9-3.6-3.4-5.5-5.2c0.3,0.1,0.6,0.1,1,0.2c-0.3-0.3-0.7-0.6-1-0.9
		c6.9,1.4,13.7,1.1,20.5,0.6c12.1-0.8,22.1-5.8,30.1-14.9c1.1-1.3,2.1-1.7,3.7-1.7c2.8,0,5.6-0.1,8.4-0.1c-0.4-1.6-0.8-3.2-1.2-4.8
		L588.1,448z"/>
	<path class="st5" d="M540.9,467.5c3.4-2.8,6.6-5.8,9.6-8.9l-13.4,5.4L540.9,467.5z"/>
	<path class="st5" d="M505,394.3h3.3c1.4-1.1,2.8-2.2,4.2-3.3c-8.9,0.2-16.2,4.4-21.2,13.3c-0.2,0.3-0.4,0.6-0.5,0.9
		c3.3-1.7,6.6-3.5,9.8-5.5L505,394.3z"/>
	<path class="st5" d="M419.9,544.4c-2-2.4-3.9-4.8-5.7-7.4l-5.4,10.9c2,2.5,4,4.9,6.2,7.3l3.8-8.6
		C419.1,545.9,419.5,545.1,419.9,544.4z"/>
	<path class="st5" d="M440.5,542.9c3.3,1.1,6.6,2.5,9.7,4.1h0.9l-1.1-6.2c0.3,1.5,0,3.2-0.8,4.8l-8.5-4.1l0,0l-1.8-0.9
		c-0.1,0.3-0.1,0.5-0.1,0.8c0.1-0.2,0.2-0.5,0.3-0.7c-0.2,0.3-0.2,0.8-0.2,1.2c0,0,0,0.1,0,0.1C439.2,542.4,439.7,542.7,440.5,542.9
		z"/>
	<path class="st5" d="M425.4,534.4h4.4h11.7c-0.5,1.2-1,2.3-1.4,3.3c0.7,0,1.4,0,1.9,0c1.6,0,3.1-0.1,4.5-0.4l1.6-1.1
		c0.1,0.2,0.2,0.3,0.3,0.5c0.7-0.3,1.4-0.6,2-1c0.1-0.2,0.2-0.4,0.3-0.7c0-0.1,0-0.1,0-0.2c1.2-3.2,2.5-6.4,3.7-9.6
		c0.9-2.3,1.8-4.7,2.7-7c1.6-4,3.1-7.9,4.7-11.8c0.8-2.1,1.7-4.2,2.5-6.3c0.4-1.1,0.9-2.2,1.3-3.3c-2.2,0.1-4.4,0.2-6.6,0.2
		c-0.8,0-1.5,0-2.3-0.1c-3.5,8.9-7,17.9-10.4,26.8c-0.8,2.1-1.9,2.7-4,2.7c-3.5-0.1-10.1-0.2-15.2-0.3c-4.6-0.1-8.8,2.5-10.9,6.6
		l-2.1,4.2c1.8,2.5,3.7,5,5.7,7.4C421.8,541,423.6,537.7,425.4,534.4z"/>
	<path class="st5" d="M465.8,496.9c0.8-1.9,1.5-3.8,2.3-5.7c-2.2-1.8-4.6-3.5-7.1-5c-1.4,3.6-2.8,7.2-4.2,10.9
		c0.8,0,1.5,0.1,2.3,0.1C461.3,497.1,463.6,497,465.8,496.9z"/>
	<path class="st5" d="M505.9,595.2c-7.7,0-15.3-0.7-22.6-2.1h-82.6l2,9.9H400v13.5h194.4v-14.8h-0.6l0.4-8.6h-65.7
		C521.2,594.5,513.7,595.2,505.9,595.2z M589.4,603.3v5.3c0,3-2.4,5.4-5.4,5.4H410.4c-3,0-5.4-2.4-5.4-5.4v-5.3c0-3,2.4-5.4,5.4-5.4
		H584C586.9,598,589.4,600.4,589.4,603.3z"/>
	<path class="st5" d="M505.9,595.2c7.7,0,15.3-0.7,22.6-2.1h-45.2C490.7,594.5,498.2,595.2,505.9,595.2z"/>
	<polygon class="st5" points="594.4,601.7 594.4,616.5 597.2,616.5 597.2,593.1 594.3,593.1 593.8,601.7 	"/>
	<polygon class="st5" points="400,603 402.7,603 400.7,593.1 396.6,593.1 396.6,616.5 400,616.5 	"/>
	<path class="st5" d="M400,627.2v12.5h5v-2c0-5.2,4.2-9.5,9.5-9.5h165.4c5.2,0,9.5,4.2,9.5,9.5v2h5.1v-12.5H400z"/>
	<path class="st5" d="M400,639.7v-12.5h-3.4v24c0,2.5,2,4.4,4.4-1h4v-10.5H400z"/>
	<path class="st5" d="M589.4,639.7v10.5h3.4c2.5,5.4,4.4,3.4,4.4,1v-24h-2.8v12.5H589.4z"/>
	<path class="st5" d="M492.6,471.6h0.8c0.8-1.1,1.7-2.1,2.6-3.1c-0.1,0-0.3,0-0.3,0c-0.4,0-0.8-0.1-1.2-0.2c-3.9-1.1-5.7-4-4.9-7.1
		c0,0,0-0.1,0-0.1c0,0,0-0.1,0-0.1c0.1-0.3,0.2-0.5,0.3-0.8c1-2.4,3.3-4.4,5-6.4c2.1-2.6,4.5-5,7-7.3c0.3-0.3,0.6-0.5,0.9-0.8
		c-2.6-4.2-4.9-8.5-6.9-13c-0.5,0.5-1,1.1-1.6,1.6c-1.5,1.3-3.2,2.2-5.1,2.8c-2.5,0.8-2.8,1.1-1.7,3.9c1.1,2.8,1,5.4-0.6,7.9
		c-1.3,2-2.5,4.2-4.2,5.8c-0.5,0.4-1.3,0.5-2.2,0.5c0.2,1.3,0.3,2.6,0.3,4.1l3.9,2.3L492.6,471.6z"/>
	<path class="st5" d="M604.4,412.5c-0.8-1-2-1.1-3.2-0.7c1.5,2.4,2.9,4.8,4.2,7.2C605.6,416.8,605.6,414,604.4,412.5z"/>
	<path class="st5" d="M597.3,414.7c-1.7,2.8-0.2,5.8-0.5,8.8c2.6,0.1,5.3,0.2,7.9,0.4c0.2-0.9,0.4-1.8,0.5-2.8
		c0.1-0.6,0.2-1.4,0.2-2.2c-1.3-2.5-2.7-4.9-4.2-7.2C599.6,412.3,598,413.6,597.3,414.7z"/>
	<path class="st5" d="M517.7,432.4c4.9-5.4,10.5-10.2,15.5-15.6c1.7-1.9,3.4-3.7,5.1-5.6c0.6-0.6,1.1-2,0.8-2.6
		c-0.3-0.7-1.6-1.2-2.5-1.3c-4.9-0.5-8.7,1.5-11.7,5.5c-1.9,2.5-4,4.9-6.1,7.2c-2.7,2.9-4.2,2.9-7.2,0.5c-3.9-3.3-7.1-2.5-9,2.1
		c-0.7,1.6-1.4,3.2-2.4,4.7c-1.3,1.9-2.8,3.8-4.4,5.5c2,4.5,4.3,8.9,6.9,13C507.7,441.2,513.2,437.3,517.7,432.4z"/>
	<path class="st5" d="M513.6,460.6c-0.6,0.8-1.2,1.6-1.5,2.5c-0.7,2-1.9,2.6-3.4,3.1c-4.2,2.8-11.4,2.4-12.8,2.3
		c-0.9,1-1.7,2.1-2.6,3.1h25l4.2-1.7C519.5,467,516.4,463.9,513.6,460.6z"/>
	<path class="st5" d="M613.6,436.2c-0.3,0-0.5,0-0.8,0c0,0,0,0,0,0C613.1,436.2,613.3,436.2,613.6,436.2z"/>
	<path class="st5" d="M602.8,431.6c0.4-2.6,1.2-5.1,1.9-7.6c-2.6-0.2-5.2-0.4-7.9-0.4c0,0.1,0,0.2,0,0.3c-0.4,2.4-2.4,4.2-4.1,5.9
		c-2.6,2.6-5.4,4.8-8.6,6.6c-6.4,3.6-13,5.1-19.8,5.6c-2.6,3.7-5.3,7.3-8.3,10.7c3.1,0.6,6.2,0.7,9.5,0.7l22.6-5.2
		c2.6-1.6,4.9-3.7,7.1-6.2c3.2-3.6,7.2-5.5,12-5.5c1.8,0,3.7-0.1,5.5-0.1c0,0,0,0,0,0c-2.2-0.1-4.3-0.1-6.5-0.2
		C603.7,435.8,602.4,434.2,602.8,431.6z"/>
	<path class="st5" d="M544.3,440.8c-3.5-0.4-6-0.1-8.4,1.8c-2,1.5-4,3.1-6,4.6l25.5,5.3c0.2,0,0.4,0.1,0.6,0.1
		c2.9-3.4,5.7-7,8.3-10.7C557.7,442.3,551,441.6,544.3,440.8z"/>
	<path class="st5" d="M513.6,460.6c2.8,3.3,5.8,6.4,9,9.3l14.5-5.9L524,451.7c-2.5,2-5,3.9-7.4,6
		C515.6,458.5,514.5,459.5,513.6,460.6z"/>
	<path class="st5" d="M638.8,398.5c1.1,0,2.2-0.5,3-1.2c-1.4-1.9-3.6-3.1-6.1-3.1h-33.4c1.2,1.5,2.4,3,3.5,4.6
		C616.8,398.9,627.8,398.8,638.8,398.5z"/>
	<path class="st5" d="M635.8,441.5c2.4,0,4.6-1.1,6-2.9c-1-0.8-2.4-1.4-4.1-1.5c-3.4-0.3-6.8-0.4-10.2-0.5c-1,0-2.1-0.1-3.1-0.1
		c0.5,1.6,1,3.3,1.4,5L635.8,441.5z"/>
	<path class="st5" d="M480.5,455c-0.8,0-1.6-0.1-2.3-0.2c-0.4,0-0.9-1.3-1-2c-0.4-3.6-0.5-7.2-1.1-10.7c-0.8-5.7,1.6-10.1,6.5-14.4
		c3-2.6,5.7-5.5,8.3-8.6c-0.6-1.9-1.1-3.9-1.6-5.9l-16.9,20.4v20.6l8.3,4.9C480.8,457.6,480.6,456.3,480.5,455z"/>
	<path class="st5" d="M591.8,398.9c4.7,0,9.4,0,14.1,0c-1.1-1.6-2.3-3.1-3.5-4.6h-14.7C589,395.8,590.4,397.4,591.8,398.9z"/>
	<path class="st5" d="M591.8,398.9c-1.3-1.6-2.7-3.1-4.2-4.6h-3.2c-0.3,1.5-0.7,3.1-1,4.6C586.2,398.9,589,398.9,591.8,398.9z"/>
	<path class="st5" d="M489.4,413.2c0.5,2,1,4,1.6,5.9c2.9-3.6,5.6-7.4,7.9-11.4c3.6-6.1,8.6-9.1,15-9.1c21.8,0.1,43.6,0.3,65.3,0.3
		c1.4,0,2.8,0,4.2,0c0.4-1.5,0.7-3.1,1-4.6h-76c-2.6,1.9-5.2,3.7-7.8,5.4L489.4,413.2z"/>
	<path class="st5" d="M612.8,436.2c0.6,1.9,1.2,3.8,1.7,5.7l1.9-0.4l9.3,0c-0.4-1.7-0.9-3.3-1.4-5c-3.6-0.1-7.2-0.2-10.8-0.3
		C613.3,436.2,613.1,436.2,612.8,436.2z"/>
	<path class="st5" d="M595.2,441.8c-2.2,2.5-4.6,4.5-7.1,6.2l26.4-6.1c-0.5-1.9-1.1-3.8-1.7-5.7c-1.8,0-3.7,0.1-5.5,0.1
		C602.4,436.3,598.4,438.2,595.2,441.8z"/>
	<path class="st5" d="M556,452.5c-1.8,2.1-3.6,4.1-5.5,6l10.6-4.3l4.4-1C562.2,453.3,559.1,453.1,556,452.5z"/>
	<path class="st5" d="M555.4,452.4l-25.5-5.3c-2,1.5-3.9,3-5.8,4.6l13.1,12.3l13.4-5.4c1.9-1.9,3.7-3.9,5.5-6
		C555.8,452.5,555.6,452.5,555.4,452.4z"/>
	<path class="st5" d="M500.5,399.7c2.7-1.7,5.3-3.5,7.8-5.4H505L500.5,399.7z"/>
	<path class="st5" d="M458.6,585.8l-0.7,0l0.7,4.1l-2.9-4.1l-42.7-0.1c-3.5,0-6-3.6-4.6-6.9l8.7-21.3c-0.1-0.1-0.2-0.2-0.4-0.4
		l-16.6,33.3l0,0.1l69.5-0.7C465.9,588.6,462.2,587.3,458.6,585.8z"/>
	<path class="st5" d="M585.3,586.1l-32.6-0.1c-2.7,1.1-5.4,2.1-8.2,3l49-0.5l-3.2-7.1C590.1,584,588,586.1,585.3,586.1z"/>
	<path class="st5" d="M473.1,589.8l71.4-0.7c2.8-0.9,5.5-1.9,8.2-3l-76-0.2C475.5,587.2,474.3,588.5,473.1,589.8z"/>
	<path class="st5" d="M470.4,585.8l-11.8,0c3.6,1.5,7.3,2.8,11,4l1.9,0C471.1,588.5,470.7,587.2,470.4,585.8z"/>
	<path class="st5" d="M416.7,557.1c0.1,0.1,0.2,0.2,0.4,0.4l2.4-5.8L416.7,557.1z"/>
	<path class="st5" d="M471.5,589.8l1.6,0c1.3-1.2,2.4-2.6,3.6-3.9l-6.3,0C470.7,587.2,471.1,588.5,471.5,589.8z"/>
	<path class="st5" d="M416.7,557.1c-0.6-0.6-1.2-1.3-1.8-1.9l-15.5,35.3l0.7,0l0-0.1L416.7,557.1z"/>
	<polygon class="st5" points="458.7,589.9 458,585.8 455.8,585.8 	"/>
	<path class="st5" d="M589.9,579.1c0.3,0.8,0.5,1.6,0.4,2.4l3.2,7.1l3.8,0l-9-24.8c-1.2,1.1-2.4,2.1-3.6,3.1L589.9,579.1z"/>
	<path class="st5" d="M580.1,556.5l4.5,10.5c1.2-1,2.4-2.1,3.6-3.1l-4-11.1C582.9,554,581.5,555.2,580.1,556.5z"/>
	<path class="st5" d="M571.9,537.3l8.2,19.2c1.4-1.2,2.8-2.5,4.1-3.8l-6.7-18.4c-11.4-0.1-22.7-0.1-34.1-0.1c7.9,0,15.9,0,23.8,0.1
		C569.3,534.3,571.1,535.5,571.9,537.3z"/>
	<path class="st5" d="M419.5,551.7l2.1-5.3c-0.6-0.7-1.2-1.3-1.7-2c-0.4,0.7-0.8,1.4-1.2,2.2l-3.8,8.6c0.6,0.7,1.2,1.3,1.8,1.9
		L419.5,551.7z"/>
	<path class="st5" d="M429.9,534.4h-4.4c-1.8,3.3-3.7,6.6-5.5,10c0.6,0.7,1.1,1.3,1.7,2l3.6-8.8C426,535.7,427.8,534.4,429.9,534.4z
		"/>
	<path class="st5" d="M481.4,468.9c-0.3-0.7-0.7-1.2-1.2-1.9C480.7,467.7,481.2,468.3,481.4,468.9c1.3,3.2,3.6,5.8,6.4,7.7
		C485,474.7,482.8,472.1,481.4,468.9z"/>
	<path class="st5" d="M532.6,487c0.4,0.2,0.8,0.4,1.2,0.7C533.4,487.5,533,487.2,532.6,487z"/>
	<path class="st5" d="M516.9,538.5c-0.8,1.9-1.5,3.7-2.3,5.6C515.3,542.2,516.1,540.3,516.9,538.5z"/>
	<path class="st5" d="M534.7,488.4c0,0,0-0.1,0.1-0.1c-0.3-0.2-0.5-0.3-0.8-0.5C534.3,488,534.5,488.2,534.7,488.4z"/>
	<path class="st5" d="M505.6,477.4c1.5-0.7,2.9-0.8,4.3-0.6C508.5,476.5,507.2,476.7,505.6,477.4c-2.7,1.2-5.3,1.8-7.8,1.9
		C500.3,479.2,502.9,478.6,505.6,477.4z"/>
	<path class="st5" d="M456.9,540.3c-1.4-0.5-2.8-1-4.3-1.5c-1.3-0.5-2.1-1.8-2-3.1c0,0-0.1,0.1-0.1,0.1c-0.3,0.7-0.5,1.3-0.8,2
		C452.2,538.6,454.5,539.5,456.9,540.3z"/>
	<path class="st5" d="M462.8,542.5c1,0.4,2,0.7,3.1,1.1c0,0,0,0,0,0C464.8,543.2,463.8,542.8,462.8,542.5z"/>
	<path class="st5" d="M465.8,543.6C465.8,543.6,465.8,543.6,465.8,543.6c0.3,0.1,0.7,0.2,1,0.4C466.5,543.8,466.1,543.7,465.8,543.6
		z"/>
	<path class="st5" d="M474.7,546.7c-1-0.3-1.9-0.7-2.9-1C472.8,546.1,473.8,546.4,474.7,546.7z"/>
	<path class="st5" d="M471.3,483.2c2.4-6,4.8-12.1,7.2-18.2C476.1,471.1,473.7,477.2,471.3,483.2z"/>
	<path class="st5" d="M524.7,518.8c-0.3,0.7-0.5,1.3-0.8,2C524.1,520.1,524.4,519.4,524.7,518.8z"/>
	<path class="st5" d="M528.8,508.2c-0.3,0.7-0.5,1.4-0.8,2.1C528.2,509.6,528.5,508.9,528.8,508.2z"/>
	<path class="st5" d="M535.3,491.5c-0.6,1.6-1.2,3.2-1.9,4.8c0.9-2.4,1.8-4.8,2.8-7.1c-0.4-0.2-0.9-0.5-1.4-0.9c0,0,0,0.1-0.1,0.1
		C535.4,489.2,535.7,490.4,535.3,491.5z"/>
	<path class="st5" d="M462,506.4c0.8-2.1,1.7-4.2,2.5-6.3C463.6,502.3,462.8,504.3,462,506.4z"/>
	<path class="st5" d="M450.8,535.1c-0.1,0.2-0.2,0.4-0.3,0.7c0,0,0.1-0.1,0.1-0.1C450.7,535.5,450.7,535.3,450.8,535.1z"/>
	<path class="st5" d="M454.5,525.3c0.9-2.3,1.8-4.7,2.7-7C456.3,520.6,455.5,523,454.5,525.3z"/>
	<path class="st5" d="M512,549.7C512,549.8,512,549.8,512,549.7c-0.3,0.3-0.7,0.5-1.2,0.6c-0.2,0-0.4,0.1-0.7,0.1
		c-0.2,0-0.4,0-0.7,0c-5.7-0.2-11.5,0.1-17.2,0.1c-0.3,2.3-0.6,4.5-1.1,6.7h75c-0.1-4.2-1.9-7-4-9.4c-0.5-0.5-1.6-0.7-2.5-0.7h-46.1
		c-0.2,0.5-0.4,0.9-0.6,1.4C512.6,549,512.3,549.4,512,549.7z"/>
	<path class="st5" d="M451.9,547.9c-0.2,0-0.4,0.1-0.6,0.1l1.6,9.1h12.8c-0.1-2-0.1-3.9-0.1-5.9c0-1.4,0-2.8,0.1-4.2h-14.5l0.1,0.5
		C451.5,547.6,451.7,547.7,451.9,547.9z"/>
	<path class="st5" d="M465.7,557.1H491c0.5-2.2,0.9-4.4,1.1-6.7c0,0-0.1,0-0.1,0c-0.4,0-0.8,0-1.2,0c-0.4,0-0.8,0-1.3,0
		c-1.2,0-2.4-0.1-3.6-0.2c-0.4,0-0.8-0.1-1.2-0.2c-0.8-0.1-1.6-0.3-2.3-0.6c-2.4-0.8-4.7-1.6-7.1-2.4h-9.8c0,1.4-0.1,2.8-0.1,4.2
		C465.6,553.2,465.6,555.1,465.7,557.1z"/>
	<path class="st5" d="M451.3,547.5l-0.1-0.5h-0.9C450.6,547.2,450.9,547.3,451.3,547.5z"/>
	<path class="st5" d="M446.4,549.1c-4.8,1.2-5.6,2.5-5,8h11.5l-1.6-9.1C449.7,548.4,448.1,548.7,446.4,549.1z"/>
	<path class="st5" d="M512,549.7C512,549.8,512,549.8,512,549.7C512,549.8,512,549.8,512,549.7z"/>
	<path class="st5" d="M510.8,550.3c-0.2,0-0.4,0.1-0.7,0.1C510.3,550.4,510.5,550.3,510.8,550.3z"/>
	<path class="st5" d="M492.1,550.4L492.1,550.4c5.7,0.1,11.5-0.3,17.2-0.1c0.2,0,0.5,0,0.7,0c-0.2,0-0.4,0-0.7,0
		C503.6,550.1,497.9,550.5,492.1,550.4z"/>
	<path class="st5" d="M492,550.4c-0.4,0-0.8,0-1.2,0C491.2,550.4,491.6,550.4,492,550.4c0,0,0.1,0,0.1,0l0,0
		C492.1,550.4,492.1,550.4,492,550.4z"/>
	<path class="st5" d="M490.8,550.4c-0.4,0-0.8,0-1.3,0C490,550.4,490.4,550.4,490.8,550.4z"/>
	<path class="st5" d="M489.6,461.1c-0.8,3.2,1.1,6.1,4.9,7.1c0.4,0.1,0.8,0.2,1.2,0.2c-0.4,0-0.8-0.1-1.2-0.2
		C491.3,467.4,488.8,464.6,489.6,461.1z"/>
	<path class="st5" d="M489.7,461c0.1-0.3,0.2-0.5,0.3-0.8C489.9,460.4,489.8,460.7,489.7,461z"/>
	<path class="st5" d="M440.5,542.9c-0.8-0.3-1.3-0.5-1.5-0.9c0.2,1.4,1.1,2.8,2.3,3.2c2.2,0.7,4,1.3,5.8,1.8h3.2
		C447.1,545.4,443.8,544,440.5,542.9z"/>
	<path class="st5" d="M451.3,547.5l0,0.3c0.2,0,0.4,0.1,0.6,0.1C451.7,547.7,451.5,547.6,451.3,547.5z"/>
	<path class="st5" d="M451.3,547.5c-0.3-0.2-0.7-0.4-1-0.5h-3.2c1.3,0.3,2.6,0.6,4.2,0.8L451.3,547.5z"/>
	<g>
		<path class="st11" d="M529.6,534.2c-0.8,0-2,0.3-2.2,0.8c-0.3,0.7-0.6,1.3-0.9,2c-1.2,2.9-2.4,5.9-3.7,9.1
			c1.9,0.2,3.3,0.3,4.6,0.4c10.5,0.2,21,0.3,31.6,0.6c0.2,0,0.4,0,0.5,0h5c1.5,0,2.8,1.2,2.8,2.8v5.4c0,1.5-1.2,2.8-2.8,2.8h-73.6
			h-25.1h-12.7h-16c-0.5,0-1-0.1-1.4-0.4c-0.7-0.4-1.2-1.1-1.4-1.9c0-0.2,0-0.3,0-0.5v-5.4c0-1.5,1.2-2.8,2.8-2.8h10
			c-1.9-0.5-3.6-1-5.8-1.8c-1.2-0.4-2-1.8-2.3-3.2c0,0,0-0.1,0-0.1c0-0.2-0.1-0.3-0.1-0.5c0-0.3,0-0.6,0.1-0.8
			c0-0.2,0.1-0.4,0.2-0.6c0.3-0.7,0.7-1.5,1-2.2c0.4-1,0.9-2.1,1.4-3.3h-11.7c-2,0-3.9,1.2-4.6,3.1l-3.6,8.8l-2.1,5.3l-2.4,5.8
			l-8.7,21.3c-1.3,3.3,1.1,6.9,4.6,6.9l42.7,0.1l2.2,0l0.7,0l11.8,0l6.3,0l76,0.2l32.6,0.1c2.7,0,4.8-2.1,5-4.6
			c0.1-0.8-0.1-1.6-0.4-2.4l-5.2-12.2l-4.5-10.5l-8.2-19.2c-0.8-1.8-2.6-3-4.6-3c-7.9,0-15.9,0-23.8-0.1
			C538.8,534.2,534.2,534.1,529.6,534.2z"/>
		<path class="st11" d="M532.6,487C532.6,487,532.6,487,532.6,487c-0.7-0.3-1.4-0.6-2-1C531.2,486.4,531.9,486.7,532.6,487
			C532.6,487,532.6,487,532.6,487z"/>
		<path class="st11" d="M516.9,538.5c0.2-0.6,0.5-1.2,0.7-1.8c0.8-1.9,1.5-3.7,2.3-5.6c1.3-3.4,2.7-6.9,4-10.3
			c-1.3,3.4-2.7,6.9-4,10.3c-0.7,1.9-1.5,3.8-2.3,5.6C517.3,537.3,517.1,537.9,516.9,538.5z"/>
		<path class="st11" d="M534,487.8c0,0-0.1,0-0.1-0.1C533.9,487.7,533.9,487.8,534,487.8C534,487.8,534,487.8,534,487.8z"/>
		<path class="st11" d="M520.5,481.4c3.3,1.6,6.7,3.1,10,4.7C527.2,484.5,523.9,482.9,520.5,481.4c-2.7-1.3-5.4-2.5-8.1-3.8
			c-0.9-0.4-1.7-0.7-2.6-0.8c0.9,0.1,1.7,0.4,2.6,0.8C515.1,478.8,517.8,480.1,520.5,481.4z"/>
		<path class="st11" d="M492.5,478.6c1.3,0.3,2.6,0.6,3.9,0.6C495.1,479.2,493.8,479,492.5,478.6z"/>
		<path class="st11" d="M475.4,547c-0.2-0.1-0.5-0.2-0.7-0.2C474.9,546.8,475.2,546.9,475.4,547L475.4,547z"/>
		<path class="st11" d="M450.8,534.9c0,0.1,0,0.1,0,0.2c1.2-3.3,2.5-6.5,3.8-9.7C453.3,528.5,452.1,531.7,450.8,534.9z"/>
		<path class="st11" d="M468.1,491.2c1.1-2.7,2.1-5.3,3.2-8C470.2,485.9,469.1,488.5,468.1,491.2c-0.8,1.9-1.5,3.8-2.3,5.7
			c-0.4,1.1-0.9,2.2-1.3,3.3c0.4-1.1,0.9-2.2,1.3-3.3C466.5,495,467.3,493.1,468.1,491.2z"/>
	</g>
</g>
</svg>
