<?xml version="1.0" encoding="UTF-8"?>
<svg id="Layer_1" xmlns="http://www.w3.org/2000/svg" viewBox="0 0 1000 1000">
  <defs>
    <style>
      .cls-1 {
        fill: #0057b7;
      }

      .cls-2 {
        fill: #33755c;
      }

      .cls-3 {
        fill: #99192f;
      }

      .cls-4 {
        fill: #fff;
      }

      .cls-5 {
        fill: #dd0020;
      }

      .cls-6 {
        fill: #00253d;
      }

      .cls-7 {
        fill: #e8eaec;
      }

      .cls-8 {
        fill: #fdb913;
      }

      .cls-9 {
        fill: #30297d;
      }

      .cls-10 {
        fill: #f6931c;
      }
    </style>
  </defs>
  <polygon class="cls-6" points="406.2729555777 397.2035931985 565.7821919231 466.0393572761 486.0275737504 656.8671466665 328.3078815769 605.0411951164 406.2729555777 397.2035931985"/>
  <path class="cls-2" d="M316.7578319585,432.5762172421c1.1517806924-2.9997647479,2.3340128184-5.9863935833,3.4807182719-8.9885466789l2.3477458178-6.129694447c6.8049997675-17.7430352803,13.2362231153-34.5002800354,17.5746567654-51.2867820502.220325078-1.6951298008-.6114170187-7.761533033-1.1622297137-11.7727630442-.3824341801-2.7818280176-.7562105998-5.5493259489-1.0490817401-8.2708481863-1.1535719532-10.7153220871-3.0576821803-21.7459060745-4.9441783429-32.0719274817-5.7386025064-31.390651292,5.5758963173-60.0860521716,33.6306229185-85.2855090625,4.2823074785-3.845239844,8.3281685318-7.7448145989,12.2169957219-11.6754378742-31.7602481031,8.6505954752-64.3853766276,12.8302040013-96.9146726995,12.4797139721-5.3355688271,66.5507123877-27.1331229212,131.7251393963-64.6809346591,189.0239897679,7.0480141489-.714713058,14.1990257936-1.0819215213,21.4357194132-1.0819215213,27.5982536415,0,53.925906291,5.3797532601,78.0646382467,15.0597266066Z"/>
  <path class="cls-1" d="M751.9538974154,112.2814712334c-2.1071197841-1.896348097-4.2805162177-3.7180603274-6.4288350001-5.5690298176-.1241940819,1.8593287072-.2737643585,3.7102981973-.4230360915,5.5624618613,2.2838575161.0029854347,4.5680135756.0035825216,6.8518710916.0065679562Z"/>
  <path class="cls-1" d="M695.6068036139,112.2259421487c8.0558968906.0107475648,16.1126894117.0119417386,24.1682877589.0238834773,8.4422121358.0125388256,16.8844242717.0131359125,25.326934951.0250776512.1492717331-1.852163664.2988420096-3.7031331542.4230360915-5.5624618613-40.6613215464-35.0298961444-88.5673973859-61.8558178389-141.2301662716-77.8302816258-5.1501733346,10.7762249542-10.8687734287,21.3243627003-17.1540090216,31.6133647177,39.324443905,11.0759625942,75.8927345305,28.7312260955,108.4659164919,51.7304176409Z"/>
  <path class="cls-1" d="M695.6068036139,112.2259421487c-32.5731819614-22.9991915454-69.1414725869-40.6544550467-108.4659164919-51.7304176409-11.0926810283,18.1598019591-23.9181083342,35.4884589084-38.5106144163,51.72086425,48.9948638606-.0668737364,97.98704083-.0549319978,146.9765309081.0095533909Z"/>
  <path class="cls-5" d="M775.0847466294,617.2898364457l16.0216336545,35.1487164439c41.0610712476-49.3283369123,70.1601028934-108.9307486687,82.9550787657-174.3834181878-12.0954885311,3.2499441725-24.4459331824,5.8717528923-37.0184941724,7.8307951171-11.5437802057,48.3461289086-32.9042666654,92.9132946227-61.9582182478,131.4039066267Z"/>
  <path class="cls-5" d="M672.5995513949,472.7422551782c-3.2215825432,2.2068333018-6.5966164281,4.2178220898-10.2382496282,5.8251801115-5.3066101109,2.3441632962-10.3290068419,3.4654925551-14.6504235145,4.0601911396-.4113928964.79412562-.7881547506,1.570338632-1.1129700418,2.3214739928-6.3324054605,14.5922075385-12.4534421471,29.2805460732-18.5744788336,43.9658991732-1.5246614816,3.6577545473-3.0490244198,7.311926573-4.5763727926,10.9696811203,23.3711767042.2053979047,46.7453388431.3009318139,70.119500982.3910919407,28.2487798542.1068785609,54.0748794806,16.7894874494,65.7864411143,42.5024391021l15.7317479489,34.5116246872c29.0539515824-38.490612004,50.4144380421-83.0577777181,61.9582182478-131.4039066267-17.8484211239,2.7818280176-36.1297302737,4.2578269143-54.7609323658,4.2578269143-38.2977529249,0-75.1538394517-6.1273060993-109.6824811164-17.401501555Z"/>
  <path class="cls-8" d="M846.8363847408,403.2096906506c0,28.4655224106-3.4535508164,56.1249774627-9.7934198636,82.6762391683,12.5725609901-1.9590422249,24.9230056413-4.5808509446,37.0184941724-7.8307951171,4.7677391544-24.3892099238,7.3340187895-49.5671716852,7.3340187895-75.3523708567,0-14.0619943427-.7809897075-27.9382946494-2.2298211487-41.6157650077-11.611848116.1928590791-23.2245918623.3666113764-34.8376341522.537975326,1.5963119135,13.6523927071,2.5083622026,27.5107804059,2.5083622026,41.5847164872Z"/>
  <path class="cls-8" d="M707.1040110389,414.3483473727c-1.9127679876.1337474728-3.8401646051.2609269894-5.7732335484.3821356367.1507644504,5.970869323-.4346792867,11.9906997745-1.7969331228,17.9173846646-3.8733029299,16.8366573171-13.5034195175,30.8932778774-26.9342929728,40.0943875042,34.5286416647,11.2741954557,71.3847281916,17.401501555,109.6824811164,17.401501555,18.6312020921,0,36.9125112419-1.4759988967,54.7609323658-4.2578269143,6.3398690472-26.5512617057,9.7934198636-54.2107167577,9.7934198636-82.6762391683,0-14.0739360813-.9120502891-27.9323237801-2.5083622026-41.5847164872-7.977977046.1176261257-15.9541628311.2704803804-23.9327369641.3695968111-30.4717345032,31.6778501064-68.5399075026,49.2787786969-113.2912745353,52.3537763982Z"/>
  <path class="cls-6" d="M439.4908421543,50.8740656806c3.1332136773-12.5412139261,6.9133710457-24.8226950366,11.3464429746-36.7930938555-68.0989588031,6.9124754153-130.9641521011,31.399607596-184.1586269,68.7312738644,3.5908808109,12.1769908974,6.5993033193,24.4686224858,9.0109374389,36.8486229402,46.905358141-35.6645995534,102.8724061101-59.9594697419,163.8012464866-68.7868029491Z"/>
  <path class="cls-6" d="M281.9384089577,229.5744223889c32.5292960719.3504900293,65.1544245964-3.8291184969,96.9146726995-12.4797139721,14.2891859204-14.4435328924,25.9341723611-29.4220556762,34.6414910949-44.6955394045,4.6934018314-8.2362171442,9.9612012916-15.6090465843,15.7063717542-22.1990950561-.1665872541-4.4548656019-.2800337712-8.9228671163-.2800337712-13.4183346296,0-29.635812798,3.6980579152-58.4004757617,10.5699314191-85.907673646-60.9288403765,8.8273332072-116.8958883456,33.1222033957-163.8012464866,68.7868029491,7.0742859739,36.3160213966,9.1831970188,73.3103335482,6.24881329,109.9135537592Z"/>
  <path class="cls-6" d="M490.7588159661,47.1315247889c33.4028342539,0,65.7043416611,4.7241518084,96.3820711559,13.3639997188,6.2852355929-10.2890020174,12.003835687-20.8371397635,17.1540090216-31.6133647177-35.9359755642-10.9010161231-74.040272323-16.8163563614-113.5366772645-16.8163563614-13.477446236,0-26.7951717175.6830674506-39.9209337504,2.0151683965-4.4330719289,11.9703988188-8.2132292973,24.2518799294-11.3464429746,36.7930938555,16.7503782554-2.4265612929,33.8560232355-3.7425408917,51.2679738118-3.7425408917Z"/>
  <path class="cls-6" d="M429.2009445064,150.2000739562c21.6321610139-24.8149329065,50.4425011279-37.8678503336,84.641550806-37.9502483303,11.5963238557-.0274659989,23.1917520811-.017912608,34.7877773933-.0334368682,14.592506082-16.2324053416,27.4179333879-33.5610622909,38.5106144163-51.72086425-30.6777294948-8.6398479104-62.9792369021-13.3639997188-96.3820711559-13.3639997188-17.4119505764,0-34.5175955565,1.3159795988-51.2679738118,3.7425408917-6.8718735039,27.5071978843-10.5699314191,56.271860848-10.5699314191,85.907673646,0,4.4954675133.1134465171,8.9634690277.2800337712,13.4183346296Z"/>
  <path class="cls-10" d="M135.4825378545,425.9294455117c-12.2134132003-7.3214799639-24.017224765-15.2507944249-35.3478449358-23.7819725137-.0002985435.1862911229-.0140315429.3689997242-.0140315429.555290847,0,21.3589937424,1.7802146887,42.2952499367,5.0785229027,62.7239822385,9.8934319248-8.1615812777,20.5663608397-15.4048428534,31.85817036-21.6670905994-.6726184292-5.9016072389-1.1956665819-11.845010563-1.574816784-17.8302099724Z"/>
  <path class="cls-10" d="M135.4825378545,425.9294455117c.379150202,5.9851994094.9021983547,11.9286027336,1.574816784,17.8302099724,5.1746538988-2.8695997966,10.4935042918-5.503947342,15.9243084845-7.9364795042-5.9213111077-3.1597840458-11.7584329579-6.4521213905-17.4991252685-9.8937304683Z"/>
  <path class="cls-10" d="M134.6809486479,403.2096906506c0-68.6882836053,19.6035581614-132.8596045677,53.4315183111-187.3163211415-11.4476492096-3.2684538674-22.7621480333-7.0814510171-33.8745329304-11.5130302287-34.2512947847,57.9926653869-54.0020348749,125.5614109941-54.1032411099,197.7671337176,11.3306201709,8.5311780887,23.1344317356,16.4604925497,35.3478449358,23.7819725137-.4761768285-7.5209069993-.8015892066-15.0812217361-.8015892066-22.7197548611Z"/>
  <path class="cls-10" d="M217.2574742986,418.5984121568c37.5478117379-57.2988503716,59.3453658321-122.4732773802,64.6809346591-189.0239897679-31.6906874755-.3415337252-63.2646444557-4.9540302773-93.8259419987-13.6810528799-33.8279601497,54.4567165738-53.4315183111,118.6280375362-53.4315183111,187.3163211415,0,7.6385331249.3254123781,15.1988478618.8015892066,22.7197548611,5.7406923106,3.4416090778,11.5778141608,6.7339464225,17.4991252685,9.8937304683,19.9761404071-8.9503331152,41.5766558136-14.9223966122,64.2758111755-17.2247638231Z"/>
  <path class="cls-3" d="M275.6895956677,119.6608686297c-2.4116341196-12.3800004544-5.420056628-24.6716320428-9.0109374389-36.8486229402-45.591169803,31.9966945283-84.0226702007,73.4524402381-112.4407242002,121.5680935909,11.1123848971,4.4315792116,22.4268837208,8.2445763613,33.8745329304,11.5130302287,23.1003977804-37.1865741439,52.8398051611-69.819763342,87.5771287087-96.2325008794Z"/>
  <path class="cls-3" d="M275.6895956677,119.6608686297c-34.7373235476,26.4127375374-64.4767309283,59.0459267355-87.5771287087,96.2325008794,30.561297543,8.7270226025,62.1352545232,13.3395191546,93.8259419987,13.6810528799,2.9343837288-36.603220211.8254726839-73.5975323627-6.24881329-109.9135537592Z"/>
  <path class="cls-9" d="M178.7328283394,574.5551305268c-13.0732183828-23.7115162557-23.4616353745-49.0817400092-30.892382247-75.6807686695-2.8875124046,2.5674738089-5.7102408771,5.1815203985-8.6885104954,7.682120471-6.6216940792,5.5600735136-13.4096768691,10.7833899974-20.2722955256,15.8460900964,10.1033079815,31.4109522477,24.092159175,61.0587067843,41.3712579089,88.4381280651l15.3176681613-30.6681761039c.9660866565-1.9345616607,2.0405445912-3.7950845417,3.1642621977-5.6173938591Z"/>
  <path class="cls-9" d="M242.4070744307,539.6267391609c10.306018995.1767377319,22.3220949642.3940773753,32.6048275688.6054461494,6.6458761-17.2641715606,13.36668661-34.5002800354,20.0904825547-51.7357914233,1.0159434153-2.6056873726,2.0139742227-5.2179427014,3.0296190945-7.823630074-37.3725667233-4.1115406158-73.1834525751-13.3472812847-106.7740706692-26.9489216026-13.1242693155,15.9332647885-27.6361686617,31.0306078718-43.5174868871,45.1505196469,7.4307468725,26.5990286603,17.8191638642,51.9692524138,30.892382247,75.6807686695,13.4631161496-21.8354691143,37.8182921183-35.4132259549,63.6742460913-34.9283913659Z"/>
  <path class="cls-9" d="M238.6931937117,417.5164906355c-7.2366936195,0-14.3877052642.3672084634-21.4357194132,1.0819215213-7.9218508743,12.0892191184-16.57334198,23.8034676432-25.8995413191,35.1254300535,33.5906180941,13.6016403179,69.4015039459,22.8373809868,106.7740706692,26.9489216026,6.2434395076-16.0186482198,12.4620999076-32.0468498306,18.6258283097-48.0965465709-24.1387319557-9.6799733465-50.4663846052-15.0597266066-78.0646382467-15.0597266066Z"/>
  <path class="cls-9" d="M147.8404460924,498.8743618573c-4.9880642325-17.8552876236-8.634474128-36.2551185295-10.7830914539-55.1147063732-11.2918095203,6.262247746-21.9647384352,13.5055093218-31.85817036,21.6670905994,3.1514248287,19.5163834693,7.7507854682,38.5407673064,13.6804557929,56.9758263412,6.8626186564-5.062700099,13.6506014463-10.2860165828,20.2722955256-15.8460900964,2.9782696183-2.5006000725,5.8009980908-5.1146466621,8.6885104954-7.682120471Z"/>
  <path class="cls-9" d="M191.3579329795,453.7238422104c-13.1451673581-5.3224329145-25.9619369035-11.2765838035-38.3762698565-17.9006662304-5.4308041928,2.4325321622-10.7496545857,5.0668797075-15.9243084845,7.9364795042,2.1486173259,18.8595878437,5.7950272215,37.2594187496,10.7830914539,55.1147063732,15.8813182254-14.1199117751,30.3932175716-29.2172548584,43.5174868871-45.1505196469Z"/>
  <path class="cls-9" d="M152.981663123,435.82317598c12.414332953,6.624082427,25.2311024984,12.5782333159,38.3762698565,17.9006662304,9.3261993391-11.3219624103,17.9776904447-23.0362109352,25.8995413191-35.1254300535-22.6991553619,2.3023672109-44.2996707684,8.2744307079-64.2758111755,17.2247638231Z"/>
  <rect class="cls-7" x="171.7036224289" y="801.9891255628" width="582.7135571257" height="50.7338795509" rx="16.9733902246" ry="16.9733902246"/>
  <path class="cls-7" d="M754.4171795546,933.9345900372v-6.2031361397c0-16.5345313294-13.4037059998-29.9385358726-29.9385358726-29.9385358726H201.6412626711c-16.5339342424,0-29.9376402422,13.4034074563-29.9376402422,29.9379387857v6.2037332266h582.7135571257Z"/>
  <rect class="cls-7" x="171.7036224289" y="933.9345900372" width="582.7135571257" height="33.3353634305"/>
  <path class="cls-6" d="M680.690974958,672.8547463658h-237.0691868626c-.1853954925.8395042268-.3839268975,1.6748288451-.5794728678,2.5113476373h232.7692653196c4.8325230866,0,8.7500104494-3.9174873629,8.7500104494-8.749711906v-16.987123224c0-4.8322245431-3.9174873628-8.749711906-8.7500104494-8.749711906h-15.8380294228c3.0499200502.1241940819,6.5082475621.5099122402,8.0335061307,2.2408672569,6.8020143328,7.7161544262,12.2450588077,16.4306382031,12.6839177029,29.7343321418Z"/>
  <path class="cls-6" d="M318.1188916206,643.3664140401l.1152377779.6609752341c.5967883888-.1337474728,1.1947709515-.2627182502,1.7912607969-.3988540708-.6684388207-.0812038228-1.2649286661-.1755435581-1.9064985748-.2621211633Z"/>
  <path class="cls-6" d="M323.7010573508,675.3660940031h40.0657273314c-.0429902591-.8335333575-.0456771503-1.6766201059-.0835921705-2.5113476373h-40.4203969692l.4382618083,2.5113476373Z"/>
  <path class="cls-6" d="M268.7290547544,674.2065511805l-4.3226108464-6.086107101c.4570700467,2.6247941544,2.0832363068,4.8208798914,4.3226108464,6.086107101Z"/>
  <path class="cls-6" d="M363.6831925117,672.8547463658c.0379150202.8347275314.0406019114,1.6778142798.0835921705,2.5113476373h79.2755305454c.1955459703-.8365187922.3940773753-1.6718434105.5794728678-2.5113476373h-79.9385955837Z"/>
  <path class="cls-6" d="M273.0047942766,675.3660940031h50.6962630742l-.4382618083-2.5113476373h-36.3318442003c-1.9447121385-17.4444918142.6448538869-21.4545276515,15.7777236427-25.2699131489,5.1480835303-1.296872817,10.3439340152-2.399095294,15.5254544138-3.5574439427l-.1152377779-.6609752341c-5.0358311871-.6764994943-9.3261993391-1.4945085915-13.3881817396-2.486867073h-31.7259156045c-4.8325230866,0-8.7500104494,3.9174873628-8.7500104494,8.749711906v16.987123224c0,.5146889357.0662766495,1.0132565241.1516600808,1.5040619825l4.3226108464,6.086107101c1.2694068181.7165043188,2.7140586508,1.1595428226,4.2757395222,1.1595428226Z"/>
  <path class="cls-10" d="M388.5772394367,480.5234920799c.6720213423.6854557983,1.3246373593,1.3894212915,1.9874038542,2.0838333937l.9872832426-2.4623865088c-.9935526554.1200144734-1.9787460937.2657036849-2.9746870967.3785531151Z"/>
  <path class="cls-10" d="M386.775828162,449.0056612713c-2.7752600613,7.2641596184-5.623066185,14.5020474118-8.4263893321,21.7566536393,3.5189318355,3.13948309,6.9277011321,6.394801045,10.2278006069,9.7611771693.9959410031-.1128494302,1.9811344414-.2585386417,2.9746870967-.3785531151l8.0352973915-20.0352520134c2.3155031235-5.7690539399,8.5738698044-9.0500466329,14.7838724438-7.4403002634.8066644455.2089804263,1.5446638939.5230481527,2.2572871476.8681643996,1.5100328518-2.628376676,3.0400681158-5.2436174395,4.6071227697-7.8337805518-5.6308283151-1.0855040429-9.887759599-6.0263984078-9.887759599-11.9739813404,0-6.7417085526,5.4651366914-12.206845244,12.2071437875-12.206845244,4.1100478985,0,7.7269019909,2.0468140039,9.9391090751,5.1600252689,1.3822562483-2.0205421789,2.7597358011-4.0452639663,4.1775187219-6.0389372333-1.3894212915-.7296402312-2.7570489099-1.4951056785-4.0682518132-2.3405807746-8.9464520502-5.7666655922-16.0099904593-14.1551399041-20.2639363085-24.2118751049-.8810017686-2.0838333938-2.2749012121-3.9491329703-3.9192786236-5.9022043258-.352878377-.4185579396-.7508368174-.8711498342-1.1240161501-1.2998582516-5.283025177,19.6053494222-12.3301436955,38.1478841049-19.2073909818,56.078404682l-2.3128162323,6.0377430594Z"/>
  <path class="cls-10" d="M536.871242661,433.5064786826c-14.323518419,7.8684115939-29.2071043806,14.8220860075-44.5217871072,20.9362561943.0235849338.3092910309.092847018.6048490624.092847018.9201109627,0,6.7417085526-5.4654352348,12.207442331-12.2071437875,12.207442331-4.075118313,0-7.6597297111-2.0163625704-9.8770120342-5.0847923155-16.2619611448,5.4143843021-32.9606913805,9.8543227307-50.0684261649,13.1824852914l-11.5372122494,28.7664542245c8.2257681229,11.3530109308,15.3293113565,23.5610503487,21.1783749453,36.4664873035l22.0823645609-52.4397569165c2.0823406764-5.1922679633,7.359992071-8.369964617,12.9233495628-7.778848554,8.2451734482.8753294427,13.3693735012,9.3891920105,10.2845238655,17.0850454809l-33.0114437697,78.1186746141c4.1646813528,16.493332331,6.3968908492,33.7563097178,6.3968908492,51.544126518,0,4.5229335122-.1925605357,8.9981000698-.4743855677,13.4493831502h66.1611131643c1.2479116885-3.0893277877,2.5200053978-6.1702963585,3.7858296943-9.252459103,2.4095443153-5.8693645446,4.776396915-11.7542533493,7.1954946212-17.6200353723.7735261208-1.8754500543,1.5186906123-3.7628418474,2.2883356681-5.6400831625l-10.2224268245-.3134706395,25.5565148765-60.4425130702c3.9443562748-9.3175415786,7.5904676269-17.9281322293,11.210307154-26.5476791841,2.7358523238-6.509441736,5.4543891266-13.0302281237,8.1699404947-19.5510145114,6.2544856159-15.0041975218,12.511658123-30.0083950437,18.9834833822-44.9224324388.1400168856-.3224269435.3030216181-.617387888.445725395-.9374264837-.6409728218-.7272518836-1.3936009-1.3697174227-2.2614667561-1.8891830538-.1662887106-.0961309961-.3272036389-.1916649053-.4952836103-.2871988144-1.2631374053-.7165043188-2.5644883742-1.4258435944-3.9082325154-2.0653236988-.0050752389-.0023883477-.0095533909-.0053737824-.0146286298-.0077621301-12.6875002245-6.0311751032-25.4311266207-11.9435299069-38.155646235-17.8964866219ZM529.5482699798,520.9904618299l-41.7456314155,101.8337733913c-1.9190374004,4.6817586362-6.4769004982,7.7388437296-11.536316619,7.7388437296-8.8634569666,0-14.8964233306-8.9873525051-11.5396005972-17.190132781l41.6154664642-101.6898754406c2.0811465025-5.1922679633,7.3587978972-8.3687704432,12.9233495628-7.7782514671,8.2454719916.8753294427,13.3696720447,9.3891920105,10.2827326047,17.0856425679ZM533.2069201574,491.9845757455c-6.7420070961,0-12.2074423309-5.4651366914-12.2074423309-12.2074423309,0-6.7417085527,5.4654352348-12.206845244,12.2074423309-12.206845244,6.7417085526,0,12.2071437875,5.4651366914,12.2071437875,12.206845244,0,6.7423056396-5.4654352348,12.2074423309-12.2071437875,12.2074423309Z"/>
  <path class="cls-10" d="M435.762034262,433.7297891953c0,6.7423056396-5.4654352348,12.207442331-12.2071437875,12.207442331-.7944241634,0-1.5673531973-.0889659529-2.3193841885-.2334609905-1.5670546538,2.5901631123-3.0970899179,5.2054038758-4.6071227697,7.8337805518,5.9144446079,2.8624347534,8.5037120899,10.0561381138,5.9290732378,16.47601681l-2.2677361689,5.6544132489c17.1077347844-3.3281625607,33.8064650201-7.7681009893,50.0684261649-13.1824852914-1.451219789-2.0080033533-2.3301317533-4.4554626888-2.3301317533-7.1226500154,0-6.7417085526,5.4651366914-12.2074423309,12.2071437875-12.2074423309,6.4264466524,0,11.6360301367,4.983287537,12.1142967695,11.2873313683,15.3146827267-6.1141701868,30.1982686882-13.0678446004,44.5217871072-20.9362561943-8.5323722626-3.9921232294-17.0351887221-8.0463434997-25.5845779623-12.0008502524-2.7227164113-1.2592563402-5.3800518035-2.1548867387-8.0806759983-2.5871776777-4.2360332412-.678887842-8.5813333911-.1970386877-13.4738637144,1.9745664851-8.4314645711,3.7419438047-16.7127617786,5.6144084244-24.5692316339,5.8986218042-5.8923523914.2131600348-11.5455714665-.4669219811-16.8441209037-1.9214257482-3.7449292394-1.0281836974-7.2975964866-2.4671632043-10.6472541768-4.2261813068-1.4177829208,1.993673267-2.7952624736,4.0183950544-4.1775187219,6.0389372333,1.4162902034,1.99307618,2.2680347124,4.4148607775,2.2680347124,7.0468199751Z"/>
  <path class="cls-10" d="M367.1218161548,597.8624189293c-1.4613702668.591116063-3.033798703.9416060923-4.6728023322.9416060923-8.8497239671,0-14.8982145914-8.9419738982-11.6040859859-17.1566959128l39.7197154542-99.0400036351c-.6627664949-.6944121022-1.3153825119-1.3983775954-1.9874038542-2.0838333937-4.8137148482.5433491084-9.6620607385.9625041349-14.5253338021,1.3350863806-4.2037905469,10.8359336474-8.3696660736,21.6856002943-12.5919663154,32.5125776378-8.5786464999,22.0038476292-17.1602784344,44.0100836063-25.582488158,66.0736399287-4.1816983304,10.9571422947-11.0275985527,19.2679953054-19.805075001,24.5963990893-.4078103748,4.242302654,2.0668164162,8.4153432239,6.2631433764,9.9337352927,4.538159229,1.6413919769,8.9724253317,3.2571092157,13.4469948024,4.8835740193,6.2192574869,2.2617652996,12.3680587157,4.4859141224,18.4911852065,6.7088687713,3.2296432168,1.172678735,6.456300999,2.3417749485,9.6656432601,3.501317771.6403757349-10.8562346031,1.6996079528-21.5990226891,3.1824733492-32.2062720415Z"/>
  <path class="cls-10" d="M378.3494388298,470.7623149106c-1.4297246594,3.6995506326-2.8627332969,7.3985041782-4.2975331953,11.0962635499,4.8632730636-.3725822458,9.7116189539-.7917372723,14.5253338021-1.3350863806-3.3000994748-3.3663761243-6.7088687714-6.6216940792-10.2278006069-9.7611771693Z"/>
  <path class="cls-10" d="M367.1218161548,597.8624189293c-1.4828653964,10.6072493524-2.5420976143,21.3500374384-3.1824733492,32.2062720415,1.0222128281.3689997242,2.0578601122.7469557523,3.078580223,1.1153583896,5.3403455225,1.9250082697,10.641581851,3.801055411,15.9472963314,5.6830734217,3.0251409425,1.0723681304,6.0628207106,2.1674255643,9.0822893273,3.2242694344.7678537949.2686891195,1.5354090464.520659805,2.3029642979.7881547507h53.7817097968c.281825032-4.4512830803.4743855677-8.9264496379.4743855677-13.4493831502,0-17.7878168002-2.2322094964-35.050794187-6.3968908492-51.544126518l-17.2146133452,40.7362559564c-1.9429208777,4.5975693787-6.4488374123,7.584795301-11.439588536,7.584795301-8.8819666615,0-14.8925422655-9.0524349806-11.4455594053-17.2384968225l27.8209670672-66.0676690594c-5.8490635888-12.9054369548-12.9526068225-25.1134763727-21.1783749453-36.4664873035l-34.6994085274,86.5208819254c-1.2912004911,3.2200898259-3.8383733443,5.6562045097-6.9312836536,6.9071016329Z"/>
  <path class="cls-10" d="M386.775828162,449.0056612713l2.3128162323-6.0377430594c6.8772472863-17.9305205771,13.9243658048-36.4730552598,19.2073909818-56.078404682-1.366731988-1.5745182405-2.8188474074-3.2135218697-4.2975331953-5.1224087922-7.5462831939,19.2650098708-15.1540663419,38.3705975306-22.7719999677,57.3949813677-3.3971261013,8.4834111342-6.7832060944,16.9136815314-10.1791380219,25.3690295797,2.4838816384,2.0205421789,4.9143239963,4.101390138,7.3020746386,6.2311992255,2.8033231472-7.2546062275,5.6511292708-14.4924940209,8.4263893321-21.7566536393Z"/>
  <path class="cls-10" d="M581.7065004077,455.6524330017c-.1427037768.3200385957-.3057085093.6149995402-.445725395.9374264837-6.4718252592,14.9140373951-12.7289977663,29.9182349169-18.9834833822,44.9224324388-2.7155513681,6.5207863877-5.4340881709,13.0415727754-8.1699404947,19.5510145114-3.6198395271,8.6195469547-7.2659508792,17.2301376055-11.210307154,26.5476791841l-25.5565148765,60.4425130702,10.2224268245.3134706395c2.4262627494-5.918325673,4.8779016935-11.8259037812,7.2140043161-17.7800546701,4.2545429361-10.8430986906,8.4947557859-21.6933624244,12.7307890271-32.5603445924.8153222061-2.0909984369,1.6303458687-4.1927444386,2.4453695312-6.2849370494,3.4553420772-8.8721147271,6.9091914372-17.7478119758,10.3672204056-26.6527664842.8666716822-2.2319109529,1.7369258861-4.4757636445,2.6041946552-6.7100629452,4.8796929542-12.5710682727,9.7808810381-25.2012481518,14.6993846429-37.8762095507,1.9497873774-5.0244865353,3.890021364-10.0274779411,5.8493621323-15.0722654322,1.3237417289-3.4099634704.5430505649-7.1566839706-1.7667802327-9.7778956034Z"/>
  <path class="cls-10" d="M335.8774511612,580.4447960271c8.4222097236-22.0635563225,17.0038416581-44.0697922995,25.582488158-66.0736399287,4.2223002418-10.8269773434,8.3881757685-21.6766439903,12.5919663154-32.5125776378-3.4236964698.2627182502-6.8250021797.6042519755-10.2719850399.7809897074-1.3735984878,3.4213081221-2.7531678449,6.8581405044-4.1240794414,10.2770602788-2.6430053058,6.5906455588-5.2412290918,13.1848736391-7.8719941155,19.7731308502-4.9811977327,12.4743401897-9.962096922,24.9480832925-14.8767194618,37.4445156986-2.9039322953,7.3835770049-5.7269593112,14.8191005729-8.599245999,22.2211872726-3.9783902299,10.2531768015-7.9534964817,20.5099361246-11.8566537582,30.81685075-.1916649053.6209704096-.3188444218,1.243134993-.3788516585,1.8688820981,8.7774764483-5.3284037839,15.6233766707-13.6392567946,19.805075001-24.5963990893Z"/>
  <path class="cls-10" d="M371.0473641912,464.5311156851c-2.4244714886,6.0365488856-4.8477488034,12.0814569883-7.2674435965,18.1084524829,3.4469828602-.176737732,6.8482885701-.5182714573,10.2719850399-.7809897074,1.4347998983-3.6977593718,2.8678085359-7.3967129174,4.2975331953-11.0962635499-2.3877506423-2.1298090875-4.8181930002-4.2106570466-7.3020746386-6.2311992255Z"/>
  <path class="cls-6" d="M512.4859138022,645.2967960923c-.7732275773,1.9369500084-1.6169114127,3.3281625607-2.677039261,4.3109676512,1.0598293048-.9828050906,1.9038116837-2.3740176428,2.677039261-4.3109676512.5899218891-1.4771930705,1.2117879291-2.9424444024,1.8073821441-4.4172491252h0c-.595594215,1.4748047228-1.2177587984,2.9394589677-1.8073821441,4.4172491252Z"/>
  <path class="cls-6" d="M509.754241087,649.6686666106c-1.0057929375.9111546587-2.2307167791,1.4353969853-3.7592593258,1.711251148,1.5282440032-.2758541627,2.7531678449-.8000964893,3.7592593258-1.711251148Z"/>
  <path class="cls-6" d="M394.3504729852,640.8795469671h-.0462742373c7.4373148288,2.5937456339,14.8653748101,5.1433068348,22.3146313775,7.6224117778,2.3468501874.7809897075,4.7731129368,1.3649407273,7.250426619,1.8032025356-2.4773136821-.4382618083-4.9032778881-1.0222128281-7.2501280755-1.8032025356-7.4337323072-2.4743282475-14.8468651152-5.0340399262-22.2686556837-7.6224117778Z"/>
  <path class="cls-6" d="M438.973167784,651.6163641838c-3.8025481284-.1062814739-7.6179336258-.29973764-11.3533094743-.7547178824,3.735077305.4549802424,7.5507613459.6484364085,11.3533094743.7547178824Z"/>
  <path class="cls-6" d="M501.6452034593,651.5990486628c.7684508819.0316456074,1.4810741356.0388106506,2.1444377174.017315521.8129338583-.026271825,1.530035264-.114640691,2.2053405845-.2364464252,1.5285425467-.2758541627,2.7534663883-.8000964893,3.7592593258-1.711251148.0194053253-.017912608.035228129-.0429902591.0546334543-.0609028671,1.0601278483-.9828050906,1.9038116837-2.3740176428,2.677039261-4.3109676512.5896233456-1.4777901575,1.2117879291-2.9424444024,1.8073821441-4.4172491252h-66.1611131643c-.2313711863,3.6553661996-.5582762817,7.2838634872-.9744458735,10.8860889497,18.1586077852.2949609446,36.3593101992-.9105575718,54.4874665508-.1665872541Z"/>
  <path class="cls-6" d="M416.6191286689,648.5019587449c2.3468501874.7809897075,4.7728143934,1.3649407273,7.2501280755,1.8032025356,1.2386568411.2197279911,2.4901510512.4030336793,3.7506015653.5564850209,3.7353758485.4549802424,7.5507613459.6484364085,11.3533094743.7547178824,1.3303096852.0370193898,2.6588281095.0644853887,3.9819727515.0871746921,1.2762733178.0214951296,2.5471728532.0406019114,3.8094146281.0620970409.1310605816.0023883477.2621211633-.0023883477.3931817449,0,.4161695918-3.6022254626.7430746873-7.2307227502.9744458735-10.8860889497h-53.7817097968c7.4217905685,2.5883718515,14.8349233766,5.1480835303,22.2686556837,7.6224117778Z"/>
  <rect class="cls-6" x="155.9041051132" y="860.5681303173" width="614.5173925749" height="33.9629017963"/>
  <path class="cls-6" d="M562.2701265873,786.6917583572h207.6307112958l.3928832015-8.1854647549-2.7904857781-6.1219323169-154.9789885183,1.4974940262c-16.3061455777,5.3463163918-33.0807058539,9.631012218-50.2541202008,12.8099030456Z"/>
  <path class="cls-6" d="M419.246311171,786.6917583572c-11.8423236718-2.1919061285-23.4885042864-4.9188021483-34.9298840832-8.1532220606-.555290847-.1570338632-1.1105816941-.3134706394-1.6649769107-.4728928504-2.2250444532-.6394801045-4.4748680142-1.2198486027-6.6837911202-1.8981393578l-219.5808091589,2.1214498705,1.719610365,8.4028043983h261.139850908Z"/>
  <path class="cls-6" d="M413.3396286932,394.0903819335c4.2539458492,10.0573322877,11.3174842583,18.4464036866,20.2636377651,24.2130692788,1.3112029033.8454750961,2.6788305218,1.6109405434,4.0682518132,2.3405807746,4.356943345-6.1273060993,8.8924156828-12.1166851172,13.5759655798-17.984258401h-2.6409155016l-25.0612312661-32.4683932048-12.2101292221-7.1674315354c.171662493,6.5918397326-.3170531611,13.6517956202-2.2169837796,20.9887998444-.251672142.9726546127-.5615602598,1.9094840095-.8221887058,2.8767648398.3731793327.4287084174.7711377731.8813003121,1.1240161501,1.2998582516,1.6443774116,1.9530713556,3.038873942,3.8183709321,3.9195771671,5.901010152Z"/>
  <path class="cls-6" d="M384.3164270878,778.5385362966c11.4413797968,3.2344199123,23.0875604114,5.9613159321,34.9298840832,8.1532220606h143.0238154163c17.1734143469-3.1788908276,33.9479746231-7.4635866538,50.2541202008-12.8099030456l-225.6098944579,2.1799643898c-.8472663569.8448780092-1.7363287991,1.6461686724-2.5979252425,2.4767165952Z"/>
  <path class="cls-6" d="M518.0791256406,631.6270878641c-1.2658242965,3.0821627445-2.5379180058,6.1625342283-3.7858296943,9.252459103h145.6802551781c-.56932239-.0232863904-1.1538704967-.0525436501-1.6769186494-.0632912148-33.2511741731-.6926208415-66.5083192154-1.1523777793-99.7624788232-1.7661831458-4.2488706103-.0788154751-8.4902776339-.6567956255-14.5736978437-1.1535719532,4.123780898-10.1015167207,7.8296009433-19.518771817,11.7799280874-28.664949446l-28.1771294223-.864581878c-.7696450557,1.8772413152-1.5151080907,3.7646331082-2.2886342115,5.6400831625-2.4190977062,5.865184936-4.785353219,11.7506708277-7.1954946212,17.6200353723Z"/>
  <path class="cls-6" d="M536.8718397479,433.5058815957c12.7245196143,5.953553802,25.4675489235,11.8659086057,38.1559447785,17.8976807958.0047766955.0017912608.008956304.0047766955.0137329994.0071650432,1.3458339454.6400771914,2.6430053058,1.3470281193,3.9082325154,2.0653236988.1131479737.0638883017.2379391425.1206115603.3501914858.185096949.0522451066.0298543466.0937426484.0710533449.1450921245.1021018654.8499532481.4896112845,1.6748288451.9690720911,2.4692530085,1.4521154194,3.404589688-7.5244895209,7.5012031305-14.2130573366,11.2915109768-19.9438977128-9.4542744861-6.0049032782-18.6064229844-12.4397091476-27.4236057138-19.2906846089-9.3742648372,6.2240341823-19.0085610333,12.0850395098-28.9103521752,17.52509855Z"/>
  <path class="cls-6" d="M530.1641651504,402.6597735859h-78.9166812991c-4.683549897,5.8675732837-9.2190222348,11.8569523017-13.5759655798,17.984258401,3.3496576902,1.7590181026,6.9023249374,3.1979976094,10.6472541768,4.2261813068,5.2982508938,1.4545037671,10.9517685123,2.134585783,16.8441209037,1.9214257482,7.8564698553-.2842133798,16.1374685194-2.1566779995,24.5689330904-5.8986218042,4.8925303233-2.1716051728,9.2378304731-2.6540514141,13.4741622578-1.9745664851,2.7009227383.432290939,5.3582581305,1.3279213375,8.0815716287,2.5865805907,8.5490906967,3.9551038396,17.0522056997,8.0093241099,25.5842794188,12.0008502524,9.9017911419-5.4400590402,19.536087338-11.3010643677,28.9103521752-17.52509855-7.6654020369-5.9553450628-15.0749523233-12.2223695043-22.2187989249-18.7771898471l-13.3992278478,5.4561803874Z"/>
  <path class="cls-6" d="M624.1396774257,413.6031828812c.9535478309-.1910678184,1.8811223802-.3558638117,2.7824251045-.4955821538-1.4144989426-1.3709115966-3.0460389851-2.8051144079-4.7241518084-4.2835016523-2.1996682586-1.9327703999-4.4256083422-3.8977834941-6.6282620355-5.9529567151l-14.2903800943-13.3401162415c-11.3216638669,9.4483036168-23.175033647,18.2690688677-35.4971166689,26.4497569272,8.8171827293,6.8509754612,17.9693312277,13.2857813307,27.4236057138,19.2906846089.370193898-.5588733687.7547178824-1.164319518,1.1171496503-1.7052802787,6.6628930776-9.949259553,18.0905398749-17.6009285904,29.8167301384-19.9630044946Z"/>
  <path class="cls-6" d="M702.2204370196,343.2902257331c18.2359305429-1.2538825578,34.2005423954-6.3392719603,48.2598498469-15.3618525943l-71.3118835858,16.4945265049c7.4182080469-.1337474728,15.0668916497-.5827568459,23.0520337389-1.1326739106Z"/>
  <path class="cls-6" d="M543.5633929982,397.2035931985c7.1438466015,6.5548203428,14.553396888,12.8218447843,22.2187989249,18.7771898471,12.3220830219-8.1806880595,24.175452802-17.0014533104,35.4971166689-26.4497569272l-11.8076926298-11.0222247703-45.908222964,18.6947918504Z"/>
  <path class="cls-6" d="M375.9676590569,776.1675040885c2.2089231061.6782907551,4.458746667,1.2586592533,6.6837911202,1.8981393578-.211368774-.6561985386-.4537860686-1.2986640778-.6618708645-1.9566538772l-6.0219202558.0585145194Z"/>
  <path class="cls-6" d="M279.0398504448,620.6263582234l5.7824883959,2.8021289733-.017315521.0113446517,26.9823584708,13.0917280777c2.4026778156-4.9534331904,3.3069659746-10.5003707915,2.4838816384-15.2215371652l3.4138445354,19.5695242063h45.7640264699c.1173275822-3.6135701143.277943967-7.21519849.4896112845-10.80428804-3.1965048921-1.155363214-6.4482403254-2.3399836877-9.6650461732-3.5078857273-6.1093934913-2.2181779535-12.286257806-4.4524772542-18.4911852065-6.7088687713-7.4597055887-2.7119688466-14.954340763-5.4364765186-22.601830192-8.1860618419.8015892066-2.133988696,1.644675955-4.2369288716,2.4501462267-6.367932133-2.0169596573,1.1923826038-4.1001959641,2.2814691684-6.3127015918,3.1520219156-.3448177034-.5540966732-.7099363625-1.1046108247-1.0953559773-1.649154107l-5.0400107956,3.5819245069c-4.4459092979,1.0753535651-9.2163353436,1.5536201979-14.1954432721,1.4174843773-1.804098166-.0507523893-3.8762883645-.1026989524-6.1422332726-.1564367763-1.0610234787,2.4391001185-2.1005518278,4.7737100238-3.2033713918,7.0533879313-.2815264886.5815626721-.4684146984,1.2365670368-.6018636278,1.922619922Z"/>
  <path class="cls-6" d="M381.9895793126,776.1089895691c.2080847959.6579897994.4505020904,1.3004553386.6618708645,1.9566538772.5543952166.1594222109,1.1096860637.3158589872,1.6649769107.4728928504.8615964433-.8305479228,1.7506588855-1.631838586,2.5979252425-2.4767165952l-4.9247730176.0471698677Z"/>
  <path class="cls-6" d="M392.0475086873,640.0913922165c-3.0170802689-1.0562467833-6.0595367325-2.151901304-9.0822893273-3.2242694344-5.3006392415-1.8808238368-10.6123245913-3.7598564127-15.9472963314-5.6830734217-1.0231084585-.3689997242-2.0542775906-.7385965353-3.0791773099-1.1087904333-.2116673175,3.5890895501-.3722837023,7.1907179257-.4896112845,10.80428804h30.8550643137c-.7508368174-.2621211633-1.5058532433-.5254365004-2.2566900606-.7881547507Z"/>
  <path class="cls-6" d="M803.5422083664,765.5817498657c1.3183679465,2.8958716216,2.0330810045,5.8502577627,2.3020686675,8.7765808179-.0298543466-3.6625312427-.7427761438-7.4044750475-2.4065588806-11.0562587255l-37.8535202473-83.0458359794c-.2134585783.211368774-.4382618083.4107958094-.6520189301.6221645835l38.6100293905,84.7033493035Z"/>
  <path class="cls-6" d="M183.5665455999,643.8590107593c-.2534634028-.3224269434-.507225349-.643659713-.7597931214-.9672808303l-59.7018267306,119.5332213256c-2.3802870556,4.7659478936-3.1454539594,9.7325169965-2.7298814545,14.4936881947-.0080606736-4.0530260965.8329362706-8.2057657106,2.8343716677-12.2140102872l60.3571296388-120.8456184028Z"/>
  <path class="cls-6" d="M120.2908550359,782.3198878389h.5708151073c-.1528542547-.7463586654-.1892765575-1.5177949819-.2797352278-2.2790808206h-.3940773753v190.2695131087c0,.3498929423.0779198447.6782907551.1029974958,1.0210186543v-189.0114509423Z"/>
  <path class="cls-6" d="M754.4171795546,969.5496313752v.7606887517c0,.3546696378.0785169316.687844146.1044902131,1.0365429145v-1.7972316662h-.1044902131Z"/>
  <path class="cls-6" d="M925.9011435991,309.3464307186c.0053737824-.6060432363.0558276282-1.1899942561-.0050752389-1.8294743606-.2871988144-3.0224540513-1.9620276595-5.883097544-4.5898072486-8.255921013-.3164560741.4442326776-.5839510198.9242905712-.9269774624,1.3470281193,3.1206748517,2.4098428588,5.0662826206,5.4884230817,5.5218599499,8.7383672543Z"/>
  <path class="cls-6" d="M825.5308302789,147.9663717425c26.5070772727.026271825,53.0141545454.1880823837,79.5242172527.3319803344,2.4229787713.0125388256,4.8516298684.2692862065,7.2629654445.5242423266,6.8447060485.7272518835,11.9462167981,3.7962787156,12.9496213878,10.6944240445.0226893034-.3875094191.1053858436-.7714363166.0764271273-1.1613340833-.5726063681-7.7286932517-5.9096679125-11.0473024215-13.129046011-11.8127678687-2.4128282934-.255553207-4.8414793906-.5123005879-7.2644581619-.5254365004-26.50856999-.1427037768-53.0156472627-.3045143355-79.5239187093-.3307861605-13.5535748198,0-27.1074481831-.0274659989-40.6610230029-.0394077375.6624679514.7571062301,1.3195621204,1.5189891558,1.9763577459,2.2814691683,12.9296189756.0113446517,25.8592379511.0376164767,38.7888569267.0376164767Z"/>
  <path class="cls-6" d="M390.4335827093,255.2664759991c16.943535878-15.2173575567,32.3209127325-32.1149177409,45.0236386738-50.9195735869-.1227013646-.6317179744-.2406260337-1.2646301226-.3597448767-1.8975422709-12.6528691824,18.6518015913-27.9382946494,35.4227793459-44.7677869233,50.5374379502-15.090775127,13.5526791894-24.2396396473,28.294755548-23.1042788455,46.3620090326-.2582400982-17.0360843525,8.7565784057-31.1028553906,23.2081719717-44.082331125Z"/>
  <path class="cls-6" d="M374.6409318933,375.0886873999c1.1075962594-4.2763366092,1.2374626672-8.8392749458.9586230698-13.4953588439.1026989524,3.8619582782-.1358372771,7.6403243858-1.0616205656,11.2162780233-5.3890081075,20.8341543289-13.4272909336,41.0342023356-21.1335934254,61.2073814305-1.803501079,4.7211663737-3.660142895,9.4220317918-5.4761827996,14.13842147.2674949457.1630047325.5236452396.3415337253.7902445549.5063297186,1.5870570661-4.1258707022,3.2117306089-8.2362171442,4.7889357405-12.3650732811,7.7063024918-20.1731790948,15.7460780352-40.3738241885,21.1335934254-61.2079785174Z"/>
  <path class="cls-6" d="M786.7419733522,147.9287552658c-.6567956255-.7624800126-1.3138897945-1.5243629382-1.9763577459-2.2814691683-14.5710109525-.0131359125-29.1411262745-.0220922165-43.712137227-.0423931722-.1259853427.7630770995-.2770483366,1.5177949819-.4072132878,2.2790808206,15.3651365724.0214951296,30.7305716883.0310485205,46.0957082608.0447815199Z"/>
  <path class="cls-6" d="M738.5866137185,147.882182485c.6866499721.000597087,1.3730014008.0011941739,2.059651373.0017912608.1301649512-.7612858387.2812279451-1.5160037211.4072132878-2.2790808206-1.6198968473-.0017912608-3.2400922381-.0017912608-4.8599890855-.0041796085.798006685.7606887518,1.6022827828,1.5136153734,2.3931244247,2.2814691683Z"/>
  <path class="cls-6" d="M442.7637741737,192.8004353153c-.6911281241.343922073-1.3900183784.6639606687-2.0829377633,1.0031060463-1.7966345793,2.9269201421-3.6583516342,5.8084616774-5.583359904,8.6458187797.119118843.6329121483.2370435121,1.2658242965.3597448767,1.8975422709,2.5471728532-3.7712010644,4.9880642325-7.6164409085,7.3065527906-11.5464670969Z"/>
  <path class="cls-6" d="M511.5637130353,147.9359203089c.7887518376-.0208980426,1.5655619365-.0710533449,2.3626729911-.0722475188,34.3381709333-.0800096489,68.6760433232-.1062814739,103.0112288218-.1032960393,40.5496662901.0029854346,81.0993325801.0644853887,121.6489988702.1218057342-.7908416418-.7678537949-1.5951177396-1.5207804166-2.3931244247-2.2814691683-39.7862906471-.0573203455-79.5725812942-.1170290387-119.3588719414-.1206115603-34.1638215491-.0029854347-68.3273445547.0238834773-102.4926588211.1026989524-.5221525223.4442326776-1.0078827417.9141400934-1.5333192422,1.3553873363-.4093030921.343922073-.8344289879.6561985386-1.2449262539.9977322639Z"/>
  <path class="cls-6" d="M749.6339161399,647.3161440974l15.298262836,33.5622564648c.2137571218-.211368774.4385603518-.4107958094.6520189301-.6221645835l-15.3170710744-33.60405255c-.2092789698.2233105127-.423334635.4418443299-.6332106917.6639606687Z"/>
  <path class="cls-6" d="M693.3232446413,573.6081506522c-25.3361897984-.0979222569-50.6741708577-.2000241223-76.0073752215-.4466210254-14.7098336642-.1421066899-29.4399682842-.8371158791-45.9858442652-1.3541931624-.3221284.7618829256-.6221645835,1.4706251143-.9493682224,2.2438526916,16.9865261371.520659805,32.0110246147,1.2455233408,47.0382099834,1.3900183784,25.3346970811.246596903,50.6723795969.3492958554,76.0085693953.4466210254,14.4417416316.0561261716,27.5286930139,8.5120713069,33.5177734883,21.6539546869l22.6887063406,49.7743608507c.2098760567-.2221163388.4239317219-.440650156.6332106917-.6639606687l-23.4249145281-51.3912722634c-5.9899761049-13.1406892061-19.0772260306-21.5972314284-33.5189676622-21.6527605131Z"/>
  <path class="cls-6" d="M657.353235122,393.3493970505c5.0779258158,5.9893790179,7.7224238389,13.2607036795,8.2466661655,20.5296399934-.0800096489-8.0152949793-2.7412261062-16.1924005171-8.3511563787-22.8093179009-4.1927444386-4.9450739734-9.2700731675-9.1617018893-14.3659115912-13.7025480094-1.0043002201-.1839027751-2.0062120925-.3230240304-3.0117064865-.5302131959,6.1010342743,5.6932238995,12.4334397348,10.557691137,17.4821082909,16.5124391129Z"/>
  <path class="cls-6" d="M444.3275448494,187.7544536504c-1.1679020396,2.0486052647-2.4155151846,4.0428756186-3.646708439,6.0490877112.6929193849-.3391453776,1.3918096392-.6591839733,2.0829377633-1.0031060463.5475287169-.9278730928,1.133569541-1.8294743606,1.6676638019-2.7657066704,16.0673108048-28.1872799002,38.9506674854-41.3387166711,67.1322750597-42.0988083359.410497266-.3415337253.8356231618-.6538101909,1.2449262539-.9977322639.5254365004-.4412472429,1.0111667199-.9111546587,1.5333192422-1.3553873363-.1728566669.0005970869-.3457133338.0005970869-.5185700007.0011941739-29.2754708343.0680679103-52.9786278729,13.19442703-69.4958436812,42.1704587678Z"/>
  <path class="cls-6" d="M200.7581710982,609.4381432859c-.2436114684-.3415337253-.4878200237-.6830674506-.7302373182-1.0257953497l-17.2211813015,34.4793819928c.2525677724.3236211173.5063297186.6448538869.7597931214.9672808303l17.1916254984-34.4208674734Z"/>
  <path class="cls-6" d="M207.4270350451,596.0860853057c6.4876480629-12.9890291253,19.8513492383-21.1004551007,34.3686223669-20.8520669368,16.396604248.2812279451,37.1608994058.6633635818,48.1944688278.9726546127,6.5846746894.185096949,10.1379390236-1.9679985289,12.6158497926-8.4619160046,10.8018996923-28.3007264173,21.8235273757-56.5178606641,32.8135094517-84.7469366496-.326606552-.0059708693-.6511232997-.0185096949-.9771327647-.0250776512-10.7012905442,27.4767464508-21.4264645657,54.9445365975-31.9408669001,82.4923363932-2.4779107691,6.4939174757-6.0296823859,8.6464158667-12.6158497926,8.4619160046-11.0329723351-.308693944-31.7969689494-.6914266676-48.1944688278-.9726546127-14.5163774982-.2489852508-27.8806757605,7.8630378115-34.3680252799,20.8520669368l-7.2952081389,14.605940538c.2424172945.3427278991.4866258498.6842616244.7302373182,1.0257953497l6.6688639469-13.3520579802Z"/>
  <path class="cls-6" d="M279.7447115684,620.9840132958c-.4057205705.837712966-.6848587114,1.5828774575-.8932420507,2.2808720814.0211965861.4979705016.1119537998,1.0096740025.1877838402,1.5195862427.0149271733-1.3912125523.181215884-2.7167455419.7054582105-3.8004583241Z"/>
  <path class="cls-6" d="M347.9281581724,448.1554094797c-4.4727782099,11.6145350072-8.9688428101,23.2195166234-13.485805453,34.8173331965.326009465.0065679562.6505262127.0191067818.9771327647.0250776512,4.4527757977-11.4377972752,8.8918185959-22.8815654197,13.2989172432-34.3360811291-.2665993153-.1647959933-.5227496092-.3433249861-.7902445549-.5063297186Z"/>
  <path class="cls-6" d="M764.932178976,680.8784005621c-4.5668194017,4.5014383826-9.247980951,8.8834593788-14.0309458222,13.1574076402l28.4607457152,78.233912392-11.8587435625.114640691,2.7904857781,6.1219323169-.3928832015,8.1854647549h9.4614395293v73.8763719601h-8.9407797243v33.9629017963h8.9407797243v75.7792880133c0,7.7561592506-6.2876239406,14.0434846478-14.0431861043-3.0403666593h-10.9019117535v2.2796779075h.1044902131v1.7972316662c.5394680433,7.2629654446,6.5384004522,13.0069417333,13.9395915216,13.0069417333h23.4264072455c7.7564577941,0,14.0440817347-6.2873253972,14.0440817347-14.0434846478v-194.3177625096h-.0770242143c.0271674554-.5403636737-.0059708693-1.0890865645-.0104490213-1.6342269337-.268987663-2.9263230552-.983700721-5.8807091963-2.3020686675-8.7765808179l-38.6100293905-84.7033493035Z"/>
  <path class="cls-6" d="M901.3292250741,307.4256020574l-31.7169593005-.1170290387c1.3291155113,5.2949669157,2.5818038953,10.6197881779,3.6923855894,15.9983472641,12.3328305867-.2042037308,24.66536263-.4101987225,36.9975961298-.617387888,9.7543106696-.1647959933,15.5254544138-5.2901902202,15.5988961064-13.3431016762-.4555773293-3.2499441725-2.4011850983-6.3285243955-5.5218599499-8.7383672543.3430264426-.4227375481.6105213883-.9027954417.9269774624-1.3470281193-.3445191599-.3110822917-.6520189301-.6406742784-1.0308705886-.9326497883-4.4891981005,5.5278308193-11.2643435214,9.1258766733-18.9461654489,9.0972165006Z"/>
  <path class="cls-6" d="M912.3180129762,148.8225944034c-2.4113355761-.2549561201-4.8399866733-.511703501-7.2629654445-.5242423266-26.5100627073-.1438979507-53.01713998-.3057085093-79.5242172527-.3319803344-12.9296189756,0-25.8592379511-.026271825-38.7888569267-.0376164767,2.9546846845,3.4296673392,5.8639907622,6.8945628073,8.6998551471,10.4269290988h105.6067657165c7.9212537874,0,14.8940349828,3.8356864531,19.3489005848,9.6901238244,2.8170561466-2.2605711257,4.6820571797-5.3164620452,4.8701395633-8.528789741-1.0034045897-6.8981453289-6.1049153393-9.967172161-12.9496213878-10.6944240445Z"/>
  <path class="cls-6" d="M134.2316407314,984.3538047748h23.4281985063c7.7561592506,0,14.0437831912-6.2873253972,14.0437831912-14.0434846478v-3.0403666593h-12.6071920321c-7.757054881,17.0838513071-14.0449773651,10.7965259099-14.0449773651,3.0403666593v-75.7792880133h10.8526520816v-33.9629017963h-10.8526520816v-73.8763719601h13.0550072314l-1.719610365-8.4028043983-2.3143089496.0220922165,48.965009514-111.4462759145c-6.79574492-7.3979070912-13.2553298971-15.0991343441-19.4710048624-23.0057595017l-60.3571296388,120.8456184028c-2.0014353971,4.0082445766-2.8424323412,8.1609841907-2.8343716677,12.2140102872.0913543007,1.0484846531.1740508408,2.0999547409.383628354,3.122167569h-.176737732c.0904586702.7612858387.1268809731,1.5327221552.2797352278,2.2790808206h-.5708151073v189.0114509423c.5323030001,7.2707275747,6.5345193871,13.0224659936,13.9407856954,13.0224659936Z"/>
  <path class="cls-6" d="M403.9985021808,381.7671047377c1.4786857879,1.9088869226,2.9308012072,3.5478905517,4.2975331953,5.1224087922.2606284459-.9672808303.5705165638-1.9041102271.8221887058-2.8767648398,1.8999306186-7.3370042241,2.3886462727-14.3969601117,2.2169837796-20.9887998444l-26.222266806-15.3929011148v-65.2269706587l53.295083947-64.3253693909c-1.072069587-4.5444286418-2.0563673949-9.1210999779-2.9508036194-13.7318052691-12.7027259413,18.804655846-28.0801027958,35.7022160302-45.0236386738,50.9195735869-14.451593566,12.9794757344-23.4664120699,27.0462467726-23.2081719717,44.082331125.1238955385,1.9721781374.3343686821,3.9724193606.7099363625,6.0263984077,2.1029401756,11.5034768378,4.0646692917,23.0224779358,5.3185518495,34.6489546816.7615843822,7.0587617137,2.1569765429,14.4638338481,2.3456560136,21.5691683425.2788395974,4.6560838981.1489731896,9.2190222348-.9586230698,13.4953588439-5.3875153902,20.8341543289-13.4272909336,41.0347994226-21.1335934254,61.2079785174-1.5772051317,4.1288561369-3.2018786745,8.2392025789-4.7889357405,12.3650732811,7.7961640751,4.8083410658,15.2513915118,10.1122642855,22.3274687466,15.8681823129,3.3953348406-8.4535567876,6.7844002683-16.8856184456,10.1806307392-25.3678354058,7.6176350823-19.0231896632,15.2263138607-38.1305685839,22.7719999677-57.3949813677Z"/>
  <path class="cls-6" d="M748.9212928862,158.3556843646h46.5205356131c-2.835864385-3.5323662915-5.7451704626-6.9972617596-8.6998551471-10.4269290988-15.3651365724-.0137329994-30.7305716883-.0232863904-46.0957082608-.0447815199-.0958324526.5606646294-.2012182962,1.1171496503-.2994390965,1.6766201059,2.9188594686,2.8725852313,5.7553209405,5.8239859377,8.5744668913,8.7950905128Z"/>
  <path class="cls-6" d="M740.3468259949,149.5605938518c-.5143903922,2.9346822722-.9929555684,5.8819033701-1.570338632,8.7950905128h10.1448055233c-2.8191459509-2.9711045751-5.6556074228-5.9225052815-8.5744668913-8.7950905128Z"/>
  <path class="cls-6" d="M740.6462650914,147.8839737458c-.6866499721-.0005970869-1.3730014008-.0011941739-2.059651373-.0017912608.5815626721.564844238,1.182232126,1.1099846072,1.7602122764,1.6784113667.0982208004-.5594704556.2036066439-1.1159554765.2994390965-1.6766201059Z"/>
  <path class="cls-6" d="M513.9263860264,147.8636727901c-.7971110546.0011941739-1.5739211535.0513494762-2.3626729911.0722475188-4.321715216,3.5962545933-8.7061245599,7.0641354961-13.1451673581,10.4197640556h240.3579416858c.5773830635-2.9131871427,1.0559482398-5.8604082406,1.570338632-8.7950905128-.5779801505-.5684267596-1.1786496044-1.1135671288-1.7602122764-1.6784113667-40.5496662901-.0573203455-81.0993325801-.1188202995-121.6489988702-.1218057342-34.3351854987-.0029854346-68.6730578885.0232863904-103.0112288218.1032960393Z"/>
  <path class="cls-6" d="M438.4080250025,218.0787076813l35.2905245903-42.5937934028c-10.0868880909,6.3559903944-20.4239556064,12.0910103791-30.9347754192,17.3155210368-2.3184885581,3.9300261884-4.7593799374,7.7752660324-7.3065527906,11.5464670969.8944362246,4.6107052913,1.8787340325,9.1873766274,2.9508036194,13.7318052691Z"/>
  <path class="cls-6" d="M738.1414854104,658.9611305381l12.7597477433,35.0746776643c4.7829648712-4.2739482614,9.4641264205-8.6559692576,14.0309458222-13.1574076402l-15.298262836-33.5622564648c-3.7437350655,3.9682397521-7.571957932,7.8516931598-11.4924307295,11.6449864407Z"/>
  <path class="cls-6" d="M693.427436311,575.8878285597c-25.3361897984-.0973251699-50.6738723142-.2000241223-76.0085693953-.4466210254-15.0271853687-.1444950376-30.0516838463-.8693585734-47.0382099834-1.3900183784.3272036389-.7732275773.6272398224-1.481969766.9493682224-2.2438526916-.3585507029-.0113446517-.6920237545-.0238834773-1.0523657182-.035228129,6.1081993175-14.4512950226,11.3580861697-26.8115916082,16.5590118936-39.1927862364,8.9786947445-21.3721296549,17.7603508014-42.8284485672,26.989523514-64.0907142265,2.4635806827-5.6735200307,5.7723379181-11.0293898135,9.212155735-16.2109102121-10.2469073887-5.1857000071-20.189300442-10.8807151673-29.8325529421-17.0062300058-3.7903078463,5.7308403762-7.8869212888,12.4194081919-11.2915109768,19.9438977128,1.6309429556.9899701337,3.1582913284,1.9441150516,4.4754651011,2.707789238-2.9385633373,7.5609118237-5.8496606758,15.065100389-8.7658332531,22.579439432-4.9191006918,12.6767526597-9.8190946017,25.3033500172-14.6993846429,37.8762095507-.8669702257,2.2331051268-1.7378215165,4.4793461661-2.6041946552,6.7100629452-3.4574318815,8.9025661606-6.9127739588,17.7824430179-10.3672204056,26.6527664842-.8150236626,2.0921926108-1.6300473252,4.1939386125-2.4453695312,6.2849370494-4.2360332412,10.866385081-8.4759475475,21.7178429887-12.7301919402,32.5603445924-2.3364011661,5.9541508889-4.7880401101,11.8617289972-7.2143028596,17.7800546701l28.1771294223.864581878c.9263803755-2.1447362608,1.8515665771-4.2870841739,2.8155634293-6.4055486098.718594123-1.578697849,4.5704019233-2.4050661633,6.9832302168-2.4301438145,14.6026565599-.1528542546,29.2082985544.0591116063,43.8124478316.0937426484,35.888507153.0865776052,71.7770143061.0340339551,107.6628345679.3964657231l21.1270254692,58.0750633836c3.9204727975-3.7932932809,7.748695664-7.6767466886,11.4924307295-11.6449864407l-22.6887063406-49.7743608507c-5.9890804745-13.14188338-19.0760318567-21.5978285153-33.5177734883-21.6539546869Z"/>
  <path class="cls-6" d="M833.9814016318,308.6149992265c1.3882271176,5.0298603177,2.6561412184,10.1050992423,3.8258345187,15.2209400783,11.8324717375-.1689756019,23.6649434749-.3343686821,35.4974152124-.529019022-1.1105816941-5.3785590862-2.3632700781-10.7033803485-3.6923855894-15.9983472641l-29.5098274552-.1098639955-6.1210366865,1.4162902034Z"/>
  <path class="cls-6" d="M750.4802868665,327.9283731388c-14.0593074515,9.0225806341-30.023919304,14.1079700365-48.2598498469,15.3618525943-7.9851420892.5499170647-15.633825692.9989264377-23.0520337389,1.1326739106l-13.8712250678,3.2081480873-33.564943356,13.6685140543c-9.6704199556,9.9116430763-19.8134342181,19.3533787367-30.4529262648,28.2314643332l14.2903800943,13.3401162415c2.2026536933,2.055173221,4.4285937769,4.0201863152,6.6282620355,5.9529567151,1.6781128232,1.4783872444,3.3096528658,2.9125900558,4.7241518084,4.2835016523-.9013027243.1397183422-1.8288772736.3045143355-2.7824251045.4955821538-11.7261902635,2.3620759042-23.1538370609,10.0137449417-29.8167301384,19.9630044946-.3624317679.5409607607-.7469557523,1.14640691-1.1171496503,1.7052802787,9.6432525002,6.1255148385,19.5856455534,11.8205299988,29.8325529421,17.0062300058.256150294-.3857181582.5054340882-.7786013597.762778556-1.1619311703,1.4473387239-2.1590663472,4.7175838521-4.3664967359,7.2653537923-4.8805885846,5.5741050565-1.1249117805,11.8181416511-.3242182042,16.8124752963-2.5280660714,11.5852777475-5.1134524883,17.8463313196-17.2707395169,17.7209430638-29.8280747902-.5242423266-7.2689363139-3.1687403497-14.5402609755-8.2466661655-20.5296399934-5.0486685561-5.9547479759-11.3810740166-10.8192152133-17.4821082909-16.5124391129,1.005494394.2071891655,2.0074062664.3463104207,3.0117064865.5302131959-1.0401254361-.9266789189-2.0817435895-1.8449986208-3.1158981562-2.8098911034,21.732173075,4.4853170355,43.1819240311,3.4678809028,64.7937840893,1.9823286152,38.3449227925-2.6355417192,69.9570933364-18.2833989541,95.1034094904-47.0068629195,3.4663881855-3.959880535,6.7455896177-5.2716805253,11.6581223532-5.3278066969,8.828527381-.1003106046,17.6567562186-.2436114684,26.4849850562-.3689997242-1.1696933004-5.115840836-2.4376074011-10.1910797606-3.8258345187-15.2209400783l-83.5011147653,19.3133739123Z"/>
  <path class="cls-6" d="M601.279308592,389.5310261184c10.6394920467-8.8780855964,20.7825063092-18.3198212569,30.4529262648-28.2314643332l-42.2606188946,17.2092395629,11.8076926298,11.0222247703Z"/>
  <path class="cls-6" d="M487.8907088868,158.3556843646h10.5278367904c4.4390427982-3.3556285595,8.8234521421-6.8235094624,13.1451673581-10.4197640556-28.1816075743.7600916648-51.0649642549,13.9115284358-67.1322750597,42.0988083359-.5340942609.9362323098-1.120135085,1.8378335776-1.6676638019,2.7657066704,10.5108198128-5.2245106577,20.8478873283-10.9595306424,30.9347754192-17.3155210368l14.1921592939-17.1292299139Z"/>
  <path class="cls-6" d="M218.8260216697,632.730504515c-6.341660308-7.5018002175-12.3534300859-15.2800516846-18.0678505715-23.2923612292l-17.1916254984,34.4208674734c6.2156749653,7.9066251576,12.6752599424,15.6078524104,19.4710048624,23.0057595017l11.9856245356-27.2797077631c1.2703024485-2.2975905155,2.5331413103-4.5647295975,3.8028466718-6.8545579828Z"/>
  <path class="cls-6" d="M283.8875992482,628.0176973583c10.5338076597,3.475643033,20.8048970692,7.7519796421,30.8171492935,12.8618496088h2.9803594226l-3.4138445354-19.5695242063c.8230843362,4.7211663737-.0812038228,10.2681039748-2.4838816384,15.2215371652l-26.9823584708-13.0917280777.017315521-.0113446517-5.7824883959-2.8021289733c-.1621091021.8311450098-.2277886647,1.7154307565-.1883809271,2.6385271538.2083833394-.6979946238.4875214802-1.4431591154.8932420507-2.2808720814-.5242423266,1.0837127822-.6905310372,2.4092457718-.7054582105,3.8004583241.0185096949.1229999081.0238834773.2430143815.0450800634.3660142895.8123367714,1.1458098231,2.3417749485,2.055173221,4.8032658269,2.8672114489Z"/>
  <path class="cls-6" d="M236.3105183084,601.2293921405h51.0318259301c-1.680501171,3.8416573224-3.1084345696,7.2289314894-4.4972587741,10.4209582295,2.2659449081.0537378239,4.3381351067.105684387,6.1422332726.1564367763,4.9791079285.1361358206,9.7495339741-.3421308122,14.1954432721-1.4174843773l5.0400107956-3.5819245069c.3854196148.5445432823.7505382739,1.0950574338,1.0953559773,1.649154107,2.2125056276-.8705527473,4.2957419345-1.9596393118,6.3127015918-3.1520219156.2695847499-.7135188841.5502156081-1.4192756381.820397445-2.1321974352.0585145194-.1898736445.0803081924-.3833298105.1516600808-.5720092811,3.8374777139-10.1277885457,7.7955669882-20.1695965732,11.7049936774-30.2448414689,2.8713910575-7.400295439,5.6959107907-14.8394015286,8.599245999-22.2211872726,4.9140254529-12.4946411454,9.896118816-24.9719667697,14.8767194618-37.4445156986,2.6295708499-6.5846746895,5.230481527-13.186067813,7.8719941155-19.7731308502,1.3706130531-3.4177256005,2.7492867798-6.8569463306,4.1225867241-10.2770602788-6.9596452829.3570579855-13.9646691727.5433491084-21.0129818651.5433491084-2.4635806827,0-4.8928288668-.1415096029-7.3459605281-.185096949-10.989982076,28.2290759854-22.0116097594,56.4462102323-32.8135094517,84.7469366496-2.4779107691,6.4939174757-6.0311751032,8.6470129536-12.6158497926,8.4619160046-11.033569422-.3092910309-31.7978645798-.6914266676-48.1944688278-.9726546127-14.5172731286-.2483881639-27.8809743039,7.8630378115-34.3686223669,20.8520669368l-6.6688639469,13.3520579802c5.7144204856,8.0123095446,11.7261902635,15.7905610117,18.0678505715,23.2923612292,5.8941436522-10.628147395,11.7736586746-21.1834501843,17.4844966387-31.5011123745Z"/>
  <path class="cls-6" d="M363.7784278774,482.639568168c2.4190977062-6.0258013208,4.8435691948-12.074291945,7.2674435965-18.1096466568-7.0760772347-5.7559180274-14.5313046715-11.0598412471-22.3274687466-15.8681823129-4.4070986473,11.4545157093-8.8461414455,22.8982838538-13.2989172432,34.3360811291,2.4531316614.0435873461,4.8823798454.185096949,7.3459605281.185096949,7.0483126924,0,14.0533365822-.1862911229,21.0129818651-.5433491084Z"/>
  <path class="cls-6" d="M490.7582188792,793.3397242615c-24.4390666827,0-48.3159760185-2.3537166871-71.5119077081-6.6479659043H158.106460263l6.3936068711,31.2419766459h-8.5959620209v42.6343953142h614.5173925749v-46.6832418022h-1.825891839l1.305232034-27.1931301579h-207.6307112958c-23.1959316896,4.2942492171-47.0728410255,6.6479659043-71.5119077081,6.6479659043ZM754.4171795546,818.9619187005v16.7882932756c0,9.3736677502-7.5991253874,16.9727931377-16.9733902246,16.9727931377H188.6770126535c-9.3742648372,0-16.9733902246-7.5991253874-16.9733902246-16.9727931377v-16.7882932756c0-9.3742648372,7.5991253874-16.9727931377,16.9733902246-16.9727931377h548.7667766765c9.3742648372,0,16.9733902246,7.5985283005,16.9733902246,16.9727931377Z"/>
  <path class="cls-6" d="M490.7582188792,793.3397242615c24.4390666827,0,48.3159760185-2.3537166871,71.5119077081-6.6479659043h-143.0238154163c23.1959316896,4.2942492171,47.0728410255,6.6479659043,71.5119077081,6.6479659043Z"/>
  <polygon class="cls-6" points="770.4214976881 813.8848885151 770.4214976881 860.5681303173 779.3622774124 860.5681303173 779.3622774124 786.6917583572 769.9008378831 786.6917583572 768.5956058491 813.8848885151 770.4214976881 813.8848885151"/>
  <polygon class="cls-6" points="155.9041051132 817.9337350031 164.5000671341 817.9337350031 158.106460263 786.6917583572 145.0514530316 786.6917583572 145.0514530316 860.5681303173 155.9041051132 860.5681303173 155.9041051132 817.9337350031"/>
  <path class="cls-6" d="M155.9041051132,894.5310321137v39.4035579235h15.7995173157v-6.2037332266c0-16.5345313294,13.4037059998-29.9379387857,29.9376402422-29.9379387857h522.8373810109c16.5348298728,0,29.9385358726,13.4040045433,29.9385358726,29.9385358726v6.2031361397h16.0043181335v-39.4035579235H155.9041051132Z"/>
  <path class="cls-6" d="M155.9041051132,933.9345900372v-39.4035579235h-10.8526520816v75.7792880133c0,7.7561592506,6.2879224841,14.0434846478,14.0449773651-3.0403666593h12.6071920321v-33.3353634305h-15.7995173157Z"/>
  <path class="cls-6" d="M754.4171795546,933.9345900372v33.3353634305h10.9019117535c7.7555621637,17.0838513071,14.0431861043,10.7965259099,14.0431861043,3.0403666593v-75.7792880133h-8.9407797243v39.4035579235h-16.0043181335Z"/>
  <path class="cls-6" d="M448.6065683497,402.6597735859h2.6409155016c2.6561412184-3.3269683868,5.3740809342-6.6019902105,8.1320254745-9.8423809921-.47199722-.0358252159-.7917372722-.0644853887-.7917372722-.0650824756-1.1738729089-.0483640415-2.4143210108-.2251017735-3.7517957391-.5970869323-12.180573419-3.387274167-18.1508456551-12.6074905756-15.5899398024-22.596754953.0286601728-.1140436041.0203009557-.2197279911.0513494762-.3343686821.0238834773-.0871746921.066575193-.1677814279.0913543006-.255553207.242118751-.8365187922.5385724129-1.6772171929.9024968982-2.5209010282,3.232927195-7.7430233381,10.4660382929-13.9348148261,15.6490514087-20.1988538329,6.7861915291-8.2009890152,14.2650038997-15.8025027504,22.0423597364-23.0624827602.8815988555-.8227857927,1.7960374924-1.6198968473,2.6919664343-2.4313379884-8.0767949333-13.2057716817-15.3421487255-26.9572808196-21.6602240997-41.2294497625-1.61840413,1.7255812343-3.2851723015,3.3980217317-5.0203069268,4.9826904501-4.5948824875,4.1987153079-10.2546695188,7.0432374535-16.2234490376,8.8070322515-8.0287294352,2.372823469-8.8792797703,3.3401042993-5.5000662769,12.1698258542,3.3460751686,8.7413526889,3.0197671601,17.0181717445-1.847685512,24.8423989054-3.9819727515,6.403757349-7.7657126415,13.3580288495-13.2768250267,18.2063747398-1.530632351,1.3476252062-4.0963148991,1.6694550627-6.8688880692,1.6133288911.5024486535,4.0345164016.9398148314,8.3341394011,1.058038044,12.876776782l12.2101292221,7.1674315354,25.0612312661,32.4683932048Z"/>
  <path class="cls-6" d="M802.134874467,215.9375539421c-2.5214981151-3.2600946504-6.3598714594-3.5419196824-10.2083952816-2.3477458178,4.7077319177,7.4504507413,9.1706581933,15.065100389,13.3272788725,22.8732062027.6030578016-7.1859412303.5466330865-15.7822017946-3.1188835909-20.5254603849Z"/>
  <path class="cls-6" d="M779.5751389038,222.7873352295c-5.5143963633,8.9933233743-.489909828,18.4487920343-1.5485449589,27.8970956511,8.3374233792.2245046865,16.616929326.6675431903,24.8203066889,1.3906154653.6812761898-2.8672114489,1.2703024485-5.7571122013,1.6473628462-8.6977653429.2513735985-1.9620276595.5445432823-4.3527637365.7594945779-6.9142666761-4.1566206792-7.8081058137-8.6195469547-15.4227554614-13.3272788725-22.8732062027-5.1304694658,1.5924308485-10.2788515396,5.8180150684-12.3513402816,9.1975271052Z"/>
  <path class="cls-6" d="M527.8029848766,278.6501915288c15.5547116734-17.1220648707,33.1439970687-32.3973398598,48.8841042346-49.3772980407,5.4370736056-5.8663791099,10.8496666469-11.7554475232,16.2634538621-17.6427246757,1.8691806416-2.0336780914,3.5126624227-6.2335875733,2.6286752195-8.2989112721-.9099604848-2.125629479-4.9561200816-3.7873224116-7.7860135972-4.0667590959-15.6141218232-1.5416784592-27.5982536415,4.7581857635-36.9393801539,17.3035792982-5.9165344122,7.947227069-12.5534542082,15.4072312012-19.3294952595,22.6510898639-8.6064110422,9.1999154529-13.3245919813,9.2882843189-22.7033349704,1.4598775495-12.4128402357-10.3600553624-22.5274928689-7.7543679898-28.316549221,6.6342329048-2.0718916551,5.150471878-4.4109797124,10.1892884998-7.6024093656,14.7313287938-4.2372274151,6.0305780163-8.7950905128,12.0516026416-13.8876449585,17.4809141171,6.3180753742,14.2721689428,13.5834291664,28.0236780807,21.6602240997,41.2294497625,15.5568014777-14.0954312109,33.0798102235-26.6396305716,47.1283701102-42.1047792053Z"/>
  <path class="cls-6" d="M515.0211449168,367.8245277815c-2.0056150056,2.5209010282-3.6726817206,5.1970446588-4.6450377899,7.9985765451-2.1533940214,6.2043303136-5.9747503881,8.2529355783-10.6451643726,9.7414733005-13.23920855,8.7986730344-36.0046405614,7.5824069533-40.3514334285,7.2528149667-2.7579445403,3.2403907816-5.4758842562,6.5154126053-8.1320254745,9.8423809921h78.9166812991l13.3992278478-5.4561803874c-10.0671842221-9.2369348427-19.6002741833-19.042893532-28.5422480814-29.379065417Z"/>
  <path class="cls-6" d="M831.0043261873,290.5805855232c-.8529386828-.026271825-1.7058773656-.0603057802-2.5591145919-.0877717791.0140315429.0417960852.0283616293.0829950836.0423931722.1247911688.8386085964-.0107475648,1.6778142798-.0256747381,2.5167214197-.0370193898Z"/>
  <path class="cls-6" d="M796.9790288066,276.2063147149c1.2413437323-8.1896443635,3.9506256876-16.061638479,5.8678718272-24.131268369-8.2033773629-.723072275-16.4828833097-1.1661107788-24.8203066889-1.3906154653-.0313470639.2794366843-.017315521.5588733686-.0597086932.837712966-1.1514821489,7.5728535624-7.7409335339,13.2618978534-13.0735169263,18.5293987702-8.1639696254,8.0654502816-17.181176477,15.2782604238-27.1829796801,20.9052076738-20.2433368094,11.3900303206-41.2315395668,16.2455412541-62.5236595727,17.5794334609-8.1021711279,11.7315640459-16.8309849912,22.9866527198-26.0980727241,33.7736252388,9.7053495411,1.807979231,19.655803268,2.3005759502,30.0797469321,2.1130906534l71.3118835858-16.4945265049c8.1105303449-5.2042097019,15.5971048456-11.6981271777,22.4943545441-19.5760921625,10.0047886377-11.4252584496,22.8060339228-17.3059676459,38.0508574784-17.4767345085,5.8201048726-.0668737364,11.6414039191-.1791260797,17.4621058787-.2579415548-.0140315429-.0417960852-.0283616293-.0829950836-.0423931722-.1247911688-6.8273905274-.2191309042-13.6559752287-.4113928964-20.4803803215-.7039654932-8.0830643461-.3475045946-12.2217724173-5.4346852578-10.9858024675-13.5825335361Z"/>
  <path class="cls-6" d="M612.0498612204,305.0868125435c-10.9786374243-1.393003813-18.954524666-.2000241223-26.5882810955,5.5487288619-6.4103253052,4.8268507607-12.7379540703,9.7665509517-19.0900633996,14.6728142744l80.6960003574,16.6479778465c.669931538.1385241683,1.3488193801.2280872081,2.0211392659.3534754639,9.2670877328-10.786972519,17.9959015962-22.0420611929,26.0980727241-33.7736252388-20.890579044,1.3076203817-42.0737306848-.7750188382-63.1368678522-3.4493712079Z"/>
  <path class="cls-6" d="M515.0211449168,367.8245277815c8.9419738982,10.3361718851,18.4750638593,20.1421305743,28.5422480814,29.379065417l45.908222964-18.6947918504-41.5539665102-38.790946731c-7.8651276158,6.2311992255-15.7242843622,12.471354755-23.483727591,18.8291364102-3.2878591927,2.6952504124-6.6751333597,5.8371218502-9.4127769443,9.2775367541Z"/>
  <path class="cls-6" d="M910.7775286908,171.6820676067c3.5702813117-.0818009097,6.9748709997-1.5136153734,9.6199661098-3.6362594177-4.4548656019-5.8544373712-11.4276467974-9.6901238244-19.3489005848-9.6901238244h-105.6067657165c3.8135942366,4.7492294595,7.5203099124,9.5832452635,11.112981984,14.5110037158,34.7403089822-.105684387,69.4773339863-.3863152452,104.2227182075-1.1846204737Z"/>
  <path class="cls-6" d="M901.3292250741,307.4256020574c7.6818219276.0286601728,14.4569673484-3.5693856813,18.9461654489-9.0972165006-3.2308373907-2.495823377-7.6719699932-4.2811133046-12.8917039554-4.8113265005-10.6756158061-1.0819215213-21.4539305646-1.2126835595-32.1934346725-1.5739211536-3.3012936487-.1110581694-6.6043785582-.194053253-9.9062692938-.2943638576,1.534513416,5.1821174855,3.0054370738,10.389909709,4.3282831723,15.6597989735l31.7169593005.1170290387Z"/>
  <path class="cls-6" d="M410.2771698174,350.1471720637c-2.4116341196-.0477669546-4.9782122981-.379747289-7.1757907524-.6078344971-1.3171737727-.1373299944-2.9561774018-3.9963028379-3.2227767171-6.2897137449-1.3055305775-11.271807108-1.7228943432-22.6582549071-3.3574198203-33.8733387565-2.646289284-18.1484573074,5.1015107496-31.8462286214,20.6908534651-45.5439999353,9.4644249639-8.3162267931,18.129649069-17.3913510772,26.1067304846-27.0408729902-1.8181297089-6.1631313152-3.4251891872-12.4140344095-4.9107414747-18.7127044584l-53.295083947,64.3253693909v65.2269706587l26.222266806,15.3929011148c-.1182232126-4.542637381-.5555893905-8.8422603805-1.058038044-12.876776782Z"/>
  <path class="cls-6" d="M762.0398898759,172.9365472514c14.839700072.0005970869,29.6779074267-.0250776512,44.5149206075-.0698591711-3.5926720717-4.9277584523-7.2993877474-9.7617742563-11.112981984-14.5110037158h-46.5205356131c4.5008412957,4.7426615033,8.8810710311,9.596381176,13.1185969896,14.5808628869Z"/>
  <path class="cls-6" d="M762.0398898759,172.9365472514c-4.2375259586-4.9844817109-8.6177556939-9.8382013836-13.1185969896-14.5808628869h-10.1448055233c-.9714604389,4.8990982795-2.0906998935,9.7420703875-3.2377038904,14.5760861914,8.8341997069.0029854346,17.6683994138.0047766955,26.5011064034.0047766955Z"/>
  <path class="cls-6" d="M438.4080250025,218.0787076813c1.4855522876,6.2986700489,3.0926117659,12.5495731432,4.9107414747,18.7127044584,9.2975391664-11.2467294569,17.6480984581-23.2840020121,25.0519764187-35.9655313673,11.2870328248-19.3330777811,27.07789238-28.8912453934,47.2668942785-28.8339250479,68.8399436861.1725581234,137.681081546.8920478769,206.5183383409.9374264837,4.4617321016,0,8.9216729425.0011941739,13.3828079572.0023883477,1.147003997-4.8340158039,2.2662434516-9.6769879119,3.2377038904-14.5760861914h-240.3579416858c-8.066345912,6.0956604919-16.3046528604,11.8259037812-24.7199960843,17.1292299139l-35.2905245903,42.5937934028Z"/>
  <path class="cls-6" d="M828.4876047677,290.617604913c1.9835227891,5.9338499332,3.8195651059,11.9303939944,5.4937968641,17.9973943135l6.1210366865-1.4162902034,29.5098274552.1098639955c-1.3228460985-5.2698892645-2.7937697563-10.4776814881-4.3282831723-15.6597989735-11.426751167-.3469075076-22.852905247-.7099363625-34.2796564139-1.0681885219-.8389071399.0113446517-1.6781128232.026271825-2.5167214197.0370193898Z"/>
  <path class="cls-6" d="M772.9746414106,308.3522809763c-6.8972496985,7.8779649848-14.3838241992,14.3718824606-22.4943545441,19.5760921625l83.5011147653-19.3133739123c-1.6742317582-6.0670003191-3.510274075-12.0635443803-5.4937968641-17.9973943135-5.8207019596.0788154751-11.6420010061.1910678183-17.4621058787.2579415548-15.2448235556.1707668626-28.0460688407,6.0514760589-38.0508574784,17.4767345085Z"/>
  <path class="cls-6" d="M649.0886563485,342.3098089903c-5.591719121,6.509441736-11.3670424737,12.851102044-17.3564214917,18.989752795l33.564943356-13.6685140543,13.8712250678-3.2081480873c-10.4239436642.1874852968-20.374397391-.3051114224-30.0797469321-2.1130906534Z"/>
  <path class="cls-6" d="M647.0675170827,341.9563335264l-80.6960003574-16.6479778465c-6.1774614016,4.771918763-12.3361145649,9.5623472208-18.4538672732,14.4094989373l41.5539665102,38.790946731,42.2606188946-17.2092395629c5.9893790179-6.138650751,11.7647023706-12.480311059,17.3564214917-18.989752795-.6723198858-.1253882558-1.3512077278-.2149512956-2.0211392659-.3534754639Z"/>
  <path class="cls-6" d="M473.6985495929,175.4849142785c8.4153432239-5.3033261327,16.6536501723-11.0335694221,24.7199960843-17.1292299139h-10.5278367904l-14.1921592939,17.1292299139Z"/>
  <path class="cls-6" d="M341.1554010993,763.6083775544l-2.0623382642-.0053737824,2.235792018,12.8164710019-9.1151291086-12.833189436-135.017476741-.3278007258c-11.2189649145-.026271825-18.8500344528-11.3971953638-14.6214647982-21.7900905075l27.3913630194-67.3364787906c-.3767618543-.3898977668-.7472542958-.7857664029-1.1225234327-1.1768583436l-52.5018539575,105.1135719105.0450800634.220325078,219.5808091589-2.1214498705c-11.858445019-3.6404390263-23.4643222657-7.8504989859-34.8122579576-12.5591265341Z"/>
  <path class="cls-6" d="M741.4783057316,764.5804350802l-102.9488332374-.2501794246c-8.5207290674,3.4851964238-17.1958051069,6.6628930776-26.0052257061,9.5515996561l154.9789885183-1.4974940262-10.2095894555-22.3979250046c-.62186604,7.8493048121-7.1342932106,14.6142997551-15.8153401194,14.5939987994Z"/>
  <path class="cls-6" d="M386.9143523303,776.0618197014l225.6098944579-2.1799643898c8.8094205992-2.8887065785,17.4844966386-6.0664032322,26.0052257061-9.5515996561l-240.2752451456-.5833539329c-3.629392918,4.2440939148-7.3880551569,8.3735471386-11.3398750183,12.3149179788Z"/>
  <path class="cls-6" d="M378.3646645466,763.6985376811l-37.2092634473-.0901601268c11.3479356919,4.7086275482,22.9538129385,8.9186875078,34.8122579576,12.5591265341l6.0219202558-.0585145194c-1.2971713604-4.0990017903-2.4564156395-8.255921013-3.624914766-12.4104518879Z"/>
  <path class="cls-6" d="M208.843623792,672.9550569704c.375269137.3910919407.7457615784.7869605768,1.1225234327,1.1768583436l7.5062783695-18.4529716428-8.6288018022,17.2761132993Z"/>
  <path class="cls-6" d="M381.9895793126,776.1089895691l4.9247730176-.0471698677c3.9518198615-3.9413708401,7.7104821003-8.0708240639,11.3398750183-12.3149179788l-19.889562802-.0483640415c1.1684991265,4.154530875,2.3277434056,8.3114500977,3.624914766,12.4104518879Z"/>
  <path class="cls-6" d="M208.843623792,672.9550569704c-1.9414281604-2.0253188743-3.9082325154-4.0243659237-5.8060733297-6.0902867095l-48.965009514,111.4462759145,2.3143089496-.0220922165-.0450800634-.220325078,52.5018539575-105.1135719105Z"/>
  <polygon class="cls-6" points="341.3288548532 776.4194747739 339.0930628351 763.603003772 332.2137257446 763.5862853379 341.3288548532 776.4194747739"/>
  <path class="cls-6" d="M756.0561831838,742.5001603236c1.0696812392,2.4868670731,1.4315159202,5.0382195348,1.2374626672,7.4862759573l10.2095894555,22.3979250046,11.8587435625-.114640691-28.4607457152-78.233912392c-3.7589607823,3.3586139942-7.5438948462,6.6885678157-11.431229319,9.9020896853l16.586179349,38.5622624359Z"/>
  <path class="cls-6" d="M725.2366455425,670.8473400994l14.2333582923,33.0905577883c3.8873344728-3.2135218697,7.6722685366-6.5434756911,11.431229319-9.9020896853l-12.7597477433-35.0746776643c-4.2034920034,4.0673561829-8.5061004376,8.0278338048-12.9048398679,11.8862095614Z"/>
  <path class="cls-6" d="M699.1917135555,610.2937688598l26.0449319871,60.5535712396c4.3987394303-3.8583757566,8.7013478645-7.8188533785,12.9048398679-11.8862095614l-21.1270254692-58.0750633836c-35.8858202618-.3624317679-71.7743274149-.3098881179-107.6628345679-.3964657231,25.1215370463.0603057802,50.2448653534.0937426484,75.3652082258.2167425564,6.3004613097.0310485205,11.9853259921,3.7998612372,14.4748799564,9.587424872Z"/>
  <path class="cls-6" d="M217.4724255942,655.6789436712l6.7849973552-16.6802205408c-1.8330568822-2.0695033074-3.6461113521-4.1563221358-5.4314012797-6.2682186153-1.2697053615,2.2898283854-2.5325442234,4.5569674674-3.8028466718,6.8545579828l-11.9856245356,27.2797077631c1.8978408143,2.0659207858,3.8646451693,4.0649678351,5.8060733297,6.0902867095l8.6288018022-17.2761132993Z"/>
  <path class="cls-6" d="M250.2698136987,601.2293921405h-13.9592953903c-5.710837964,10.3176621902-11.5903529864,20.8729649795-17.4844966387,31.5011123745,1.7852899276,2.1118964795,3.5983443975,4.1987153079,5.4314012797,6.2682186153l11.351816757-27.9054548681c2.4256656625-5.9643013668,8.2221856013-9.8638761217,14.6605739923-9.8638761217Z"/>
  <path class="cls-6" d="M413.3396286932,394.0903819335c-.8807032251-2.0826392199-2.2751997555-3.9479387964-3.9195771671-5.901010152,1.6443774116,1.9530713556,3.038276855,3.8183709321,3.9192786236,5.9022043258,4.2539458492,10.0567352008,11.3174842584,18.4452095127,20.2639363085,24.2118751049-8.9461535067-5.7666655922-16.0096919159-14.1557369911-20.2636377651-24.2130692788Z"/>
  <path class="cls-6" d="M575.0415175258,451.4107274347c1.3437441411.6394801045,2.6450951101,1.3488193801,3.9082325154,2.0653236988-1.2652272095-.7182955796-2.56239857-1.4252465074-3.9082325154-2.0653236988Z"/>
  <path class="cls-6" d="M525.2746202618,614.0070524918c-2.4190977062,5.865782023-4.7859503059,11.7506708277-7.1954946212,17.6200353723,2.4101414022-5.8693645446,4.776396915-11.7548504363,7.1954946212-17.6200353723Z"/>
  <path class="cls-6" d="M581.7065004077,455.6524330017c.066575193-.1486746461.1406139726-.2889900753.2077862524-.4370676344-.7944241634-.4830433283-1.6192997604-.9625041349-2.4692530085-1.4521154194.8678658561.5194656311,1.6204939343,1.1619311703,2.2614667561,1.8891830538Z"/>
  <path class="cls-6" d="M489.732124986,420.8930172377c4.8925303233-2.1716051728,9.2378304731-2.6534543271,13.4738637144-1.9745664851-4.2363317847-.679484929-8.5816319345-.1970386877-13.4741622578,1.9745664851-8.4314645711,3.7419438047-16.7124632352,5.6144084244-24.5689330904,5.8986218042,7.8564698553-.2842133798,16.1377670628-2.1566779995,24.5692316339-5.8986218042Z"/>
  <path class="cls-6" d="M335.782514339,619.8585044284c-4.4745694707-1.6264648036-8.9088355734-3.2421820424-13.4469948024-4.8835740193-4.1963269602-1.5183920688-6.6709537512-5.6914326387-6.2631433764-9.9337352927-.1462862984.0895630398-.2940653142.176140645-.4415457864.2633153371-.8054702717,2.1310032614-1.6485570201,4.233943437-2.4501462267,6.367932133,7.6474894289,2.7495853233,15.1421246032,5.4740929954,22.601830192,8.1860618419Z"/>
  <path class="cls-6" d="M354.2736995455,626.5673731998c3.2168058478,1.1679020396,6.4685412811,2.3525225133,9.6650461732,3.5078857273,0-.0023883477.0002985435-.0041796085.0005970869-.0065679563-3.2093422611-1.1595428225-6.4360000433-2.328639036-9.6656432601-3.501317771Z"/>
  <path class="cls-6" d="M363.9393428056,630.0686909708c-.0002985435.0023883477-.0005970869.0041796085-.0005970869.0065679563,1.0248997193.370193898,2.0560688514.7397907091,3.0791773099,1.1087904333-1.0207201108-.3684026372-2.0563673949-.7463586654-3.078580223-1.1153583896Z"/>
  <path class="cls-6" d="M392.0475086873,640.0913922165c-3.0194686167-1.0568438702-6.0571483848-2.151901304-9.0822893273-3.2242694344,3.0227525948,1.0723681304,6.0652090583,2.1680226512,9.0822893273,3.2242694344Z"/>
  <path class="cls-6" d="M381.2265022131,439.1620861054c7.6179336258-19.0243838371,15.2257167737-38.1299714969,22.7719999677-57.3949813677-7.545686107,19.2644127838-15.1543648853,38.3717917045-22.7719999677,57.3949813677Z"/>
  <path class="cls-6" d="M549.9531188043,551.7416330174c-.8150236626,2.0921926108-1.6300473252,4.1939386125-2.4453695312,6.2849370494.8153222061-2.0909984369,1.6303458687-4.1927444386,2.4453695312-6.2849370494Z"/>
  <path class="cls-6" d="M562.9245338651,518.378803588c-.8672687692,2.2342993007-1.737522973,4.4781519923-2.6041946552,6.7100629452.8663731388-2.2307167791,1.7372244295-4.4769578184,2.6041946552-6.7100629452Z"/>
  <path class="cls-6" d="M583.4732806404,465.4303286051c-1.9593407683,5.044787491-3.8995747549,10.0477788968-5.8493621323,15.0722654322,2.9161725774-7.514339043,5.8272699158-15.0185276082,8.7658332531-22.579439432-1.3171737727-.7636741864-2.8445221455-1.7178191042-4.4754651011-2.707789238-.0671722799.1480775592-.1412110595.2883929883-.2077862524.4370676344,2.3098307976,2.6212116328,3.0905219616,6.367932133,1.7667802327,9.7778956034Z"/>
  <path class="cls-6" d="M351.7838470378,512.689759297c2.6307650237-6.5882572111,5.2289888097-13.1824852914,7.8719941155-19.7731308502-2.6415125885,6.5870630372-5.2424232656,13.1884561607-7.8719941155,19.7731308502Z"/>
  <path class="cls-6" d="M316.4512278187,603.1723130183c-.2701818369.7129217972-.5508126951,1.4186785512-.820397445,2.1321974352.1474804723-.0871746921.295259488-.1737522973.4415457864-.2633153371.0600072367-.6257471051.1871867533-1.2479116885.3788516585-1.8688820981Z"/>
  <path class="cls-6" d="M328.3078815769,572.3554622682c2.8722866878-7.4020866998,5.6953137038-14.8376102677,8.599245999-22.2211872726-2.9033352083,7.3817857441-5.7278549416,14.8208918336-8.599245999,22.2211872726Z"/>
  <path class="cls-6" d="M509.8088745413,649.6077637435c-.0194053253.017912608-.035228129.0429902591-.0546334543.0609028671-1.0060914809.9111546587-2.2310153225,1.4353969853-3.7592593258,1.711251148-.6753053204.1218057342-1.3921081827.2101746002-2.2053405845.2364464252-.6633635818.0214951296-1.3765839224.0143300864-2.1450348043-.017315521-18.1284548951-.7439703177-36.3279631352.4615481987-54.4868694639.1665872541-.8254726839,7.1465334927-2.010988788,14.1796204684-3.5359488131,21.089110449h237.0691868626c-.4388588952-13.3036939386-5.8819033701-22.0181777156-12.6839177029-29.7343321418-1.5252585686-1.7309550168-4.9835860805-2.116673175-8.0335061307-2.2408672569h-145.6802551781c-.595594215,1.4748047228-1.217460255,2.9400560546-1.8073821441,4.4172491252-.7732275773,1.9369500084-1.6172099561,3.3281625607-2.677039261,4.3109676512Z"/>
  <path class="cls-6" d="M320.0253901955,643.6285352034c-.5964898454.1361358206-1.1944724081.2651065979-1.7912607969.3988540708l5.0286661439,28.8273570916h40.4203969692c-.281825032-6.1905973141-.47199722-12.4050781055-.47199722-18.6655345907,0-4.4560597758.0946382788-8.8888331612.2379391425-13.309664808h-45.7640264699l.295259488,1.6921443661c.6785892986.361834681,1.3688217923.6866499722,2.0450227431,1.0568438702Z"/>
  <path class="cls-6" d="M363.6831925117,672.8547463658h79.9385955837c1.5249600251-6.9094899806,2.7104761292-13.9425769562,3.5359488131-21.089110449-.1310605816-.0017912608-.2621211633.0023883477-.3931817449,0-1.2622417749-.0214951296-2.5331413103-.0406019114-3.8094146281-.0620970409-1.323144642-.0226893034-2.6516630664-.0501553023-3.9819727515-.0871746921-3.8025481284-.1062814739-7.6182321693-.29973764-11.3533094743-.7547178824-1.2604505141-.1534513416-2.5119447242-.3367570298-3.7506015653-.5564850209-2.4773136821-.4382618083-4.9035764315-1.0222128281-7.250426619-1.8032025356-7.4492565674-2.4791049429-14.8773165487-5.0286661438-22.3146313775-7.6224117778h-30.8550643137c-.1433008638,4.4208316468-.2379391425,8.8536050322-.2379391425,13.309664808,0,6.2604564852.1901721879,12.4749372766.47199722,18.6655345907Z"/>
  <path class="cls-6" d="M317.9803674523,642.5716913332l-.295259488-1.6921443661h-2.9803594226c1.09386326.5582762817,2.1883236069,1.1129700418,3.2756189106,1.6921443661Z"/>
  <path class="cls-6" d="M302.7086749848,647.5848332169c-15.1328697558,3.8153854974-17.7224357812,7.8254213348-15.7777236427,25.2699131489h36.3318442003l-5.0286661439-28.8273570916c-5.1815203985,1.1583486487-10.3773708834,2.2605711257-15.5254544138,3.5574439427Z"/>
  <path class="cls-6" d="M509.8088745413,649.6077637435c-.0194053253.017912608-.035228129.0429902591-.0546334543.0609028671.0194053253-.017912608.035228129-.0429902591.0546334543-.0609028671Z"/>
  <path class="cls-6" d="M505.9949817612,651.3799177586c-.6753053204.1218057342-1.3924067261.2101746002-2.2053405845.2364464252.8132324018-.026271825,1.530035264-.114640691,2.2053405845-.2364464252Z"/>
  <path class="cls-6" d="M447.1577369085,651.7656359169h0c18.1589063287.2949609446,36.3584145688-.9105575718,54.4868694639-.1665872541.7684508819.0316456074,1.4816712225.0388106506,2.1450348043.017315521-.6633635818.0214951296-1.3759868355.0143300864-2.1444377174-.017315521-18.1281563517-.7439703177-36.3288587656.4615481987-54.4874665508.1665872541Z"/>
  <path class="cls-6" d="M446.7645551636,651.7656359169c-1.2622417749-.0214951296-2.5331413103-.0406019114-3.8094146281-.0620970409,1.2762733178.0214951296,2.5471728532.0406019114,3.8094146281.0620970409.1310605816.0023883477.2621211633-.0017912608.3931817449,0h0c-.1310605816-.0023883477-.2621211633.0023883477-.3931817449,0Z"/>
  <path class="cls-6" d="M442.9551405355,651.7035388759c-1.323144642-.0226893034-2.6516630664-.0501553023-3.9819727515-.0871746921,1.3303096852.0370193898,2.6588281095.0644853887,3.9819727515.0871746921Z"/>
  <path class="cls-6" d="M439.246036512,369.5584682329c-2.5609058526,9.9892643774,3.4093663835,19.2094807861,15.5899398024,22.596754953,1.3374747284.3719851588,2.5779228302.5487228908,3.7517957391.5970869323-1.1738729089-.0483640415-2.4128282934-.2251017735-3.7503030218-.5970869323-10.2122763467-2.8367600154-18.3714692766-11.5410933145-15.5914325198-22.596754953Z"/>
  <path class="cls-6" d="M439.3887402888,368.9685463438c.2454027292-.8609993564.5585748252-1.6969210616.9024968982-2.5209010282-.3639244852.8436838353-.6603781471,1.684382236-.9024968982,2.5209010282Z"/>
  <path class="cls-6" d="M283.8875992482,628.0176973583c-2.4614908784-.8120382279-3.9909290555-1.7214016258-4.8032658269-2.8672114489.7642712734,4.4041132127,3.4460872298,8.9342117681,7.2178853812,10.178540935,6.9874098253,2.3053526456,12.5197187965,4.1079580943,18.4284910786,5.5505201227h9.9740386607c-10.0122522243-5.1098699667-20.2833416338-9.3862065758-30.8171492935-12.8618496088Z"/>
  <path class="cls-6" d="M317.9803674523,642.5716913332l.1385241683.7947227069c.6415699088.0865776052,1.2380597541.1809173405,1.9064985748.2621211633-.6762009508-.370193898-1.3664334446-.6950091892-2.0450227431-1.0568438702Z"/>
  <g>
    <path class="cls-4" d="M565.5391775417,600.395858783c-2.4128282934.0250776512-6.2646360937.8514459655-6.9832302168,2.4301438145-.9639968522,2.1184644358-1.8891830538,4.2608123489-2.8155634293,6.4055486098-3.9503271441,9.146177629-7.6561471895,18.5634327253-11.7799280874,28.664949446,6.0834202098.4967763277,10.3248272334,1.0747564781,14.5736978437,1.1535719532,33.2541596077.6138053664,66.5113046501,1.0735623043,99.7624788232,1.7661831458.5230481527.0107475648,1.1075962594.0400048245,1.6769186494.0632912148h15.8380294228c4.8325230866,0,8.7500104494,3.9174873628,8.7500104494,8.749711906v16.987123224c0,4.8322245431-3.9174873628,8.749711906-8.7500104494,8.749711906h-402.8067862707c-1.5616808714,0-3.0063327042-.4430385038-4.2757395222-1.1595428226-2.2393745396-1.2652272095-3.8655407997-3.4613129466-4.3226108464-6.086107101-.0853834313-.4908054584-.1516600808-.9893730468-.1516600808-1.5040619825v-16.987123224c0-4.8322245431,3.9174873628-8.749711906,8.7500104494-8.749711906h31.7259156045c-5.9087722821-1.4425620285-11.4410812533-3.2451674771-18.4284910786-5.5505201227-3.7717981514-1.2443291669-6.4536141078-5.7744277223-7.2178853812-10.178540935-.0211965861-.1229999081-.0265703685-.2430143815-.0450800634-.3660142895-.0758300404-.5099122402-.1665872541-1.0216157411-.1877838402-1.5195862427-.0394077375-.9230963973.026271825-1.8073821441.1883809271-2.6385271538.1334489294-.6860528852.3203371392-1.34105725.6018636278-1.922619922,1.102819564-2.2796779075,2.1423479131-4.6142878128,3.2033713918-7.0533879313,1.3888242045-3.1920267401,2.8167576031-6.5793009071,4.4972587741-10.4209582295h-37.0725305398c-6.438388391,0-12.2349083298,3.8995747549-14.6605739923,9.8638761217l-11.351816757,27.9054548681-6.7849973552,16.6802205408-7.5062783695,18.4529716428-27.3913630194,67.3364787906c-4.2285696546,10.3928951437,3.4024998837,21.7638186824,14.6214647982,21.7900905075l135.017476741.3278007258,6.8793370905.0167184341,2.0623382642.0053737824,37.2092634473.0901601268,19.889562802.0483640415,240.2752451456.5833539329,102.9488332374.2501794246c8.6810469088.0203009557,15.1934740794-6.7446939873,15.8153401194-14.5939987994.194053253-2.4480564225-.167781428-4.9994088842-1.2374626672-7.4862759573l-16.586179349-38.5622624359-14.2333582923-33.0905577883-26.0449319871-60.5535712396c-2.4895539642-5.7875636348-8.1744186467-9.5563763515-14.4748799564-9.587424872-25.1203428724-.1229999081-50.2436711795-.1564367763-75.3652082258-.2167425564-14.6041492772-.0346310421-29.2097912718-.246596903-43.8124478316-.0937426484Z"/>
    <path class="cls-4" d="M575.0415175258,451.4107274347c-.0050752389-.0023883477-.0095533909-.0053737824-.0146286298-.0077621301-2.130107631-1.0126594372-4.273052631-1.9978528755-6.4058471532-3.0045414434,2.1330930657,1.0066885679,4.2763366092,1.9924790931,6.4067427836,3.0051385303.0047766955.0017912608.008956304.0047766955.0137329994.0071650432Z"/>
    <path class="cls-4" d="M525.2746202618,614.0070524918c.7735261208-1.8754500543,1.5189891558-3.7628418474,2.2886342115-5.6400831625,2.4262627494-5.918325673,4.8779016935-11.8259037812,7.2143028596-17.7800546701,4.2542443927-10.8425016037,8.4941586989-21.6939595114,12.7301919402-32.5603445924-4.2360332412,10.8669821679-8.476246091,21.7172459017-12.7307890271,32.5603445924-2.3361026226,5.9541508889-4.7877415667,11.8617289972-7.2140043161,17.7800546701-.7696450557,1.8772413152-1.5148095473,3.7646331082-2.2883356681,5.6400831625Z"/>
    <path class="cls-4" d="M579.299941527,453.6611480825c-.1122523433-.0644853887-.2370435121-.1212086473-.3501914858-.185096949.1680799714.0955339092.3289948997.1910678183.4952836103.2871988144-.0513494762-.0310485205-.092847018-.0722475188-.1450921245-.1021018654Z"/>
    <path class="cls-4" d="M536.871242661,433.5064786826c10.5881425705,4.9534331904,21.1783749453,9.9026867723,31.7497990818,14.8919451786-10.5714241364-4.9898554932-21.1613579678-9.9385119882-31.7492019948-14.8925422655-8.5320737192-3.9915261424-17.0351887221-8.0457464128-25.5842794188-12.0008502524-2.7233134982-1.2586592533-5.3806488905-2.1542896518-8.0815716287-2.5865805907,2.7006241948.432290939,5.357959587,1.3279213375,8.0806759983,2.5871776777,8.5493892402,3.9545067526,17.0522056997,8.008727023,25.5845779623,12.0008502524Z"/>
    <path class="cls-4" d="M448.3187724484,424.8702132937c3.9736135345,1.0908778253,8.1469526478,1.7458821901,12.471354755,1.9154548788-4.3244021072-.1695726888-8.4974426771-.8245770535-12.471354755-1.9154548788Z"/>
    <path class="cls-4" d="M394.3504729852,640.8795469671c-.7675552515-.2674949457-1.535110503-.5194656311-2.3029642979-.7881547507.7508368174.2627182502,1.5058532433.5260335874,2.2566900606.7881547507h.0462742373Z"/>
    <path class="cls-4" d="M316.6028878995,602.6003037371c-.0713518884.1886794706-.0931455614.3821356367-.1516600808.5720092811,3.9031572765-10.3069146254,7.8782635283-20.5636739485,11.8566537582-30.81685075-3.9094266893,10.0752448957-7.8675159635,20.1170529232-11.7049936774,30.2448414689Z"/>
    <path class="cls-4" d="M371.0473641912,464.5311156851c3.3959319275-8.4553480483,6.7820119206-16.8856184455,10.1791380219-25.3690295797-3.3962304709,8.4822169603-6.7852958987,16.9142786183-10.1806307392,25.3678354058-2.4238744017,6.0353547117-4.8483458903,12.083845336-7.2674435965,18.1096466568-1.3732999443,3.4201139482-2.751973671,6.8593346783-4.1225867241,10.2770602788,1.3709115966-3.4189197744,2.7504809537-6.8557521567,4.1240794414-10.2770602788,2.4196947932-6.0269954947,4.8429721079-12.0719035973,7.2674435965-18.1084524829Z"/>
  </g>
</svg>