<?xml version="1.0" encoding="UTF-8"?>
<svg id="Layer_2" xmlns="http://www.w3.org/2000/svg" viewBox="0 0 612 720.56">
  <defs>
    <style>
      .cls-1 {
        fill: #0057b7;
      }

      .cls-2 {
        fill: #33755c;
      }

      .cls-3 {
        fill: #99192f;
      }

      .cls-4 {
        fill: #fff;
      }

      .cls-5 {
        fill: #dd0020;
      }

      .cls-6 {
        fill: #00253d;
      }

      .cls-7 {
        fill: #e8eaec;
      }

      .cls-8 {
        fill: #fdb913;
      }

      .cls-9 {
        fill: #30297d;
      }

      .cls-10 {
        fill: #f6931c;
      }
    </style>
  </defs>
  <g id="Layer_1-2" data-name="Layer_1">
    <g>
      <polygon class="cls-6" points="226.89 285.43 345.1 336.44 286 477.86 169.11 439.45 226.89 285.43"/>
      <path class="cls-2" d="M160.55,311.64c.85-2.22,1.73-4.44,2.58-6.66l1.74-4.54c5.04-13.15,9.81-25.57,13.02-38.01.16-1.26-.45-5.75-.86-8.72-.28-2.06-.56-4.11-.78-6.13-.85-7.94-2.27-16.12-3.66-23.77-4.25-23.26,4.13-44.53,24.92-63.21,3.17-2.85,6.17-5.74,9.05-8.65-23.54,6.41-47.72,9.51-71.82,9.25-3.95,49.32-20.11,97.62-47.94,140.09,5.22-.53,10.52-.8,15.89-.8,20.45,0,39.96,3.99,57.85,11.16Z"/>
      <path class="cls-1" d="M483.07,74.27c-1.56-1.41-3.17-2.76-4.76-4.13-.09,1.38-.2,2.75-.31,4.12,1.69,0,3.39,0,5.08,0Z"/>
      <path class="cls-1" d="M441.32,74.23c5.97,0,11.94,0,17.91.02,6.26,0,12.51,0,18.77.02.11-1.37.22-2.74.31-4.12-30.13-25.96-65.64-45.84-104.67-57.68-3.82,7.99-8.05,15.8-12.71,23.43,29.14,8.21,56.24,21.29,80.38,38.34Z"/>
      <path class="cls-1" d="M441.32,74.23c-24.14-17.04-51.24-30.13-80.38-38.34-8.22,13.46-17.73,26.3-28.54,38.33,36.31-.05,72.62-.04,108.92,0Z"/>
      <path class="cls-5" d="M500.22,448.53l11.87,26.05c30.43-36.56,52-80.73,61.48-129.24-8.96,2.41-18.12,4.35-27.43,5.8-8.56,35.83-24.39,68.86-45.92,97.38Z"/>
      <path class="cls-5" d="M424.26,341.41c-2.39,1.64-4.89,3.13-7.59,4.32-3.93,1.74-7.65,2.57-10.86,3.01-.3.59-.58,1.16-.82,1.72-4.69,10.81-9.23,21.7-13.77,32.58-1.13,2.71-2.26,5.42-3.39,8.13,17.32.15,34.64.22,51.97.29,20.94.08,40.07,12.44,48.75,31.5l11.66,25.58c21.53-28.53,37.36-61.55,45.92-97.38-13.23,2.06-26.78,3.16-40.58,3.16-28.38,0-55.7-4.54-81.29-12.9Z"/>
      <path class="cls-8" d="M553.39,289.88c0,21.1-2.56,41.59-7.26,61.27,9.32-1.45,18.47-3.39,27.43-5.8,3.53-18.07,5.44-36.73,5.44-55.84,0-10.42-.58-20.71-1.65-30.84-8.61.14-17.21.27-25.82.4,1.18,10.12,1.86,20.39,1.86,30.82Z"/>
      <path class="cls-8" d="M449.84,298.13c-1.42.1-2.85.19-4.28.28.11,4.43-.32,8.89-1.33,13.28-2.87,12.48-10.01,22.9-19.96,29.71,25.59,8.36,52.9,12.9,81.29,12.9,13.81,0,27.36-1.09,40.58-3.16,4.7-19.68,7.26-40.18,7.26-61.27,0-10.43-.68-20.7-1.86-30.82-5.91.09-11.82.2-17.74.27-22.58,23.48-50.79,36.52-83.96,38.8Z"/>
      <path class="cls-6" d="M251.51,28.76c2.32-9.29,5.12-18.4,8.41-27.27-50.47,5.12-97.06,23.27-136.48,50.94,2.66,9.02,4.89,18.13,6.68,27.31,34.76-26.43,76.24-44.44,121.39-50.98Z"/>
      <path class="cls-6" d="M134.75,161.2c24.11.26,48.29-2.84,71.82-9.25,10.59-10.7,19.22-21.8,25.67-33.12,3.48-6.1,7.38-11.57,11.64-16.45-.12-3.3-.21-6.61-.21-9.94,0-21.96,2.74-43.28,7.83-63.67-45.15,6.54-86.63,24.55-121.39,50.98,5.24,26.91,6.81,54.33,4.63,81.46Z"/>
      <path class="cls-6" d="M289.5,25.99c24.75,0,48.69,3.5,71.43,9.9,4.66-7.63,8.9-15.44,12.71-23.43-26.63-8.08-54.87-12.46-84.14-12.46-9.99,0-19.86.51-29.59,1.49-3.29,8.87-6.09,17.97-8.41,27.27,12.41-1.8,25.09-2.77,37.99-2.77Z"/>
      <path class="cls-6" d="M243.88,102.37c16.03-18.39,37.38-28.06,62.73-28.12,8.59-.02,17.19-.01,25.78-.02,10.81-12.03,20.32-24.87,28.54-38.33-22.74-6.4-46.67-9.9-71.43-9.9-12.9,0-25.58.98-37.99,2.77-5.09,20.39-7.83,41.7-7.83,63.67,0,3.33.08,6.64.21,9.94Z"/>
      <path class="cls-10" d="M26.21,306.71c-9.05-5.43-17.8-11.3-26.2-17.62,0,.14-.01.27-.01.41,0,15.83,1.32,31.35,3.76,46.48,7.33-6.05,15.24-11.42,23.61-16.06-.5-4.37-.89-8.78-1.17-13.21Z"/>
      <path class="cls-10" d="M26.21,306.71c.28,4.44.67,8.84,1.17,13.21,3.83-2.13,7.78-4.08,11.8-5.88-4.39-2.34-8.71-4.78-12.97-7.33Z"/>
      <path class="cls-10" d="M25.61,289.88c0-50.9,14.53-98.46,39.6-138.82-8.48-2.42-16.87-5.25-25.1-8.53C14.72,185.5.09,235.58.01,289.09c8.4,6.32,17.14,12.2,26.2,17.62-.35-5.57-.59-11.18-.59-16.84Z"/>
      <path class="cls-10" d="M86.81,301.28c27.83-42.46,43.98-90.77,47.94-140.09-23.49-.25-46.89-3.67-69.53-10.14-25.07,40.36-39.6,87.92-39.6,138.82,0,5.66.24,11.26.59,16.84,4.25,2.55,8.58,4.99,12.97,7.33,14.8-6.63,30.81-11.06,47.63-12.77Z"/>
      <path class="cls-3" d="M130.11,79.74c-1.79-9.17-4.02-18.28-6.68-27.31-33.79,23.71-62.27,54.44-83.33,90.09,8.24,3.28,16.62,6.11,25.1,8.53,17.12-27.56,39.16-51.74,64.9-71.32Z"/>
      <path class="cls-3" d="M130.11,79.74c-25.74,19.57-47.78,43.76-64.9,71.32,22.65,6.47,46.05,9.89,69.53,10.14,2.17-27.13.61-54.54-4.63-81.46Z"/>
      <path class="cls-9" d="M58.26,416.86c-9.69-17.57-17.39-36.37-22.89-56.09-2.14,1.9-4.23,3.84-6.44,5.69-4.91,4.12-9.94,7.99-15.02,11.74,7.49,23.28,17.85,45.25,30.66,65.54l11.35-22.73c.72-1.43,1.51-2.81,2.35-4.16Z"/>
      <path class="cls-9" d="M105.45,390.98c7.64.13,16.54.29,24.16.45,4.93-12.79,9.91-25.57,14.89-38.34.75-1.93,1.49-3.87,2.25-5.8-27.7-3.05-54.24-9.89-79.13-19.97-9.73,11.81-20.48,23-32.25,33.46,5.51,19.71,13.21,38.51,22.89,56.09,9.98-16.18,28.03-26.24,47.19-25.89Z"/>
      <path class="cls-9" d="M102.7,300.48c-5.36,0-10.66.27-15.89.8-5.87,8.96-12.28,17.64-19.19,26.03,24.89,10.08,51.43,16.92,79.13,19.97,4.63-11.87,9.24-23.75,13.8-35.64-17.89-7.17-37.4-11.16-57.85-11.16Z"/>
      <path class="cls-9" d="M35.37,360.77c-3.7-13.23-6.4-26.87-7.99-40.85-8.37,4.64-16.28,10.01-23.61,16.06,2.34,14.46,5.74,28.56,10.14,42.22,5.09-3.75,10.12-7.62,15.02-11.74,2.21-1.85,4.3-3.79,6.44-5.69Z"/>
      <path class="cls-9" d="M67.62,327.31c-9.74-3.94-19.24-8.36-28.44-13.27-4.02,1.8-7.97,3.76-11.8,5.88,1.59,13.98,4.29,27.61,7.99,40.85,11.77-10.46,22.52-21.65,32.25-33.46Z"/>
      <path class="cls-9" d="M39.18,314.05c9.2,4.91,18.7,9.32,28.44,13.27,6.91-8.39,13.32-17.07,19.19-26.03-16.82,1.71-32.83,6.13-47.63,12.77Z"/>
      <rect class="cls-7" x="53.05" y="585.41" width="431.85" height="37.6" rx="12.58" ry="12.58"/>
      <path class="cls-7" d="M484.9,683.2v-4.6c0-12.25-9.93-22.19-22.19-22.19H75.24c-12.25,0-22.19,9.93-22.19,22.19v4.6h431.85Z"/>
      <rect class="cls-7" x="53.05" y="683.2" width="431.85" height="24.7"/>
      <path class="cls-6" d="M430.26,489.71h-175.69c-.14.62-.28,1.24-.43,1.86h172.51c3.58,0,6.48-2.9,6.48-6.48v-12.59c0-3.58-2.9-6.48-6.48-6.48h-11.74c2.26.09,4.82.38,5.95,1.66,5.04,5.72,9.07,12.18,9.4,22.04Z"/>
      <path class="cls-6" d="M161.56,467.86l.09.49c.44-.1.89-.19,1.33-.3-.5-.06-.94-.13-1.41-.19Z"/>
      <path class="cls-6" d="M165.7,491.57h29.69c-.03-.62-.03-1.24-.06-1.86h-29.96l.32,1.86Z"/>
      <path class="cls-6" d="M124.96,490.71l-3.2-4.51c.34,1.95,1.54,3.57,3.2,4.51Z"/>
      <path class="cls-6" d="M195.33,489.71c.03.62.03,1.24.06,1.86h58.75c.14-.62.29-1.24.43-1.86h-59.24Z"/>
      <path class="cls-6" d="M128.12,491.57h37.57l-.32-1.86h-26.93c-1.44-12.93.48-15.9,11.69-18.73,3.82-.96,7.67-1.78,11.51-2.64l-.09-.49c-3.73-.5-6.91-1.11-9.92-1.84h-23.51c-3.58,0-6.48,2.9-6.48,6.48v12.59c0,.38.05.75.11,1.11l3.2,4.51c.94.53,2.01.86,3.17.86Z"/>
      <path class="cls-10" d="M213.78,347.17c.5.51.98,1.03,1.47,1.54l.73-1.82c-.74.09-1.47.2-2.2.28Z"/>
      <path class="cls-10" d="M212.44,323.82c-2.06,5.38-4.17,10.75-6.24,16.12,2.61,2.33,5.13,4.74,7.58,7.23.74-.08,1.47-.19,2.2-.28l5.95-14.85c1.72-4.28,6.35-6.71,10.96-5.51.6.15,1.14.39,1.67.64,1.12-1.95,2.25-3.89,3.41-5.81-4.17-.8-7.33-4.47-7.33-8.87,0-5,4.05-9.05,9.05-9.05,3.05,0,5.73,1.52,7.37,3.82,1.02-1.5,2.05-3,3.1-4.48-1.03-.54-2.04-1.11-3.01-1.73-6.63-4.27-11.87-10.49-15.02-17.94-.65-1.54-1.69-2.93-2.9-4.37-.26-.31-.56-.65-.83-.96-3.92,14.53-9.14,28.27-14.23,41.56l-1.71,4.47Z"/>
      <path class="cls-10" d="M323.68,312.33c-10.62,5.83-21.65,10.98-33,15.52.02.23.07.45.07.68,0,5-4.05,9.05-9.05,9.05-3.02,0-5.68-1.49-7.32-3.77-12.05,4.01-24.43,7.3-37.11,9.77l-8.55,21.32c6.1,8.41,11.36,17.46,15.7,27.03l16.37-38.86c1.54-3.85,5.45-6.2,9.58-5.76,6.11.65,9.91,6.96,7.62,12.66l-24.46,57.89c3.09,12.22,4.74,25.02,4.74,38.2,0,3.35-.14,6.67-.35,9.97h49.03c.92-2.29,1.87-4.57,2.81-6.86,1.79-4.35,3.54-8.71,5.33-13.06.57-1.39,1.13-2.79,1.7-4.18l-7.58-.23,18.94-44.79c2.92-6.91,5.63-13.29,8.31-19.67,2.03-4.82,4.04-9.66,6.05-14.49,4.64-11.12,9.27-22.24,14.07-33.29.1-.24.22-.46.33-.69-.48-.54-1.03-1.02-1.68-1.4-.12-.07-.24-.14-.37-.21-.94-.53-1.9-1.06-2.9-1.53,0,0,0,0-.01,0-9.4-4.47-18.85-8.85-28.28-13.26ZM318.25,377.16l-30.94,75.47c-1.42,3.47-4.8,5.74-8.55,5.74-6.57,0-11.04-6.66-8.55-12.74l30.84-75.36c1.54-3.85,5.45-6.2,9.58-5.76,6.11.65,9.91,6.96,7.62,12.66ZM320.96,355.67c-5,0-9.05-4.05-9.05-9.05s4.05-9.05,9.05-9.05,9.05,4.05,9.05,9.05-4.05,9.05-9.05,9.05Z"/>
      <path class="cls-10" d="M248.74,312.5c0,5-4.05,9.05-9.05,9.05-.59,0-1.16-.07-1.72-.17-1.16,1.92-2.3,3.86-3.41,5.81,4.38,2.12,6.3,7.45,4.39,12.21l-1.68,4.19c12.68-2.47,25.05-5.76,37.11-9.77-1.08-1.49-1.73-3.3-1.73-5.28,0-5,4.05-9.05,9.05-9.05s8.62,3.69,8.98,8.37c11.35-4.53,22.38-9.68,33-15.52-6.32-2.96-12.62-5.96-18.96-8.89-2.02-.93-3.99-1.6-5.99-1.92-3.14-.5-6.36-.15-9.99,1.46-6.25,2.77-12.39,4.16-18.21,4.37-4.37.16-8.56-.35-12.48-1.42-2.78-.76-5.41-1.83-7.89-3.13-1.05,1.48-2.07,2.98-3.1,4.48,1.05,1.48,1.68,3.27,1.68,5.22Z"/>
      <path class="cls-10" d="M197.87,434.13c-1.08.44-2.25.7-3.46.7-6.56,0-11.04-6.63-8.6-12.71l29.44-73.4c-.49-.51-.97-1.04-1.47-1.54-3.57.4-7.16.71-10.76.99-3.12,8.03-6.2,16.07-9.33,24.1-6.36,16.31-12.72,32.62-18.96,48.97-3.1,8.12-8.17,14.28-14.68,18.23-.3,3.14,1.53,6.24,4.64,7.36,3.36,1.22,6.65,2.41,9.97,3.62,4.61,1.68,9.17,3.32,13.7,4.97,2.39.87,4.78,1.74,7.16,2.59.47-8.05,1.26-16.01,2.36-23.87Z"/>
      <path class="cls-10" d="M206.2,339.94c-1.06,2.74-2.12,5.48-3.18,8.22,3.6-.28,7.2-.59,10.76-.99-2.45-2.49-4.97-4.91-7.58-7.23Z"/>
      <path class="cls-10" d="M197.87,434.13c-1.1,7.86-1.88,15.82-2.36,23.87.76.27,1.53.55,2.28.83,3.96,1.43,7.89,2.82,11.82,4.21,2.24.79,4.49,1.61,6.73,2.39.57.2,1.14.39,1.71.58h39.86c.21-3.3.35-6.62.35-9.97,0-13.18-1.65-25.98-4.74-38.2l-12.76,30.19c-1.44,3.41-4.78,5.62-8.48,5.62-6.58,0-11.04-6.71-8.48-12.78l20.62-48.96c-4.33-9.56-9.6-18.61-15.7-27.03l-25.72,64.12c-.96,2.39-2.84,4.19-5.14,5.12Z"/>
      <path class="cls-10" d="M212.44,323.82l1.71-4.47c5.1-13.29,10.32-27.03,14.23-41.56-1.01-1.17-2.09-2.38-3.18-3.8-5.59,14.28-11.23,28.44-16.88,42.54-2.52,6.29-5.03,12.53-7.54,18.8,1.84,1.5,3.64,3.04,5.41,4.62,2.08-5.38,4.19-10.74,6.24-16.12Z"/>
      <path class="cls-10" d="M356.9,328.74c-.11.24-.23.46-.33.69-4.8,11.05-9.43,22.17-14.07,33.29-2.01,4.83-4.03,9.67-6.05,14.49-2.68,6.39-5.38,12.77-8.31,19.67l-18.94,44.79,7.58.23c1.8-4.39,3.62-8.76,5.35-13.18,3.15-8.04,6.3-16.08,9.43-24.13.6-1.55,1.21-3.11,1.81-4.66,2.56-6.58,5.12-13.15,7.68-19.75.64-1.65,1.29-3.32,1.93-4.97,3.62-9.32,7.25-18.68,10.89-28.07,1.44-3.72,2.88-7.43,4.33-11.17.98-2.53.4-5.3-1.31-7.25Z"/>
      <path class="cls-10" d="M174.72,421.23c6.24-16.35,12.6-32.66,18.96-48.97,3.13-8.02,6.22-16.06,9.33-24.1-2.54.19-5.06.45-7.61.58-1.02,2.54-2.04,5.08-3.06,7.62-1.96,4.88-3.88,9.77-5.83,14.65-3.69,9.24-7.38,18.49-11.03,27.75-2.15,5.47-4.24,10.98-6.37,16.47-2.95,7.6-5.89,15.2-8.79,22.84-.14.46-.24.92-.28,1.39,6.5-3.95,11.58-10.11,14.68-18.23Z"/>
      <path class="cls-10" d="M200.78,335.32c-1.8,4.47-3.59,8.95-5.39,13.42,2.55-.13,5.08-.38,7.61-.58,1.06-2.74,2.13-5.48,3.18-8.22-1.77-1.58-3.57-3.12-5.41-4.62Z"/>
      <path class="cls-6" d="M305.6,469.29c-.57,1.44-1.2,2.47-1.98,3.19.79-.73,1.41-1.76,1.98-3.19.44-1.09.9-2.18,1.34-3.27h0c-.44,1.09-.9,2.18-1.34,3.27Z"/>
      <path class="cls-6" d="M303.58,472.53c-.75.68-1.65,1.06-2.79,1.27,1.13-.2,2.04-.59,2.79-1.27Z"/>
      <path class="cls-6" d="M218.05,466.01h-.03c5.51,1.92,11.02,3.81,16.54,5.65,1.74.58,3.54,1.01,5.37,1.34-1.84-.32-3.63-.76-5.37-1.34-5.51-1.83-11-3.73-16.5-5.65Z"/>
      <path class="cls-6" d="M251.12,473.97c-2.82-.08-5.65-.22-8.41-.56,2.77.34,5.6.48,8.41.56Z"/>
      <path class="cls-6" d="M297.57,473.96c.57.02,1.1.03,1.59.01.6-.02,1.13-.08,1.63-.18,1.13-.2,2.04-.59,2.79-1.27.01-.01.03-.03.04-.05.79-.73,1.41-1.76,1.98-3.19.44-1.1.9-2.18,1.34-3.27h-49.03c-.17,2.71-.41,5.4-.72,8.07,13.46.22,26.95-.67,40.38-.12Z"/>
      <path class="cls-6" d="M234.56,471.66c1.74.58,3.54,1.01,5.37,1.34.92.16,1.85.3,2.78.41,2.77.34,5.6.48,8.41.56.99.03,1.97.05,2.95.06.95.02,1.89.03,2.82.05.1,0,.19,0,.29,0,.31-2.67.55-5.36.72-8.07h-39.86c5.5,1.92,10.99,3.82,16.5,5.65Z"/>
      <rect class="cls-6" x="41.34" y="628.83" width="455.42" height="25.17"/>
      <path class="cls-6" d="M342.5,574.08h153.88l.29-6.07-2.07-4.54-114.86,1.11c-12.08,3.96-24.52,7.14-37.24,9.49Z"/>
      <path class="cls-6" d="M236.5,574.08c-8.78-1.62-17.41-3.65-25.89-6.04-.41-.12-.82-.23-1.23-.35-1.65-.47-3.32-.9-4.95-1.41l-162.73,1.57,1.27,6.23h193.53Z"/>
      <path class="cls-6" d="M232.13,283.12c3.15,7.45,8.39,13.67,15.02,17.94.97.63,1.99,1.19,3.01,1.73,3.23-4.54,6.59-8.98,10.06-13.33h-1.96l-18.57-24.06-9.05-5.31c.13,4.89-.23,10.12-1.64,15.55-.19.72-.42,1.42-.61,2.13.28.32.57.65.83.96,1.22,1.45,2.25,2.83,2.9,4.37Z"/>
      <path class="cls-6" d="M210.62,568.03c8.48,2.4,17.11,4.42,25.89,6.04h106c12.73-2.36,25.16-5.53,37.24-9.49l-167.2,1.62c-.63.63-1.29,1.22-1.93,1.84Z"/>
      <path class="cls-6" d="M309.75,459.16c-.94,2.28-1.88,4.57-2.81,6.86h107.96c-.42-.02-.86-.04-1.24-.05-24.64-.51-49.29-.85-73.93-1.31-3.15-.06-6.29-.49-10.8-.85,3.06-7.49,5.8-14.47,8.73-21.24l-20.88-.64c-.57,1.39-1.12,2.79-1.7,4.18-1.79,4.35-3.55,8.71-5.33,13.06Z"/>
      <path class="cls-6" d="M323.68,312.33c9.43,4.41,18.87,8.79,28.28,13.26,0,0,0,0,.01,0,1,.47,1.96,1,2.9,1.53.08.05.18.09.26.14.04.02.07.05.11.08.63.36,1.24.72,1.83,1.08,2.52-5.58,5.56-10.53,8.37-14.78-7.01-4.45-13.79-9.22-20.32-14.3-6.95,4.61-14.09,8.96-21.43,12.99Z"/>
      <path class="cls-6" d="M318.71,289.47h-58.49c-3.47,4.35-6.83,8.79-10.06,13.33,2.48,1.3,5.12,2.37,7.89,3.13,3.93,1.08,8.12,1.58,12.48,1.42,5.82-.21,11.96-1.6,18.21-4.37,3.63-1.61,6.85-1.97,9.99-1.46,2,.32,3.97.98,5.99,1.92,6.34,2.93,12.64,5.94,18.96,8.89,7.34-4.03,14.48-8.38,21.43-12.99-5.68-4.41-11.17-9.06-16.47-13.92l-9.93,4.04Z"/>
      <path class="cls-6" d="M388.35,297.58c.71-.14,1.39-.26,2.06-.37-1.05-1.02-2.26-2.08-3.5-3.17-1.63-1.43-3.28-2.89-4.91-4.41l-10.59-9.89c-8.39,7-17.18,13.54-26.31,19.6,6.53,5.08,13.32,9.85,20.32,14.3.27-.41.56-.86.83-1.26,4.94-7.37,13.41-13.04,22.1-14.79Z"/>
      <path class="cls-6" d="M446.22,245.47c13.51-.93,25.35-4.7,35.77-11.38l-52.85,12.22c5.5-.1,11.17-.43,17.08-.84Z"/>
      <path class="cls-6" d="M328.64,285.43c5.29,4.86,10.79,9.5,16.47,13.92,9.13-6.06,17.92-12.6,26.31-19.6l-8.75-8.17-34.02,13.85Z"/>
      <path class="cls-6" d="M204.43,566.28c1.64.5,3.3.93,4.95,1.41-.16-.49-.34-.96-.49-1.45l-4.46.04Z"/>
      <path class="cls-6" d="M132.6,451l4.29,2.08h-.01s20,9.71,20,9.71c1.78-3.67,2.45-7.78,1.84-11.28l2.53,14.5h33.92c.09-2.68.21-5.35.36-8.01-2.37-.86-4.78-1.73-7.16-2.6-4.53-1.64-9.11-3.3-13.7-4.97-5.53-2.01-11.08-4.03-16.75-6.07.59-1.58,1.22-3.14,1.82-4.72-1.49.88-3.04,1.69-4.68,2.34-.26-.41-.53-.82-.81-1.22l-3.74,2.65c-3.29.8-6.83,1.15-10.52,1.05-1.34-.04-2.87-.08-4.55-.12-.79,1.81-1.56,3.54-2.37,5.23-.21.43-.35.92-.45,1.42Z"/>
      <path class="cls-6" d="M208.89,566.23c.15.49.33.96.49,1.45.41.12.82.23,1.23.35.64-.62,1.3-1.21,1.93-1.84l-3.65.03Z"/>
      <path class="cls-6" d="M216.35,465.43c-2.24-.78-4.49-1.59-6.73-2.39-3.93-1.39-7.86-2.79-11.82-4.21-.76-.27-1.52-.55-2.28-.82-.16,2.66-.28,5.33-.36,8.01h22.87c-.56-.19-1.12-.39-1.67-.58Z"/>
      <path class="cls-6" d="M521.31,558.43c.98,2.15,1.51,4.34,1.71,6.5-.02-2.71-.55-5.49-1.78-8.19l-28.05-61.55c-.16.16-.32.3-.48.46l28.61,62.77Z"/>
      <path class="cls-6" d="M61.84,468.22c-.19-.24-.38-.48-.56-.72l-44.25,88.59c-1.76,3.53-2.33,7.21-2.02,10.74,0-3,.62-6.08,2.1-9.05l44.73-89.56Z"/>
      <path class="cls-6" d="M14.95,570.84h.42c-.11-.55-.14-1.12-.21-1.69h-.29v141.01c0,.26.06.5.08.76v-140.08Z"/>
      <path class="cls-6" d="M484.9,709.59v.56c0,.26.06.51.08.77v-1.33h-.08Z"/>
      <path class="cls-6" d="M611.99,220.31c0-.45.04-.88,0-1.36-.21-2.24-1.45-4.36-3.4-6.12-.23.33-.43.68-.69,1,2.31,1.79,3.75,4.07,4.09,6.48Z"/>
      <path class="cls-6" d="M537.6,100.72c19.64.02,39.29.14,58.94.25,1.8,0,3.6.2,5.38.39,5.07.54,8.85,2.81,9.6,7.93.02-.29.08-.57.06-.86-.42-5.73-4.38-8.19-9.73-8.75-1.79-.19-3.59-.38-5.38-.39-19.65-.11-39.29-.23-58.94-.25-10.04,0-20.09-.02-30.13-.03.49.56.98,1.13,1.46,1.69,9.58,0,19.16.03,28.75.03Z"/>
      <path class="cls-6" d="M215.15,180.24c12.56-11.28,23.95-23.8,33.37-37.74-.09-.47-.18-.94-.27-1.41-9.38,13.82-20.71,26.25-33.18,37.45-11.18,10.04-17.96,20.97-17.12,34.36-.19-12.63,6.49-23.05,17.2-32.67Z"/>
      <path class="cls-6" d="M203.45,269.04c.82-3.17.92-6.55.71-10,.08,2.86-.1,5.66-.79,8.31-3.99,15.44-9.95,30.41-15.66,45.36-1.34,3.5-2.71,6.98-4.06,10.48.2.12.39.25.59.38,1.18-3.06,2.38-6.1,3.55-9.16,5.71-14.95,11.67-29.92,15.66-45.36Z"/>
      <path class="cls-6" d="M508.86,100.69c-.49-.57-.97-1.13-1.46-1.69-10.8,0-21.6-.02-32.4-.03-.09.57-.21,1.12-.3,1.69,11.39.02,22.77.02,34.16.03Z"/>
      <path class="cls-6" d="M473.17,100.65c.51,0,1.02,0,1.53,0,.1-.56.21-1.12.3-1.69-1.2,0-2.4,0-3.6,0,.59.56,1.19,1.12,1.77,1.69Z"/>
      <path class="cls-6" d="M253.93,133.94c-.51.25-1.03.49-1.54.74-1.33,2.17-2.71,4.3-4.14,6.41.09.47.18.94.27,1.41,1.89-2.79,3.7-5.64,5.41-8.56Z"/>
      <path class="cls-6" d="M304.92,100.69c.58-.02,1.16-.05,1.75-.05,25.45-.06,50.9-.08,76.34-.08,30.05,0,60.1.05,90.15.09-.59-.57-1.18-1.13-1.77-1.69-29.49-.04-58.97-.09-88.46-.09-25.32,0-50.64.02-75.96.08-.39.33-.75.68-1.14,1-.3.25-.62.49-.92.74Z"/>
      <path class="cls-6" d="M481.35,470.78l11.34,24.87c.16-.16.33-.3.48-.46l-11.35-24.9c-.16.17-.31.33-.47.49Z"/>
      <path class="cls-6" d="M439.62,416.16c-18.78-.07-37.55-.15-56.33-.33-10.9-.11-21.82-.62-34.08-1-.24.56-.46,1.09-.7,1.66,12.59.39,23.72.92,34.86,1.03,18.78.18,37.55.26,56.33.33,10.7.04,20.4,6.31,24.84,16.05l16.81,36.89c.16-.16.31-.33.47-.49l-17.36-38.09c-4.44-9.74-14.14-16.01-24.84-16.05Z"/>
      <path class="cls-6" d="M412.97,282.57c3.76,4.44,5.72,9.83,6.11,15.21-.06-5.94-2.03-12-6.19-16.9-3.11-3.66-6.87-6.79-10.65-10.15-.74-.14-1.49-.24-2.23-.39,4.52,4.22,9.21,7.82,12.96,12.24Z"/>
      <path class="cls-6" d="M255.09,130.2c-.87,1.52-1.79,3-2.7,4.48.51-.25,1.03-.49,1.54-.74.41-.69.84-1.36,1.24-2.05,11.91-20.89,28.87-30.64,49.75-31.2.3-.25.62-.48.92-.74.39-.33.75-.68,1.14-1-.13,0-.26,0-.38,0-21.7.05-39.26,9.78-51.5,31.25Z"/>
      <path class="cls-6" d="M74.58,442.71c-.18-.25-.36-.51-.54-.76l-12.76,25.55c.19.24.38.48.56.72l12.74-25.51Z"/>
      <path class="cls-6" d="M79.52,432.82c4.81-9.63,14.71-15.64,25.47-15.45,12.15.21,27.54.49,35.72.72,4.88.14,7.51-1.46,9.35-6.27,8.01-20.97,16.17-41.89,24.32-62.81-.24,0-.48-.01-.72-.02-7.93,20.36-15.88,40.72-23.67,61.14-1.84,4.81-4.47,6.41-9.35,6.27-8.18-.23-23.56-.51-35.72-.72-10.76-.18-20.66,5.83-25.47,15.45l-5.41,10.82c.18.25.36.51.54.76l4.94-9.9Z"/>
      <path class="cls-6" d="M133.12,451.27c-.3.62-.51,1.17-.66,1.69.02.37.08.75.14,1.13.01-1.03.13-2.01.52-2.82Z"/>
      <path class="cls-6" d="M183.65,323.19c-3.31,8.61-6.65,17.21-9.99,25.8.24,0,.48.01.72.02,3.3-8.48,6.59-16.96,9.86-25.45-.2-.12-.39-.25-.59-.38Z"/>
      <path class="cls-6" d="M492.69,495.66c-3.38,3.34-6.85,6.58-10.4,9.75l21.09,57.98-8.79.08,2.07,4.54-.29,6.07h7.01v54.75h-6.63v25.17h6.63v56.16c0,5.75-4.66,10.41-10.41-2.25h-8.08v1.69h.08v1.33c.4,5.38,4.85,9.64,10.33,9.64h17.36c5.75,0,10.41-4.66,10.41-10.41v-144.01h-.06c.02-.4,0-.81,0-1.21-.2-2.17-.73-4.36-1.71-6.5l-28.61-62.77Z"/>
      <path class="cls-6" d="M593.78,218.89l-23.51-.09c.99,3.92,1.91,7.87,2.74,11.86,9.14-.15,18.28-.3,27.42-.46,7.23-.12,11.51-3.92,11.56-9.89-.34-2.41-1.78-4.69-4.09-6.48.25-.31.45-.67.69-1-.26-.23-.48-.47-.76-.69-3.33,4.1-8.35,6.76-14.04,6.74Z"/>
      <path class="cls-6" d="M601.92,101.35c-1.79-.19-3.59-.38-5.38-.39-19.65-.11-39.29-.23-58.94-.25-9.58,0-19.16-.02-28.75-.03,2.19,2.54,4.35,5.11,6.45,7.73h78.27c5.87,0,11.04,2.84,14.34,7.18,2.09-1.68,3.47-3.94,3.61-6.32-.74-5.11-4.52-7.39-9.6-7.93Z"/>
      <path class="cls-6" d="M25.28,720.56h17.36c5.75,0,10.41-4.66,10.41-10.41v-2.25h-9.34c-5.75,12.66-10.41,8-10.41,2.25v-56.16h8.04v-25.17h-8.04v-54.75h9.68l-1.27-6.23-1.72.02,36.29-82.59c-5.04-5.48-9.82-11.19-14.43-17.05l-44.73,89.56c-1.48,2.97-2.11,6.05-2.1,9.05.07.78.13,1.56.28,2.31h-.13c.07.56.09,1.14.21,1.69h-.42v140.08c.39,5.39,4.84,9.65,10.33,9.65Z"/>
      <path class="cls-6" d="M225.2,273.99c1.1,1.41,2.17,2.63,3.18,3.8.19-.72.42-1.41.61-2.13,1.41-5.44,1.77-10.67,1.64-15.55l-19.43-11.41v-48.34l39.5-47.67c-.79-3.37-1.52-6.76-2.19-10.18-9.41,13.94-20.81,26.46-33.37,37.74-10.71,9.62-17.39,20.04-17.2,32.67.09,1.46.25,2.94.53,4.47,1.56,8.53,3.01,17.06,3.94,25.68.56,5.23,1.6,10.72,1.74,15.98.21,3.45.11,6.83-.71,10-3.99,15.44-9.95,30.41-15.66,45.36-1.17,3.06-2.37,6.11-3.55,9.16,5.78,3.56,11.3,7.49,16.55,11.76,2.52-6.26,5.03-12.51,7.54-18.8,5.65-14.1,11.28-28.26,16.88-42.54Z"/>
      <path class="cls-6" d="M480.83,108.42h34.48c-2.1-2.62-4.26-5.19-6.45-7.73-11.39-.01-22.77-.02-34.16-.03-.07.42-.15.83-.22,1.24,2.16,2.13,4.27,4.32,6.35,6.52Z"/>
      <path class="cls-6" d="M474.47,101.9c-.38,2.17-.74,4.36-1.16,6.52h7.52c-2.09-2.2-4.19-4.39-6.35-6.52Z"/>
      <path class="cls-6" d="M474.69,100.65c-.51,0-1.02,0-1.53,0,.43.42.88.82,1.3,1.24.07-.41.15-.83.22-1.24Z"/>
      <path class="cls-6" d="M306.67,100.64c-.59,0-1.17.04-1.75.05-3.2,2.67-6.45,5.24-9.74,7.72h178.13c.43-2.16.78-4.34,1.16-6.52-.43-.42-.87-.83-1.3-1.24-30.05-.04-60.1-.09-90.15-.09-25.45,0-50.89.02-76.34.08Z"/>
      <path class="cls-6" d="M250.7,152.68l26.15-31.57c-7.48,4.71-15.14,8.96-22.93,12.83-1.72,2.91-3.53,5.76-5.41,8.56.66,3.42,1.39,6.81,2.19,10.18Z"/>
      <path class="cls-6" d="M472.84,479.41l9.46,25.99c3.54-3.17,7.01-6.41,10.4-9.75l-11.34-24.87c-2.77,2.94-5.61,5.82-8.52,8.63Z"/>
      <path class="cls-6" d="M439.7,417.85c-18.78-.07-37.55-.15-56.33-.33-11.14-.11-22.27-.64-34.86-1.03.24-.57.46-1.1.7-1.66-.27,0-.51-.02-.78-.03,4.53-10.71,8.42-19.87,12.27-29.05,6.65-15.84,13.16-31.74,20-47.5,1.83-4.2,4.28-8.17,6.83-12.01-7.59-3.84-14.96-8.06-22.11-12.6-2.81,4.25-5.85,9.2-8.37,14.78,1.21.73,2.34,1.44,3.32,2.01-2.18,5.6-4.34,11.16-6.5,16.73-3.65,9.39-7.28,18.75-10.89,28.07-.64,1.65-1.29,3.32-1.93,4.97-2.56,6.6-5.12,13.18-7.68,19.75-.6,1.55-1.21,3.11-1.81,4.66-3.14,8.05-6.28,16.1-9.43,24.13-1.73,4.41-3.55,8.79-5.35,13.18l20.88.64c.69-1.59,1.37-3.18,2.09-4.75.53-1.17,3.39-1.78,5.18-1.8,10.82-.11,21.65.04,32.47.07,26.6.06,53.19.03,79.79.29l15.66,43.04c2.91-2.81,5.74-5.69,8.52-8.63l-16.81-36.89c-4.44-9.74-14.14-16.01-24.84-16.05Z"/>
      <path class="cls-6" d="M543.86,219.77c1.03,3.73,1.97,7.49,2.84,11.28,8.77-.13,17.54-.25,26.31-.39-.82-3.99-1.75-7.93-2.74-11.86l-21.87-.08-4.54,1.05Z"/>
      <path class="cls-6" d="M481.98,234.09c-10.42,6.69-22.25,10.46-35.77,11.38-5.92.41-11.59.74-17.08.84l-10.28,2.38-24.88,10.13c-7.17,7.35-14.68,14.34-22.57,20.92l10.59,9.89c1.63,1.52,3.28,2.98,4.91,4.41,1.24,1.1,2.45,2.16,3.5,3.17-.67.1-1.36.23-2.06.37-8.69,1.75-17.16,7.42-22.1,14.79-.27.4-.55.85-.83,1.26,7.15,4.54,14.51,8.76,22.11,12.6.19-.29.37-.58.57-.86,1.07-1.6,3.5-3.24,5.38-3.62,4.13-.83,8.76-.24,12.46-1.87,8.59-3.79,13.23-12.8,13.13-22.11-.39-5.39-2.35-10.78-6.11-15.21-3.74-4.41-8.43-8.02-12.96-12.24.75.15,1.49.26,2.23.39-.77-.69-1.54-1.37-2.31-2.08,16.11,3.32,32,2.57,48.02,1.47,28.42-1.95,51.85-13.55,70.48-34.84,2.57-2.93,5-3.91,8.64-3.95,6.54-.07,13.09-.18,19.63-.27-.87-3.79-1.81-7.55-2.84-11.28l-61.88,14.31Z"/>
      <path class="cls-6" d="M371.41,279.74c7.88-6.58,15.4-13.58,22.57-20.92l-31.32,12.75,8.75,8.17Z"/>
      <path class="cls-6" d="M287.38,108.42h7.8c3.29-2.49,6.54-5.06,9.74-7.72-20.89.56-37.84,10.31-49.75,31.2-.4.69-.83,1.36-1.24,2.05,7.79-3.87,15.45-8.12,22.93-12.83l10.52-12.69Z"/>
      <path class="cls-6" d="M87.97,459.98c-4.7-5.56-9.16-11.32-13.39-17.26l-12.74,25.51c4.61,5.86,9.39,11.57,14.43,17.05l8.88-20.22c.94-1.7,1.88-3.38,2.82-5.08Z"/>
      <path class="cls-6" d="M136.19,456.48c7.81,2.58,15.42,5.74,22.84,9.53h2.21l-2.53-14.5c.61,3.5-.06,7.61-1.84,11.28l-20-9.7h.01s-4.29-2.09-4.29-2.09c-.12.62-.17,1.27-.14,1.96.15-.52.36-1.07.66-1.69-.39.8-.51,1.79-.52,2.82.01.09.02.18.03.27.6.85,1.74,1.52,3.56,2.12Z"/>
      <path class="cls-6" d="M100.93,436.63h37.82c-1.25,2.85-2.3,5.36-3.33,7.72,1.68.04,3.21.08,4.55.12,3.69.1,7.23-.25,10.52-1.05l3.74-2.65c.29.4.56.81.81,1.22,1.64-.65,3.18-1.45,4.68-2.34.2-.53.41-1.05.61-1.58.04-.14.06-.28.11-.42,2.84-7.51,5.78-14.95,8.67-22.41,2.13-5.48,4.22-11,6.37-16.47,3.64-9.26,7.33-18.51,11.03-27.75,1.95-4.88,3.88-9.77,5.83-14.65,1.02-2.53,2.04-5.08,3.06-7.62-5.16.26-10.35.4-15.57.4-1.83,0-3.63-.1-5.44-.14-8.14,20.92-16.31,41.83-24.32,62.81-1.84,4.81-4.47,6.41-9.35,6.27-8.18-.23-23.57-.51-35.72-.72-10.76-.18-20.66,5.83-25.47,15.45l-4.94,9.9c4.23,5.94,8.69,11.7,13.39,17.26,4.37-7.88,8.73-15.7,12.96-23.35Z"/>
      <path class="cls-6" d="M195.4,348.74c1.79-4.47,3.59-8.95,5.39-13.42-5.24-4.27-10.77-8.2-16.55-11.76-3.27,8.49-6.56,16.97-9.86,25.45,1.82.03,3.62.14,5.44.14,5.22,0,10.41-.14,15.57-.4Z"/>
      <path class="cls-6" d="M289.5,579c-18.11,0-35.81-1.74-53-4.93H42.97l4.74,23.15h-6.37v31.6h455.42v-34.6h-1.35l.97-20.15h-153.88c-17.19,3.18-34.89,4.93-53,4.93ZM484.9,597.99v12.44c0,6.95-5.63,12.58-12.58,12.58H65.63c-6.95,0-12.58-5.63-12.58-12.58v-12.44c0-6.95,5.63-12.58,12.58-12.58h406.69c6.95,0,12.58,5.63,12.58,12.58Z"/>
      <path class="cls-6" d="M289.5,579c18.11,0,35.81-1.74,53-4.93h-106c17.19,3.18,34.89,4.93,53,4.93Z"/>
      <polygon class="cls-6" points="496.76 594.23 496.76 628.83 503.39 628.83 503.39 574.08 496.37 574.08 495.41 594.23 496.76 594.23"/>
      <polygon class="cls-6" points="41.34 597.23 47.71 597.23 42.97 574.08 33.3 574.08 33.3 628.83 41.34 628.83 41.34 597.23"/>
      <path class="cls-6" d="M41.34,654v29.2h11.71v-4.6c0-12.25,9.93-22.19,22.19-22.19h387.48c12.25,0,22.19,9.93,22.19,22.19v4.6h11.86v-29.2H41.34Z"/>
      <path class="cls-6" d="M41.34,683.2v-29.2h-8.04v56.16c0,5.75,4.66,10.41,10.41-2.25h9.34v-24.7h-11.71Z"/>
      <path class="cls-6" d="M484.9,683.2v24.7h8.08c5.75,12.66,10.41,8,10.41,2.25v-56.16h-6.63v29.2h-11.86Z"/>
      <path class="cls-6" d="M258.26,289.47h1.96c1.97-2.47,3.98-4.89,6.03-7.29-.35-.03-.59-.05-.59-.05-.87-.04-1.79-.17-2.78-.44-9.03-2.51-13.45-9.34-11.55-16.75.02-.08.02-.16.04-.25.02-.06.05-.12.07-.19.18-.62.4-1.24.67-1.87,2.4-5.74,7.76-10.33,11.6-14.97,5.03-6.08,10.57-11.71,16.34-17.09.65-.61,1.33-1.2,2-1.8-5.99-9.79-11.37-19.98-16.05-30.56-1.2,1.28-2.43,2.52-3.72,3.69-3.41,3.11-7.6,5.22-12.02,6.53-5.95,1.76-6.58,2.48-4.08,9.02,2.48,6.48,2.24,12.61-1.37,18.41-2.95,4.75-5.76,9.9-9.84,13.49-1.13,1-3.04,1.24-5.09,1.2.37,2.99.7,6.18.78,9.54l9.05,5.31,18.57,24.06Z"/>
      <path class="cls-6" d="M520.26,151.09c-1.87-2.42-4.71-2.62-7.57-1.74,3.49,5.52,6.8,11.16,9.88,16.95.45-5.33.41-11.7-2.31-15.21Z"/>
      <path class="cls-6" d="M503.54,156.17c-4.09,6.66-.36,13.67-1.15,20.67,6.18.17,12.31.49,18.39,1.03.5-2.12.94-4.27,1.22-6.45.19-1.45.4-3.23.56-5.12-3.08-5.79-6.39-11.43-9.88-16.95-3.8,1.18-7.62,4.31-9.15,6.82Z"/>
      <path class="cls-6" d="M316.96,197.57c11.53-12.69,24.56-24.01,36.23-36.59,4.03-4.35,8.04-8.71,12.05-13.08,1.39-1.51,2.6-4.62,1.95-6.15-.67-1.58-3.67-2.81-5.77-3.01-11.57-1.14-20.45,3.53-27.38,12.82-4.38,5.89-9.3,11.42-14.33,16.79-6.38,6.82-9.87,6.88-16.83,1.08-9.2-7.68-16.7-5.75-20.99,4.92-1.54,3.82-3.27,7.55-5.63,10.92-3.14,4.47-6.52,8.93-10.29,12.96,4.68,10.58,10.07,20.77,16.05,30.56,11.53-10.45,24.52-19.74,34.93-31.2Z"/>
      <path class="cls-6" d="M307.48,263.65c-1.49,1.87-2.72,3.85-3.44,5.93-1.6,4.6-4.43,6.12-7.89,7.22-9.81,6.52-26.68,5.62-29.9,5.38-2.04,2.4-4.06,4.83-6.03,7.29h58.49l9.93-4.04c-7.46-6.85-14.53-14.11-21.15-21.77Z"/>
      <path class="cls-6" d="M541.66,206.41c-.63-.02-1.26-.04-1.9-.07.01.03.02.06.03.09.62,0,1.24-.02,1.87-.03Z"/>
      <path class="cls-6" d="M516.44,195.75c.92-6.07,2.93-11.9,4.35-17.88-6.08-.54-12.22-.86-18.39-1.03-.02.21-.01.41-.04.62-.85,5.61-5.74,9.83-9.69,13.73-6.05,5.98-12.73,11.32-20.15,15.49-15,8.44-30.56,12.04-46.34,13.03-6,8.69-12.47,17.04-19.34,25.03,7.19,1.34,14.57,1.7,22.29,1.57l52.85-12.22c6.01-3.86,11.56-8.67,16.67-14.51,7.41-8.47,16.9-12.83,28.2-12.95,4.31-.05,8.63-.13,12.94-.19-.01-.03-.02-.06-.03-.09-5.06-.16-10.12-.3-15.18-.52-5.99-.26-9.06-4.03-8.14-10.07Z"/>
      <path class="cls-6" d="M379.39,217.16c-8.14-1.03-14.05-.15-19.7,4.11-4.75,3.58-9.44,7.24-14.15,10.87l59.8,12.34c.5.1,1,.17,1.5.26,6.87-7.99,13.34-16.34,19.34-25.03-15.48.97-31.18-.57-46.79-2.56Z"/>
      <path class="cls-6" d="M307.48,263.65c6.63,7.66,13.69,14.93,21.15,21.77l34.02-13.85-30.8-28.75c-5.83,4.62-11.65,9.24-17.4,13.95-2.44,2-4.95,4.33-6.98,6.88Z"/>
      <path class="cls-6" d="M600.78,118.29c2.65-.06,5.17-1.12,7.13-2.69-3.3-4.34-8.47-7.18-14.34-7.18h-78.27c2.83,3.52,5.57,7.1,8.24,10.75,25.75-.08,51.49-.29,77.24-.88Z"/>
      <path class="cls-6" d="M593.78,218.89c5.69.02,10.71-2.65,14.04-6.74-2.39-1.85-5.69-3.17-9.55-3.57-7.91-.8-15.9-.9-23.86-1.17-2.45-.08-4.89-.14-7.34-.22,1.14,3.84,2.23,7.7,3.21,11.61l23.51.09Z"/>
      <path class="cls-6" d="M229.86,250.55c-1.79-.04-3.69-.28-5.32-.45-.98-.1-2.19-2.96-2.39-4.66-.97-8.35-1.28-16.79-2.49-25.1-1.96-13.45,3.78-23.6,15.33-33.75,7.01-6.16,13.44-12.89,19.35-20.04-1.35-4.57-2.54-9.2-3.64-13.87l-39.5,47.67v48.34l19.43,11.41c-.09-3.37-.41-6.55-.78-9.54Z"/>
      <path class="cls-6" d="M490.55,119.22c11,0,21.99-.02,32.99-.05-2.66-3.65-5.41-7.23-8.24-10.75h-34.48c3.34,3.51,6.58,7.11,9.72,10.81Z"/>
      <path class="cls-6" d="M490.55,119.22c-3.14-3.69-6.39-7.29-9.72-10.81h-7.52c-.72,3.63-1.55,7.22-2.4,10.8,6.55,0,13.09,0,19.64,0Z"/>
      <path class="cls-6" d="M250.7,152.68c1.1,4.67,2.29,9.3,3.64,13.87,6.89-8.33,13.08-17.26,18.57-26.65,8.36-14.33,20.07-21.41,35.03-21.37,51.02.13,102.04.66,153.05.69,3.31,0,6.61,0,9.92,0,.85-3.58,1.68-7.17,2.4-10.8h-178.13c-5.98,4.52-12.08,8.76-18.32,12.69l-26.15,31.57Z"/>
      <path class="cls-6" d="M539.79,206.43c1.47,4.4,2.83,8.84,4.07,13.34l4.54-1.05,21.87.08c-.98-3.91-2.07-7.77-3.21-11.61-8.47-.26-16.94-.53-25.4-.79-.62,0-1.24.02-1.87.03Z"/>
      <path class="cls-6" d="M498.65,219.58c-5.11,5.84-10.66,10.65-16.67,14.51l61.88-14.31c-1.24-4.5-2.6-8.94-4.07-13.34-4.31.06-8.63.14-12.94.19-11.3.13-20.78,4.48-28.2,12.95Z"/>
      <path class="cls-6" d="M406.84,244.74c-4.14,4.82-8.42,9.52-12.86,14.07l24.88-10.13,10.28-2.38c-7.73.14-15.1-.23-22.29-1.57Z"/>
      <path class="cls-6" d="M405.34,244.48l-59.8-12.34c-4.58,3.54-9.14,7.09-13.68,10.68l30.8,28.75,31.32-12.75c4.44-4.55,8.72-9.25,12.86-14.07-.5-.09-1-.16-1.5-.26Z"/>
      <path class="cls-6" d="M276.86,121.11c6.24-3.93,12.34-8.18,18.32-12.69h-7.8l-10.52,12.69Z"/>
      <path class="cls-6" d="M178.63,556.97h-1.53s1.66,9.49,1.66,9.49l-6.76-9.51-100.06-.24c-8.31-.02-13.97-8.45-10.84-16.15l20.3-49.9c-.28-.29-.55-.58-.83-.87l-38.91,77.9.03.16,162.73-1.57c-8.79-2.7-17.39-5.82-25.8-9.31Z"/>
      <path class="cls-6" d="M475.31,557.69l-76.3-.19c-6.31,2.58-12.74,4.94-19.27,7.08l114.86-1.11-7.57-16.6c-.46,5.82-5.29,10.83-11.72,10.82Z"/>
      <path class="cls-6" d="M212.54,566.2l167.2-1.62c6.53-2.14,12.96-4.5,19.27-7.08l-178.07-.43c-2.69,3.15-5.48,6.21-8.4,9.13Z"/>
      <path class="cls-6" d="M206.21,557.04l-27.58-.07c8.41,3.49,17.01,6.61,25.8,9.31l4.46-.04c-.96-3.04-1.82-6.12-2.69-9.2Z"/>
      <path class="cls-6" d="M80.57,489.79c.28.29.55.58.83.87l5.56-13.68-6.39,12.8Z"/>
      <path class="cls-6" d="M208.89,566.23l3.65-.03c2.93-2.92,5.71-5.98,8.4-9.13l-14.74-.04c.87,3.08,1.73,6.16,2.69,9.2Z"/>
      <path class="cls-6" d="M80.57,489.79c-1.44-1.5-2.9-2.98-4.3-4.51l-36.29,82.59,1.72-.02-.03-.16,38.91-77.9Z"/>
      <polygon class="cls-6" points="178.76 566.46 177.1 556.96 172 556.95 178.76 566.46"/>
      <path class="cls-6" d="M486.11,541.33c.79,1.84,1.06,3.73.92,5.55l7.57,16.6,8.79-.08-21.09-57.98c-2.79,2.49-5.59,4.96-8.47,7.34l12.29,28.58Z"/>
      <path class="cls-6" d="M463.27,488.22l10.55,24.52c2.88-2.38,5.69-4.85,8.47-7.34l-9.46-25.99c-3.12,3.01-6.3,5.95-9.56,8.81Z"/>
      <path class="cls-6" d="M443.97,443.35l19.3,44.88c3.26-2.86,6.45-5.79,9.56-8.81l-15.66-43.04c-26.6-.27-53.19-.23-79.79-.29,18.62.04,37.24.07,55.85.16,4.67.02,8.88,2.82,10.73,7.11Z"/>
      <path class="cls-6" d="M86.97,476.98l5.03-12.36c-1.36-1.53-2.7-3.08-4.03-4.65-.94,1.7-1.88,3.38-2.82,5.08l-8.88,20.22c1.41,1.53,2.86,3.01,4.3,4.51l6.39-12.8Z"/>
      <path class="cls-6" d="M111.28,436.63h-10.35c-4.23,7.65-8.59,15.47-12.96,23.35,1.32,1.57,2.67,3.11,4.03,4.65l8.41-20.68c1.8-4.42,6.09-7.31,10.86-7.31Z"/>
      <path class="cls-6" d="M232.13,283.12c-.65-1.54-1.69-2.93-2.9-4.37,1.22,1.45,2.25,2.83,2.9,4.37,3.15,7.45,8.39,13.67,15.02,17.94-6.63-4.27-11.86-10.49-15.02-17.94Z"/>
      <path class="cls-6" d="M351.96,325.6c1,.47,1.96,1,2.9,1.53-.94-.53-1.9-1.06-2.9-1.53Z"/>
      <path class="cls-6" d="M315.08,446.1c-1.79,4.35-3.55,8.71-5.33,13.06,1.79-4.35,3.54-8.71,5.33-13.06Z"/>
      <path class="cls-6" d="M356.9,328.74c.05-.11.1-.21.15-.32-.59-.36-1.2-.71-1.83-1.08.64.38,1.2.86,1.68,1.4Z"/>
      <path class="cls-6" d="M288.74,302.98c3.63-1.61,6.85-1.97,9.99-1.46-3.14-.5-6.36-.15-9.99,1.46-6.25,2.77-12.39,4.16-18.21,4.37,5.82-.21,11.96-1.6,18.21-4.37Z"/>
      <path class="cls-6" d="M174.65,450.44c-3.32-1.21-6.6-2.4-9.97-3.62-3.11-1.13-4.94-4.22-4.64-7.36-.11.07-.22.13-.33.2-.6,1.58-1.22,3.14-1.82,4.72,5.67,2.04,11.22,4.06,16.75,6.07Z"/>
      <path class="cls-6" d="M188.35,455.41c2.38.87,4.79,1.74,7.16,2.6,0,0,0,0,0,0-2.38-.86-4.77-1.73-7.16-2.59Z"/>
      <path class="cls-6" d="M195.52,458s0,0,0,0c.76.27,1.52.55,2.28.82-.76-.27-1.52-.55-2.28-.83Z"/>
      <path class="cls-6" d="M216.35,465.43c-2.24-.78-4.49-1.59-6.73-2.39,2.24.79,4.49,1.61,6.73,2.39Z"/>
      <path class="cls-6" d="M208.33,316.52c5.65-14.1,11.28-28.26,16.88-42.54-5.59,14.28-11.23,28.44-16.88,42.54Z"/>
      <path class="cls-6" d="M333.37,399.95c-.6,1.55-1.21,3.11-1.81,4.66.6-1.55,1.21-3.11,1.81-4.66Z"/>
      <path class="cls-6" d="M342.98,375.23c-.64,1.66-1.29,3.32-1.93,4.97.64-1.65,1.29-3.32,1.93-4.97Z"/>
      <path class="cls-6" d="M358.21,335.99c-1.45,3.74-2.89,7.45-4.33,11.17,2.16-5.57,4.32-11.13,6.5-16.73-.98-.57-2.11-1.27-3.32-2.01-.05.11-.1.21-.15.32,1.71,1.94,2.29,4.72,1.31,7.25Z"/>
      <path class="cls-6" d="M186.51,371.01c1.95-4.88,3.88-9.77,5.83-14.65-1.96,4.88-3.89,9.77-5.83,14.65Z"/>
      <path class="cls-6" d="M160.32,438.07c-.2.53-.41,1.05-.61,1.58.11-.06.22-.13.33-.2.04-.46.14-.92.28-1.39Z"/>
      <path class="cls-6" d="M169.11,415.23c2.13-5.49,4.22-11,6.37-16.47-2.15,5.47-4.24,10.98-6.37,16.47Z"/>
      <path class="cls-6" d="M303.62,472.48s-.03.03-.04.05c-.75.68-1.65,1.06-2.79,1.27-.5.09-1.03.16-1.63.18-.49.02-1.02.01-1.59-.01-13.44-.55-26.92.34-40.38.12-.61,5.3-1.49,10.51-2.62,15.63h175.69c-.33-9.86-4.36-16.32-9.4-22.04-1.13-1.28-3.69-1.57-5.95-1.66h-107.96c-.44,1.09-.9,2.18-1.34,3.27-.57,1.44-1.2,2.47-1.98,3.19Z"/>
      <path class="cls-6" d="M162.97,468.05c-.44.1-.89.2-1.33.3l3.73,21.36h29.96c-.21-4.59-.35-9.19-.35-13.83,0-3.3.07-6.59.18-9.86h-33.92l.22,1.25c.5.27,1.01.51,1.52.78Z"/>
      <path class="cls-6" d="M195.33,489.71h59.24c1.13-5.12,2.01-10.33,2.62-15.63-.1,0-.19,0-.29,0-.94-.02-1.88-.03-2.82-.05-.98-.02-1.97-.04-2.95-.06-2.82-.08-5.65-.22-8.41-.56-.93-.11-1.86-.25-2.78-.41-1.84-.32-3.63-.76-5.37-1.34-5.52-1.84-11.03-3.73-16.54-5.65h-22.87c-.11,3.28-.18,6.56-.18,9.86,0,4.64.14,9.25.35,13.83Z"/>
      <path class="cls-6" d="M161.46,467.27l-.22-1.25h-2.21c.81.41,1.62.82,2.43,1.25Z"/>
      <path class="cls-6" d="M150.14,470.98c-11.21,2.83-13.13,5.8-11.69,18.73h26.93l-3.73-21.36c-3.84.86-7.69,1.68-11.51,2.64Z"/>
      <path class="cls-6" d="M303.62,472.48s-.03.03-.04.05c.01-.01.03-.03.04-.05Z"/>
      <path class="cls-6" d="M300.79,473.8c-.5.09-1.03.16-1.63.18.6-.02,1.13-.08,1.63-.18Z"/>
      <path class="cls-6" d="M257.19,474.08h0c13.46.22,26.95-.67,40.38-.12.57.02,1.1.03,1.59.01-.49.02-1.02.01-1.59-.01-13.43-.55-26.92.34-40.38.12Z"/>
      <path class="cls-6" d="M256.9,474.08c-.94-.02-1.88-.03-2.82-.05.95.02,1.89.03,2.82.05.1,0,.19,0,.29,0h0c-.1,0-.19,0-.29,0Z"/>
      <path class="cls-6" d="M254.07,474.04c-.98-.02-1.97-.04-2.95-.06.99.03,1.97.05,2.95.06Z"/>
      <path class="cls-6" d="M251.33,264.94c-1.9,7.4,2.53,14.24,11.55,16.75.99.28,1.91.41,2.78.44-.87-.04-1.79-.17-2.78-.44-7.57-2.1-13.62-8.55-11.55-16.75Z"/>
      <path class="cls-6" d="M251.43,264.5c.18-.64.41-1.26.67-1.87-.27.63-.49,1.25-.67,1.87Z"/>
      <path class="cls-6" d="M136.19,456.48c-1.82-.6-2.96-1.28-3.56-2.12.57,3.26,2.55,6.62,5.35,7.54,5.18,1.71,9.28,3.04,13.66,4.11h7.39c-7.42-3.79-15.03-6.96-22.84-9.53Z"/>
      <path class="cls-6" d="M161.46,467.27l.1.59c.48.06.92.13,1.41.19-.5-.27-1.01-.52-1.52-.78Z"/>
      <path class="cls-6" d="M161.46,467.27c-.81-.43-1.62-.84-2.43-1.25h-7.39c3.01.74,6.19,1.34,9.92,1.84l-.1-.59Z"/>
      <g>
        <path class="cls-4" d="M344.92,436.01c-1.79.02-4.64.63-5.18,1.8-.71,1.57-1.4,3.16-2.09,4.75-2.93,6.78-5.67,13.76-8.73,21.24,4.51.37,7.65.8,10.8.85,24.64.45,49.29.8,73.93,1.31.39,0,.82.03,1.24.05h11.74c3.58,0,6.48,2.9,6.48,6.48v12.59c0,3.58-2.9,6.48-6.48,6.48H128.12c-1.16,0-2.23-.33-3.17-.86-1.66-.94-2.86-2.57-3.2-4.51-.06-.36-.11-.73-.11-1.11v-12.59c0-3.58,2.9-6.48,6.48-6.48h23.51c-4.38-1.07-8.48-2.4-13.66-4.11-2.8-.92-4.78-4.28-5.35-7.54-.02-.09-.02-.18-.03-.27-.06-.38-.12-.76-.14-1.13-.03-.68.02-1.34.14-1.96.1-.51.24-.99.45-1.42.82-1.69,1.59-3.42,2.37-5.23,1.03-2.37,2.09-4.88,3.33-7.72h-27.47c-4.77,0-9.07,2.89-10.86,7.31l-8.41,20.68-5.03,12.36-5.56,13.68-20.3,49.9c-3.13,7.7,2.52,16.13,10.84,16.15l100.06.24h5.1s1.53.02,1.53.02l27.58.07,14.74.04,178.07.43,76.3.19c6.43.02,11.26-5,11.72-10.82.14-1.81-.12-3.71-.92-5.55l-12.29-28.58-10.55-24.52-19.3-44.88c-1.85-4.29-6.06-7.08-10.73-7.11-18.62-.09-37.24-.12-55.85-.16-10.82-.03-21.65-.18-32.47-.07Z"/>
        <path class="cls-4" d="M351.96,325.6s0,0-.01,0c-1.58-.75-3.17-1.48-4.75-2.23,1.58.75,3.17,1.48,4.75,2.23,0,0,0,0,.01,0Z"/>
        <path class="cls-4" d="M315.08,446.1c.57-1.39,1.13-2.79,1.7-4.18,1.8-4.39,3.62-8.76,5.35-13.18,3.15-8.04,6.3-16.08,9.43-24.13-3.14,8.05-6.28,16.09-9.43,24.13-1.73,4.41-3.55,8.79-5.35,13.18-.57,1.39-1.12,2.79-1.7,4.18Z"/>
        <path class="cls-4" d="M355.12,327.27c-.08-.05-.18-.09-.26-.14.12.07.24.14.37.21-.04-.02-.07-.05-.11-.08Z"/>
        <path class="cls-4" d="M323.68,312.33c7.85,3.67,15.7,7.34,23.53,11.04-7.83-3.7-15.68-7.37-23.53-11.04-6.32-2.96-12.62-5.96-18.96-8.89-2.02-.93-3.99-1.6-5.99-1.92,2,.32,3.97.98,5.99,1.92,6.34,2.93,12.64,5.94,18.96,8.89Z"/>
        <path class="cls-4" d="M258.05,305.93c2.94.81,6.04,1.29,9.24,1.42-3.2-.13-6.3-.61-9.24-1.42Z"/>
        <path class="cls-4" d="M218.05,466.01c-.57-.2-1.14-.38-1.71-.58.56.19,1.12.39,1.67.58h.03Z"/>
        <path class="cls-4" d="M160.44,437.65c-.05.14-.07.28-.11.42,2.89-7.64,5.84-15.24,8.79-22.84-2.9,7.47-5.83,14.91-8.67,22.41Z"/>
        <path class="cls-4" d="M200.78,335.32c2.52-6.27,5.03-12.51,7.54-18.8-2.52,6.29-5.03,12.54-7.54,18.8-1.8,4.47-3.59,8.96-5.39,13.42-1.02,2.53-2.04,5.08-3.06,7.62,1.02-2.53,2.04-5.08,3.06-7.62,1.79-4.47,3.59-8.95,5.39-13.42Z"/>
      </g>
    </g>
  </g>
</svg>